<?xml version="1.0" encoding="utf-8" standalone="no"?>
<!DOCTYPE svg PUBLIC "-//W3C//DTD SVG 1.1//EN"
  "http://www.w3.org/Graphics/SVG/1.1/DTD/svg11.dtd">
<!-- Created with matplotlib (https://matplotlib.org/) -->
<svg height="691.2pt" version="1.1" viewBox="0 0 921.6 691.2" width="921.6pt" xmlns="http://www.w3.org/2000/svg" xmlns:xlink="http://www.w3.org/1999/xlink">
 <metadata>
  <rdf:RDF xmlns:cc="http://creativecommons.org/ns#" xmlns:dc="http://purl.org/dc/elements/1.1/" xmlns:rdf="http://www.w3.org/1999/02/22-rdf-syntax-ns#">
   <cc:Work>
    <dc:type rdf:resource="http://purl.org/dc/dcmitype/StillImage"/>
    <dc:date>2021-03-11T01:11:40.594802</dc:date>
    <dc:format>image/svg+xml</dc:format>
    <dc:creator>
     <cc:Agent>
      <dc:title>Matplotlib v3.3.4, https://matplotlib.org/</dc:title>
     </cc:Agent>
    </dc:creator>
   </cc:Work>
  </rdf:RDF>
 </metadata>
 <defs>
  <style type="text/css">*{stroke-linecap:butt;stroke-linejoin:round;}</style>
 </defs>
 <g id="figure_1">
  <g id="patch_1">
   <path d="M 0 691.2 
L 921.6 691.2 
L 921.6 0 
L 0 0 
z
" style="fill:#ffffff;"/>
  </g>
  <g id="axes_1">
   <g id="patch_2">
    <path d="M 115.2 324.864 
L 439.854545 324.864 
L 439.854545 82.944 
L 115.2 82.944 
z
" style="fill:#ffffff;"/>
   </g>
   <g id="patch_3">
    <path clip-path="url(#pc71c8ba459)" d="M 129.957025 324.864 
L 144.71405 324.864 
L 144.71405 94.464 
L 129.957025 94.464 
z
" style="fill:#7f7f7f;"/>
   </g>
   <g id="patch_4">
    <path clip-path="url(#pc71c8ba459)" d="M 144.71405 324.864 
L 159.471074 324.864 
L 159.471074 216.864 
L 144.71405 216.864 
z
" style="fill:#7f7f7f;"/>
   </g>
   <g id="patch_5">
    <path clip-path="url(#pc71c8ba459)" d="M 159.471074 324.864 
L 174.228099 324.864 
L 174.228099 224.064 
L 159.471074 224.064 
z
" style="fill:#7f7f7f;"/>
   </g>
   <g id="patch_6">
    <path clip-path="url(#pc71c8ba459)" d="M 174.228099 324.864 
L 188.985124 324.864 
L 188.985124 281.664 
L 174.228099 281.664 
z
" style="fill:#7f7f7f;"/>
   </g>
   <g id="patch_7">
    <path clip-path="url(#pc71c8ba459)" d="M 188.985124 324.864 
L 203.742149 324.864 
L 203.742149 288.864 
L 188.985124 288.864 
z
" style="fill:#7f7f7f;"/>
   </g>
   <g id="patch_8">
    <path clip-path="url(#pc71c8ba459)" d="M 203.742149 324.864 
L 218.499174 324.864 
L 218.499174 296.064 
L 203.742149 296.064 
z
" style="fill:#7f7f7f;"/>
   </g>
   <g id="patch_9">
    <path clip-path="url(#pc71c8ba459)" d="M 218.499174 324.864 
L 233.256198 324.864 
L 233.256198 281.664 
L 218.499174 281.664 
z
" style="fill:#7f7f7f;"/>
   </g>
   <g id="patch_10">
    <path clip-path="url(#pc71c8ba459)" d="M 233.256198 324.864 
L 248.013223 324.864 
L 248.013223 303.264 
L 233.256198 303.264 
z
" style="fill:#7f7f7f;"/>
   </g>
   <g id="patch_11">
    <path clip-path="url(#pc71c8ba459)" d="M 248.013223 324.864 
L 262.770248 324.864 
L 262.770248 317.664 
L 248.013223 317.664 
z
" style="fill:#7f7f7f;"/>
   </g>
   <g id="patch_12">
    <path clip-path="url(#pc71c8ba459)" d="M 262.770248 324.864 
L 277.527273 324.864 
L 277.527273 303.264 
L 262.770248 303.264 
z
" style="fill:#7f7f7f;"/>
   </g>
   <g id="patch_13">
    <path clip-path="url(#pc71c8ba459)" d="M 277.527273 324.864 
L 292.284298 324.864 
L 292.284298 310.464 
L 277.527273 310.464 
z
" style="fill:#7f7f7f;"/>
   </g>
   <g id="patch_14">
    <path clip-path="url(#pc71c8ba459)" d="M 292.284298 324.864 
L 307.041322 324.864 
L 307.041322 317.664 
L 292.284298 317.664 
z
" style="fill:#7f7f7f;"/>
   </g>
   <g id="patch_15">
    <path clip-path="url(#pc71c8ba459)" d="M 307.041322 324.864 
L 321.798347 324.864 
L 321.798347 303.264 
L 307.041322 303.264 
z
" style="fill:#7f7f7f;"/>
   </g>
   <g id="patch_16">
    <path clip-path="url(#pc71c8ba459)" d="M 321.798347 324.864 
L 336.555372 324.864 
L 336.555372 288.864 
L 321.798347 288.864 
z
" style="fill:#7f7f7f;"/>
   </g>
   <g id="patch_17">
    <path clip-path="url(#pc71c8ba459)" d="M 336.555372 324.864 
L 351.312397 324.864 
L 351.312397 303.264 
L 336.555372 303.264 
z
" style="fill:#7f7f7f;"/>
   </g>
   <g id="patch_18">
    <path clip-path="url(#pc71c8ba459)" d="M 351.312397 324.864 
L 366.069421 324.864 
L 366.069421 303.264 
L 351.312397 303.264 
z
" style="fill:#7f7f7f;"/>
   </g>
   <g id="patch_19">
    <path clip-path="url(#pc71c8ba459)" d="M 366.069421 324.864 
L 380.826446 324.864 
L 380.826446 303.264 
L 366.069421 303.264 
z
" style="fill:#7f7f7f;"/>
   </g>
   <g id="patch_20">
    <path clip-path="url(#pc71c8ba459)" d="M 380.826446 324.864 
L 395.583471 324.864 
L 395.583471 310.464 
L 380.826446 310.464 
z
" style="fill:#7f7f7f;"/>
   </g>
   <g id="patch_21">
    <path clip-path="url(#pc71c8ba459)" d="M 395.583471 324.864 
L 410.340496 324.864 
L 410.340496 296.064 
L 395.583471 296.064 
z
" style="fill:#7f7f7f;"/>
   </g>
   <g id="patch_22">
    <path clip-path="url(#pc71c8ba459)" d="M 410.340496 324.864 
L 425.097521 324.864 
L 425.097521 296.064 
L 410.340496 296.064 
z
" style="fill:#7f7f7f;"/>
   </g>
   <g id="matplotlib.axis_1">
    <g id="xtick_1">
     <g id="line2d_1">
      <defs>
       <path d="M 0 0 
L 0 3.5 
" id="m2c323c6b25" style="stroke:#000000;stroke-width:0.8;"/>
      </defs>
      <g>
       <use style="stroke:#000000;stroke-width:0.8;" x="129.956041" xlink:href="#m2c323c6b25" y="324.864"/>
      </g>
     </g>
     <g id="text_1">
      <!-- 0.0 -->
      <g transform="translate(122.004478 339.462437)scale(0.1 -0.1)">
       <defs>
        <path d="M 31.78125 66.40625 
Q 24.171875 66.40625 20.328125 58.90625 
Q 16.5 51.421875 16.5 36.375 
Q 16.5 21.390625 20.328125 13.890625 
Q 24.171875 6.390625 31.78125 6.390625 
Q 39.453125 6.390625 43.28125 13.890625 
Q 47.125 21.390625 47.125 36.375 
Q 47.125 51.421875 43.28125 58.90625 
Q 39.453125 66.40625 31.78125 66.40625 
z
M 31.78125 74.21875 
Q 44.046875 74.21875 50.515625 64.515625 
Q 56.984375 54.828125 56.984375 36.375 
Q 56.984375 17.96875 50.515625 8.265625 
Q 44.046875 -1.421875 31.78125 -1.421875 
Q 19.53125 -1.421875 13.0625 8.265625 
Q 6.59375 17.96875 6.59375 36.375 
Q 6.59375 54.828125 13.0625 64.515625 
Q 19.53125 74.21875 31.78125 74.21875 
z
" id="DejaVuSans-48"/>
        <path d="M 10.6875 12.40625 
L 21 12.40625 
L 21 0 
L 10.6875 0 
z
" id="DejaVuSans-46"/>
       </defs>
       <use xlink:href="#DejaVuSans-48"/>
       <use x="63.623047" xlink:href="#DejaVuSans-46"/>
       <use x="95.410156" xlink:href="#DejaVuSans-48"/>
      </g>
     </g>
    </g>
    <g id="xtick_2">
     <g id="line2d_2">
      <g>
       <use style="stroke:#000000;stroke-width:0.8;" x="189.30921" xlink:href="#m2c323c6b25" y="324.864"/>
      </g>
     </g>
     <g id="text_2">
      <!-- 0.2 -->
      <g transform="translate(181.357647 339.462437)scale(0.1 -0.1)">
       <defs>
        <path d="M 19.1875 8.296875 
L 53.609375 8.296875 
L 53.609375 0 
L 7.328125 0 
L 7.328125 8.296875 
Q 12.9375 14.109375 22.625 23.890625 
Q 32.328125 33.6875 34.8125 36.53125 
Q 39.546875 41.84375 41.421875 45.53125 
Q 43.3125 49.21875 43.3125 52.78125 
Q 43.3125 58.59375 39.234375 62.25 
Q 35.15625 65.921875 28.609375 65.921875 
Q 23.96875 65.921875 18.8125 64.3125 
Q 13.671875 62.703125 7.8125 59.421875 
L 7.8125 69.390625 
Q 13.765625 71.78125 18.9375 73 
Q 24.125 74.21875 28.421875 74.21875 
Q 39.75 74.21875 46.484375 68.546875 
Q 53.21875 62.890625 53.21875 53.421875 
Q 53.21875 48.921875 51.53125 44.890625 
Q 49.859375 40.875 45.40625 35.40625 
Q 44.1875 33.984375 37.640625 27.21875 
Q 31.109375 20.453125 19.1875 8.296875 
z
" id="DejaVuSans-50"/>
       </defs>
       <use xlink:href="#DejaVuSans-48"/>
       <use x="63.623047" xlink:href="#DejaVuSans-46"/>
       <use x="95.410156" xlink:href="#DejaVuSans-50"/>
      </g>
     </g>
    </g>
    <g id="xtick_3">
     <g id="line2d_3">
      <g>
       <use style="stroke:#000000;stroke-width:0.8;" x="248.662379" xlink:href="#m2c323c6b25" y="324.864"/>
      </g>
     </g>
     <g id="text_3">
      <!-- 0.4 -->
      <g transform="translate(240.710817 339.462437)scale(0.1 -0.1)">
       <defs>
        <path d="M 37.796875 64.3125 
L 12.890625 25.390625 
L 37.796875 25.390625 
z
M 35.203125 72.90625 
L 47.609375 72.90625 
L 47.609375 25.390625 
L 58.015625 25.390625 
L 58.015625 17.1875 
L 47.609375 17.1875 
L 47.609375 0 
L 37.796875 0 
L 37.796875 17.1875 
L 4.890625 17.1875 
L 4.890625 26.703125 
z
" id="DejaVuSans-52"/>
       </defs>
       <use xlink:href="#DejaVuSans-48"/>
       <use x="63.623047" xlink:href="#DejaVuSans-46"/>
       <use x="95.410156" xlink:href="#DejaVuSans-52"/>
      </g>
     </g>
    </g>
    <g id="xtick_4">
     <g id="line2d_4">
      <g>
       <use style="stroke:#000000;stroke-width:0.8;" x="308.015549" xlink:href="#m2c323c6b25" y="324.864"/>
      </g>
     </g>
     <g id="text_4">
      <!-- 0.6 -->
      <g transform="translate(300.063986 339.462437)scale(0.1 -0.1)">
       <defs>
        <path d="M 33.015625 40.375 
Q 26.375 40.375 22.484375 35.828125 
Q 18.609375 31.296875 18.609375 23.390625 
Q 18.609375 15.53125 22.484375 10.953125 
Q 26.375 6.390625 33.015625 6.390625 
Q 39.65625 6.390625 43.53125 10.953125 
Q 47.40625 15.53125 47.40625 23.390625 
Q 47.40625 31.296875 43.53125 35.828125 
Q 39.65625 40.375 33.015625 40.375 
z
M 52.59375 71.296875 
L 52.59375 62.3125 
Q 48.875 64.0625 45.09375 64.984375 
Q 41.3125 65.921875 37.59375 65.921875 
Q 27.828125 65.921875 22.671875 59.328125 
Q 17.53125 52.734375 16.796875 39.40625 
Q 19.671875 43.65625 24.015625 45.921875 
Q 28.375 48.1875 33.59375 48.1875 
Q 44.578125 48.1875 50.953125 41.515625 
Q 57.328125 34.859375 57.328125 23.390625 
Q 57.328125 12.15625 50.6875 5.359375 
Q 44.046875 -1.421875 33.015625 -1.421875 
Q 20.359375 -1.421875 13.671875 8.265625 
Q 6.984375 17.96875 6.984375 36.375 
Q 6.984375 53.65625 15.1875 63.9375 
Q 23.390625 74.21875 37.203125 74.21875 
Q 40.921875 74.21875 44.703125 73.484375 
Q 48.484375 72.75 52.59375 71.296875 
z
" id="DejaVuSans-54"/>
       </defs>
       <use xlink:href="#DejaVuSans-48"/>
       <use x="63.623047" xlink:href="#DejaVuSans-46"/>
       <use x="95.410156" xlink:href="#DejaVuSans-54"/>
      </g>
     </g>
    </g>
    <g id="xtick_5">
     <g id="line2d_5">
      <g>
       <use style="stroke:#000000;stroke-width:0.8;" x="367.368718" xlink:href="#m2c323c6b25" y="324.864"/>
      </g>
     </g>
     <g id="text_5">
      <!-- 0.8 -->
      <g transform="translate(359.417155 339.462437)scale(0.1 -0.1)">
       <defs>
        <path d="M 31.78125 34.625 
Q 24.75 34.625 20.71875 30.859375 
Q 16.703125 27.09375 16.703125 20.515625 
Q 16.703125 13.921875 20.71875 10.15625 
Q 24.75 6.390625 31.78125 6.390625 
Q 38.8125 6.390625 42.859375 10.171875 
Q 46.921875 13.96875 46.921875 20.515625 
Q 46.921875 27.09375 42.890625 30.859375 
Q 38.875 34.625 31.78125 34.625 
z
M 21.921875 38.8125 
Q 15.578125 40.375 12.03125 44.71875 
Q 8.5 49.078125 8.5 55.328125 
Q 8.5 64.0625 14.71875 69.140625 
Q 20.953125 74.21875 31.78125 74.21875 
Q 42.671875 74.21875 48.875 69.140625 
Q 55.078125 64.0625 55.078125 55.328125 
Q 55.078125 49.078125 51.53125 44.71875 
Q 48 40.375 41.703125 38.8125 
Q 48.828125 37.15625 52.796875 32.3125 
Q 56.78125 27.484375 56.78125 20.515625 
Q 56.78125 9.90625 50.3125 4.234375 
Q 43.84375 -1.421875 31.78125 -1.421875 
Q 19.734375 -1.421875 13.25 4.234375 
Q 6.78125 9.90625 6.78125 20.515625 
Q 6.78125 27.484375 10.78125 32.3125 
Q 14.796875 37.15625 21.921875 38.8125 
z
M 18.3125 54.390625 
Q 18.3125 48.734375 21.84375 45.5625 
Q 25.390625 42.390625 31.78125 42.390625 
Q 38.140625 42.390625 41.71875 45.5625 
Q 45.3125 48.734375 45.3125 54.390625 
Q 45.3125 60.0625 41.71875 63.234375 
Q 38.140625 66.40625 31.78125 66.40625 
Q 25.390625 66.40625 21.84375 63.234375 
Q 18.3125 60.0625 18.3125 54.390625 
z
" id="DejaVuSans-56"/>
       </defs>
       <use xlink:href="#DejaVuSans-48"/>
       <use x="63.623047" xlink:href="#DejaVuSans-46"/>
       <use x="95.410156" xlink:href="#DejaVuSans-56"/>
      </g>
     </g>
    </g>
    <g id="xtick_6">
     <g id="line2d_6">
      <g>
       <use style="stroke:#000000;stroke-width:0.8;" x="426.721887" xlink:href="#m2c323c6b25" y="324.864"/>
      </g>
     </g>
     <g id="text_6">
      <!-- 1.0 -->
      <g transform="translate(418.770325 339.462437)scale(0.1 -0.1)">
       <defs>
        <path d="M 12.40625 8.296875 
L 28.515625 8.296875 
L 28.515625 63.921875 
L 10.984375 60.40625 
L 10.984375 69.390625 
L 28.421875 72.90625 
L 38.28125 72.90625 
L 38.28125 8.296875 
L 54.390625 8.296875 
L 54.390625 0 
L 12.40625 0 
z
" id="DejaVuSans-49"/>
       </defs>
       <use xlink:href="#DejaVuSans-49"/>
       <use x="63.623047" xlink:href="#DejaVuSans-46"/>
       <use x="95.410156" xlink:href="#DejaVuSans-48"/>
      </g>
     </g>
    </g>
   </g>
   <g id="matplotlib.axis_2">
    <g id="ytick_1">
     <g id="line2d_7">
      <defs>
       <path d="M 0 0 
L -3.5 0 
" id="m6881659f36" style="stroke:#000000;stroke-width:0.8;"/>
      </defs>
      <g>
       <use style="stroke:#000000;stroke-width:0.8;" x="115.2" xlink:href="#m6881659f36" y="324.864"/>
      </g>
     </g>
     <g id="text_7">
      <!-- 0 -->
      <g transform="translate(101.8375 328.663219)scale(0.1 -0.1)">
       <use xlink:href="#DejaVuSans-48"/>
      </g>
     </g>
    </g>
    <g id="ytick_2">
     <g id="line2d_8">
      <g>
       <use style="stroke:#000000;stroke-width:0.8;" x="115.2" xlink:href="#m6881659f36" y="288.864"/>
      </g>
     </g>
     <g id="text_8">
      <!-- 5 -->
      <g transform="translate(101.8375 292.663219)scale(0.1 -0.1)">
       <defs>
        <path d="M 10.796875 72.90625 
L 49.515625 72.90625 
L 49.515625 64.59375 
L 19.828125 64.59375 
L 19.828125 46.734375 
Q 21.96875 47.46875 24.109375 47.828125 
Q 26.265625 48.1875 28.421875 48.1875 
Q 40.625 48.1875 47.75 41.5 
Q 54.890625 34.8125 54.890625 23.390625 
Q 54.890625 11.625 47.5625 5.09375 
Q 40.234375 -1.421875 26.90625 -1.421875 
Q 22.3125 -1.421875 17.546875 -0.640625 
Q 12.796875 0.140625 7.71875 1.703125 
L 7.71875 11.625 
Q 12.109375 9.234375 16.796875 8.0625 
Q 21.484375 6.890625 26.703125 6.890625 
Q 35.15625 6.890625 40.078125 11.328125 
Q 45.015625 15.765625 45.015625 23.390625 
Q 45.015625 31 40.078125 35.4375 
Q 35.15625 39.890625 26.703125 39.890625 
Q 22.75 39.890625 18.8125 39.015625 
Q 14.890625 38.140625 10.796875 36.28125 
z
" id="DejaVuSans-53"/>
       </defs>
       <use xlink:href="#DejaVuSans-53"/>
      </g>
     </g>
    </g>
    <g id="ytick_3">
     <g id="line2d_9">
      <g>
       <use style="stroke:#000000;stroke-width:0.8;" x="115.2" xlink:href="#m6881659f36" y="252.864"/>
      </g>
     </g>
     <g id="text_9">
      <!-- 10 -->
      <g transform="translate(95.475 256.663219)scale(0.1 -0.1)">
       <use xlink:href="#DejaVuSans-49"/>
       <use x="63.623047" xlink:href="#DejaVuSans-48"/>
      </g>
     </g>
    </g>
    <g id="ytick_4">
     <g id="line2d_10">
      <g>
       <use style="stroke:#000000;stroke-width:0.8;" x="115.2" xlink:href="#m6881659f36" y="216.864"/>
      </g>
     </g>
     <g id="text_10">
      <!-- 15 -->
      <g transform="translate(95.475 220.663219)scale(0.1 -0.1)">
       <use xlink:href="#DejaVuSans-49"/>
       <use x="63.623047" xlink:href="#DejaVuSans-53"/>
      </g>
     </g>
    </g>
    <g id="ytick_5">
     <g id="line2d_11">
      <g>
       <use style="stroke:#000000;stroke-width:0.8;" x="115.2" xlink:href="#m6881659f36" y="180.864"/>
      </g>
     </g>
     <g id="text_11">
      <!-- 20 -->
      <g transform="translate(95.475 184.663219)scale(0.1 -0.1)">
       <use xlink:href="#DejaVuSans-50"/>
       <use x="63.623047" xlink:href="#DejaVuSans-48"/>
      </g>
     </g>
    </g>
    <g id="ytick_6">
     <g id="line2d_12">
      <g>
       <use style="stroke:#000000;stroke-width:0.8;" x="115.2" xlink:href="#m6881659f36" y="144.864"/>
      </g>
     </g>
     <g id="text_12">
      <!-- 25 -->
      <g transform="translate(95.475 148.663219)scale(0.1 -0.1)">
       <use xlink:href="#DejaVuSans-50"/>
       <use x="63.623047" xlink:href="#DejaVuSans-53"/>
      </g>
     </g>
    </g>
    <g id="ytick_7">
     <g id="line2d_13">
      <g>
       <use style="stroke:#000000;stroke-width:0.8;" x="115.2" xlink:href="#m6881659f36" y="108.864"/>
      </g>
     </g>
     <g id="text_13">
      <!-- 30 -->
      <g transform="translate(95.475 112.663219)scale(0.1 -0.1)">
       <defs>
        <path d="M 40.578125 39.3125 
Q 47.65625 37.796875 51.625 33 
Q 55.609375 28.21875 55.609375 21.1875 
Q 55.609375 10.40625 48.1875 4.484375 
Q 40.765625 -1.421875 27.09375 -1.421875 
Q 22.515625 -1.421875 17.65625 -0.515625 
Q 12.796875 0.390625 7.625 2.203125 
L 7.625 11.71875 
Q 11.71875 9.328125 16.59375 8.109375 
Q 21.484375 6.890625 26.8125 6.890625 
Q 36.078125 6.890625 40.9375 10.546875 
Q 45.796875 14.203125 45.796875 21.1875 
Q 45.796875 27.640625 41.28125 31.265625 
Q 36.765625 34.90625 28.71875 34.90625 
L 20.21875 34.90625 
L 20.21875 43.015625 
L 29.109375 43.015625 
Q 36.375 43.015625 40.234375 45.921875 
Q 44.09375 48.828125 44.09375 54.296875 
Q 44.09375 59.90625 40.109375 62.90625 
Q 36.140625 65.921875 28.71875 65.921875 
Q 24.65625 65.921875 20.015625 65.03125 
Q 15.375 64.15625 9.8125 62.3125 
L 9.8125 71.09375 
Q 15.4375 72.65625 20.34375 73.4375 
Q 25.25 74.21875 29.59375 74.21875 
Q 40.828125 74.21875 47.359375 69.109375 
Q 53.90625 64.015625 53.90625 55.328125 
Q 53.90625 49.265625 50.4375 45.09375 
Q 46.96875 40.921875 40.578125 39.3125 
z
" id="DejaVuSans-51"/>
       </defs>
       <use xlink:href="#DejaVuSans-51"/>
       <use x="63.623047" xlink:href="#DejaVuSans-48"/>
      </g>
     </g>
    </g>
   </g>
   <g id="line2d_14">
    <path clip-path="url(#pc71c8ba459)" d="M 144.794333 324.864 
L 144.794333 82.944 
" style="fill:none;stroke:#00008b;stroke-linecap:square;stroke-width:2;"/>
   </g>
   <g id="line2d_15">
    <path clip-path="url(#pc71c8ba459)" d="M 172.308768 324.864 
L 172.308768 82.944 
" style="fill:none;stroke:#008b00;stroke-linecap:square;stroke-width:2;"/>
   </g>
   <g id="patch_23">
    <path d="M 115.2 324.864 
L 115.2 82.944 
" style="fill:none;stroke:#000000;stroke-linecap:square;stroke-linejoin:miter;stroke-width:0.8;"/>
   </g>
   <g id="patch_24">
    <path d="M 439.854545 324.864 
L 439.854545 82.944 
" style="fill:none;stroke:#000000;stroke-linecap:square;stroke-linejoin:miter;stroke-width:0.8;"/>
   </g>
   <g id="patch_25">
    <path d="M 115.2 324.864 
L 439.854545 324.864 
" style="fill:none;stroke:#000000;stroke-linecap:square;stroke-linejoin:miter;stroke-width:0.8;"/>
   </g>
   <g id="patch_26">
    <path d="M 115.2 82.944 
L 439.854545 82.944 
" style="fill:none;stroke:#000000;stroke-linecap:square;stroke-linejoin:miter;stroke-width:0.8;"/>
   </g>
   <g id="text_14">
    <!-- A -->
    <g transform="translate(118.446545 92.961637)scale(0.1 -0.1)">
     <defs>
      <path d="M 34.1875 63.1875 
L 20.796875 26.90625 
L 47.609375 26.90625 
z
M 28.609375 72.90625 
L 39.796875 72.90625 
L 67.578125 0 
L 57.328125 0 
L 50.6875 18.703125 
L 17.828125 18.703125 
L 11.1875 0 
L 0.78125 0 
z
" id="DejaVuSans-65"/>
     </defs>
     <use xlink:href="#DejaVuSans-65"/>
    </g>
   </g>
   <g id="text_15">
    <!-- Latency -->
    <g transform="translate(253.810398 76.944)scale(0.12 -0.12)">
     <defs>
      <path d="M 9.8125 72.90625 
L 19.671875 72.90625 
L 19.671875 8.296875 
L 55.171875 8.296875 
L 55.171875 0 
L 9.8125 0 
z
" id="DejaVuSans-76"/>
      <path d="M 34.28125 27.484375 
Q 23.390625 27.484375 19.1875 25 
Q 14.984375 22.515625 14.984375 16.5 
Q 14.984375 11.71875 18.140625 8.90625 
Q 21.296875 6.109375 26.703125 6.109375 
Q 34.1875 6.109375 38.703125 11.40625 
Q 43.21875 16.703125 43.21875 25.484375 
L 43.21875 27.484375 
z
M 52.203125 31.203125 
L 52.203125 0 
L 43.21875 0 
L 43.21875 8.296875 
Q 40.140625 3.328125 35.546875 0.953125 
Q 30.953125 -1.421875 24.3125 -1.421875 
Q 15.921875 -1.421875 10.953125 3.296875 
Q 6 8.015625 6 15.921875 
Q 6 25.140625 12.171875 29.828125 
Q 18.359375 34.515625 30.609375 34.515625 
L 43.21875 34.515625 
L 43.21875 35.40625 
Q 43.21875 41.609375 39.140625 45 
Q 35.0625 48.390625 27.6875 48.390625 
Q 23 48.390625 18.546875 47.265625 
Q 14.109375 46.140625 10.015625 43.890625 
L 10.015625 52.203125 
Q 14.9375 54.109375 19.578125 55.046875 
Q 24.21875 56 28.609375 56 
Q 40.484375 56 46.34375 49.84375 
Q 52.203125 43.703125 52.203125 31.203125 
z
" id="DejaVuSans-97"/>
      <path d="M 18.3125 70.21875 
L 18.3125 54.6875 
L 36.8125 54.6875 
L 36.8125 47.703125 
L 18.3125 47.703125 
L 18.3125 18.015625 
Q 18.3125 11.328125 20.140625 9.421875 
Q 21.96875 7.515625 27.59375 7.515625 
L 36.8125 7.515625 
L 36.8125 0 
L 27.59375 0 
Q 17.1875 0 13.234375 3.875 
Q 9.28125 7.765625 9.28125 18.015625 
L 9.28125 47.703125 
L 2.6875 47.703125 
L 2.6875 54.6875 
L 9.28125 54.6875 
L 9.28125 70.21875 
z
" id="DejaVuSans-116"/>
      <path d="M 56.203125 29.59375 
L 56.203125 25.203125 
L 14.890625 25.203125 
Q 15.484375 15.921875 20.484375 11.0625 
Q 25.484375 6.203125 34.421875 6.203125 
Q 39.59375 6.203125 44.453125 7.46875 
Q 49.3125 8.734375 54.109375 11.28125 
L 54.109375 2.78125 
Q 49.265625 0.734375 44.1875 -0.34375 
Q 39.109375 -1.421875 33.890625 -1.421875 
Q 20.796875 -1.421875 13.15625 6.1875 
Q 5.515625 13.8125 5.515625 26.8125 
Q 5.515625 40.234375 12.765625 48.109375 
Q 20.015625 56 32.328125 56 
Q 43.359375 56 49.78125 48.890625 
Q 56.203125 41.796875 56.203125 29.59375 
z
M 47.21875 32.234375 
Q 47.125 39.59375 43.09375 43.984375 
Q 39.0625 48.390625 32.421875 48.390625 
Q 24.90625 48.390625 20.390625 44.140625 
Q 15.875 39.890625 15.1875 32.171875 
z
" id="DejaVuSans-101"/>
      <path d="M 54.890625 33.015625 
L 54.890625 0 
L 45.90625 0 
L 45.90625 32.71875 
Q 45.90625 40.484375 42.875 44.328125 
Q 39.84375 48.1875 33.796875 48.1875 
Q 26.515625 48.1875 22.3125 43.546875 
Q 18.109375 38.921875 18.109375 30.90625 
L 18.109375 0 
L 9.078125 0 
L 9.078125 54.6875 
L 18.109375 54.6875 
L 18.109375 46.1875 
Q 21.34375 51.125 25.703125 53.5625 
Q 30.078125 56 35.796875 56 
Q 45.21875 56 50.046875 50.171875 
Q 54.890625 44.34375 54.890625 33.015625 
z
" id="DejaVuSans-110"/>
      <path d="M 48.78125 52.59375 
L 48.78125 44.1875 
Q 44.96875 46.296875 41.140625 47.34375 
Q 37.3125 48.390625 33.40625 48.390625 
Q 24.65625 48.390625 19.8125 42.84375 
Q 14.984375 37.3125 14.984375 27.296875 
Q 14.984375 17.28125 19.8125 11.734375 
Q 24.65625 6.203125 33.40625 6.203125 
Q 37.3125 6.203125 41.140625 7.25 
Q 44.96875 8.296875 48.78125 10.40625 
L 48.78125 2.09375 
Q 45.015625 0.34375 40.984375 -0.53125 
Q 36.96875 -1.421875 32.421875 -1.421875 
Q 20.0625 -1.421875 12.78125 6.34375 
Q 5.515625 14.109375 5.515625 27.296875 
Q 5.515625 40.671875 12.859375 48.328125 
Q 20.21875 56 33.015625 56 
Q 37.15625 56 41.109375 55.140625 
Q 45.0625 54.296875 48.78125 52.59375 
z
" id="DejaVuSans-99"/>
      <path d="M 32.171875 -5.078125 
Q 28.375 -14.84375 24.75 -17.8125 
Q 21.140625 -20.796875 15.09375 -20.796875 
L 7.90625 -20.796875 
L 7.90625 -13.28125 
L 13.1875 -13.28125 
Q 16.890625 -13.28125 18.9375 -11.515625 
Q 21 -9.765625 23.484375 -3.21875 
L 25.09375 0.875 
L 2.984375 54.6875 
L 12.5 54.6875 
L 29.59375 11.921875 
L 46.6875 54.6875 
L 56.203125 54.6875 
z
" id="DejaVuSans-121"/>
     </defs>
     <use xlink:href="#DejaVuSans-76"/>
     <use x="55.712891" xlink:href="#DejaVuSans-97"/>
     <use x="116.992188" xlink:href="#DejaVuSans-116"/>
     <use x="156.201172" xlink:href="#DejaVuSans-101"/>
     <use x="217.724609" xlink:href="#DejaVuSans-110"/>
     <use x="281.103516" xlink:href="#DejaVuSans-99"/>
     <use x="336.083984" xlink:href="#DejaVuSans-121"/>
    </g>
   </g>
   <g id="legend_1">
    <g id="patch_27">
     <path d="M 359.954545 135.020562 
L 432.854545 135.020562 
Q 434.854545 135.020562 434.854545 133.020562 
L 434.854545 89.944 
Q 434.854545 87.944 432.854545 87.944 
L 359.954545 87.944 
Q 357.954545 87.944 357.954545 89.944 
L 357.954545 133.020562 
Q 357.954545 135.020562 359.954545 135.020562 
z
" style="fill:#ffffff;opacity:0.8;stroke:#cccccc;stroke-linejoin:miter;"/>
    </g>
    <g id="line2d_16">
     <path d="M 361.954545 96.042438 
L 381.954545 96.042438 
" style="fill:none;stroke:#00008b;stroke-linecap:square;stroke-width:2;"/>
    </g>
    <g id="line2d_17"/>
    <g id="text_16">
     <!-- $p = 0.05$ -->
     <g transform="translate(389.954545 99.542438)scale(0.1 -0.1)">
      <defs>
       <path d="M 49.609375 33.6875 
Q 49.609375 40.875 46.484375 44.671875 
Q 43.359375 48.484375 37.5 48.484375 
Q 33.5 48.484375 29.859375 46.4375 
Q 26.21875 44.390625 23.390625 40.484375 
Q 20.609375 36.625 18.9375 31.15625 
Q 17.28125 25.6875 17.28125 20.3125 
Q 17.28125 13.484375 20.40625 9.796875 
Q 23.53125 6.109375 29.296875 6.109375 
Q 33.546875 6.109375 37.1875 8.109375 
Q 40.828125 10.109375 43.40625 13.921875 
Q 46.1875 17.921875 47.890625 23.34375 
Q 49.609375 28.765625 49.609375 33.6875 
z
M 21.78125 46.390625 
Q 25.390625 51.125 30.296875 53.5625 
Q 35.203125 56 41.21875 56 
Q 49.609375 56 54.25 50.5 
Q 58.890625 45.015625 58.890625 35.109375 
Q 58.890625 27 56 19.65625 
Q 53.125 12.3125 47.703125 6.5 
Q 44.09375 2.640625 39.546875 0.609375 
Q 35.015625 -1.421875 29.984375 -1.421875 
Q 24.171875 -1.421875 20.21875 1 
Q 16.265625 3.421875 14.3125 8.203125 
L 8.6875 -20.796875 
L -0.296875 -20.796875 
L 14.40625 54.6875 
L 23.390625 54.6875 
z
" id="DejaVuSans-Oblique-112"/>
       <path d="M 10.59375 45.40625 
L 73.1875 45.40625 
L 73.1875 37.203125 
L 10.59375 37.203125 
z
M 10.59375 25.484375 
L 73.1875 25.484375 
L 73.1875 17.1875 
L 10.59375 17.1875 
z
" id="DejaVuSans-61"/>
      </defs>
      <use transform="translate(0 0.78125)" xlink:href="#DejaVuSans-Oblique-112"/>
      <use transform="translate(82.958984 0.78125)" xlink:href="#DejaVuSans-61"/>
      <use transform="translate(186.230469 0.78125)" xlink:href="#DejaVuSans-48"/>
      <use transform="translate(249.853516 0.78125)" xlink:href="#DejaVuSans-46"/>
      <use transform="translate(281.640625 0.78125)" xlink:href="#DejaVuSans-48"/>
      <use transform="translate(345.263672 0.78125)" xlink:href="#DejaVuSans-53"/>
     </g>
    </g>
    <g id="line2d_18">
     <path d="M 361.954545 110.740875 
L 381.954545 110.740875 
" style="fill:none;stroke:#008b00;stroke-linecap:square;stroke-width:2;"/>
    </g>
    <g id="line2d_19"/>
    <g id="text_17">
     <!-- Median -->
     <g transform="translate(389.954545 114.240875)scale(0.1 -0.1)">
      <defs>
       <path d="M 9.8125 72.90625 
L 24.515625 72.90625 
L 43.109375 23.296875 
L 61.8125 72.90625 
L 76.515625 72.90625 
L 76.515625 0 
L 66.890625 0 
L 66.890625 64.015625 
L 48.09375 14.015625 
L 38.1875 14.015625 
L 19.390625 64.015625 
L 19.390625 0 
L 9.8125 0 
z
" id="DejaVuSans-77"/>
       <path d="M 45.40625 46.390625 
L 45.40625 75.984375 
L 54.390625 75.984375 
L 54.390625 0 
L 45.40625 0 
L 45.40625 8.203125 
Q 42.578125 3.328125 38.25 0.953125 
Q 33.9375 -1.421875 27.875 -1.421875 
Q 17.96875 -1.421875 11.734375 6.484375 
Q 5.515625 14.40625 5.515625 27.296875 
Q 5.515625 40.1875 11.734375 48.09375 
Q 17.96875 56 27.875 56 
Q 33.9375 56 38.25 53.625 
Q 42.578125 51.265625 45.40625 46.390625 
z
M 14.796875 27.296875 
Q 14.796875 17.390625 18.875 11.75 
Q 22.953125 6.109375 30.078125 6.109375 
Q 37.203125 6.109375 41.296875 11.75 
Q 45.40625 17.390625 45.40625 27.296875 
Q 45.40625 37.203125 41.296875 42.84375 
Q 37.203125 48.484375 30.078125 48.484375 
Q 22.953125 48.484375 18.875 42.84375 
Q 14.796875 37.203125 14.796875 27.296875 
z
" id="DejaVuSans-100"/>
       <path d="M 9.421875 54.6875 
L 18.40625 54.6875 
L 18.40625 0 
L 9.421875 0 
z
M 9.421875 75.984375 
L 18.40625 75.984375 
L 18.40625 64.59375 
L 9.421875 64.59375 
z
" id="DejaVuSans-105"/>
      </defs>
      <use xlink:href="#DejaVuSans-77"/>
      <use x="86.279297" xlink:href="#DejaVuSans-101"/>
      <use x="147.802734" xlink:href="#DejaVuSans-100"/>
      <use x="211.279297" xlink:href="#DejaVuSans-105"/>
      <use x="239.0625" xlink:href="#DejaVuSans-97"/>
      <use x="300.341797" xlink:href="#DejaVuSans-110"/>
     </g>
    </g>
    <g id="patch_28">
     <path d="M 361.954545 128.920562 
L 381.954545 128.920562 
L 381.954545 121.920562 
L 361.954545 121.920562 
z
" style="fill:#7f7f7f;"/>
    </g>
    <g id="text_18">
     <!-- $p$-value -->
     <g transform="translate(389.954545 128.920562)scale(0.1 -0.1)">
      <defs>
       <path d="M 4.890625 31.390625 
L 31.203125 31.390625 
L 31.203125 23.390625 
L 4.890625 23.390625 
z
" id="DejaVuSans-45"/>
       <path d="M 2.984375 54.6875 
L 12.5 54.6875 
L 29.59375 8.796875 
L 46.6875 54.6875 
L 56.203125 54.6875 
L 35.6875 0 
L 23.484375 0 
z
" id="DejaVuSans-118"/>
       <path d="M 9.421875 75.984375 
L 18.40625 75.984375 
L 18.40625 0 
L 9.421875 0 
z
" id="DejaVuSans-108"/>
       <path d="M 8.5 21.578125 
L 8.5 54.6875 
L 17.484375 54.6875 
L 17.484375 21.921875 
Q 17.484375 14.15625 20.5 10.265625 
Q 23.53125 6.390625 29.59375 6.390625 
Q 36.859375 6.390625 41.078125 11.03125 
Q 45.3125 15.671875 45.3125 23.6875 
L 45.3125 54.6875 
L 54.296875 54.6875 
L 54.296875 0 
L 45.3125 0 
L 45.3125 8.40625 
Q 42.046875 3.421875 37.71875 1 
Q 33.40625 -1.421875 27.6875 -1.421875 
Q 18.265625 -1.421875 13.375 4.4375 
Q 8.5 10.296875 8.5 21.578125 
z
M 31.109375 56 
z
" id="DejaVuSans-117"/>
      </defs>
      <use transform="translate(0 0.015625)" xlink:href="#DejaVuSans-Oblique-112"/>
      <use transform="translate(63.476562 0.015625)" xlink:href="#DejaVuSans-45"/>
      <use transform="translate(99.560547 0.015625)" xlink:href="#DejaVuSans-118"/>
      <use transform="translate(158.740234 0.015625)" xlink:href="#DejaVuSans-97"/>
      <use transform="translate(220.019531 0.015625)" xlink:href="#DejaVuSans-108"/>
      <use transform="translate(247.802734 0.015625)" xlink:href="#DejaVuSans-117"/>
      <use transform="translate(311.181641 0.015625)" xlink:href="#DejaVuSans-101"/>
     </g>
    </g>
   </g>
  </g>
  <g id="axes_2">
   <g id="patch_29">
    <path d="M 504.785455 324.864 
L 829.44 324.864 
L 829.44 82.944 
L 504.785455 82.944 
z
" style="fill:#ffffff;"/>
   </g>
   <g id="patch_30">
    <path clip-path="url(#pf48a24f682)" d="M 519.542479 324.864 
L 534.299504 324.864 
L 534.299504 94.464 
L 519.542479 94.464 
z
" style="fill:#7f7f7f;"/>
   </g>
   <g id="patch_31">
    <path clip-path="url(#pf48a24f682)" d="M 534.299504 324.864 
L 549.056529 324.864 
L 549.056529 248.064 
L 534.299504 248.064 
z
" style="fill:#7f7f7f;"/>
   </g>
   <g id="patch_32">
    <path clip-path="url(#pf48a24f682)" d="M 549.056529 324.864 
L 563.813554 324.864 
L 563.813554 196.864 
L 549.056529 196.864 
z
" style="fill:#7f7f7f;"/>
   </g>
   <g id="patch_33">
    <path clip-path="url(#pf48a24f682)" d="M 563.813554 324.864 
L 578.570579 324.864 
L 578.570579 222.464 
L 563.813554 222.464 
z
" style="fill:#7f7f7f;"/>
   </g>
   <g id="patch_34">
    <path clip-path="url(#pf48a24f682)" d="M 578.570579 324.864 
L 593.327603 324.864 
L 593.327603 292.864 
L 578.570579 292.864 
z
" style="fill:#7f7f7f;"/>
   </g>
   <g id="patch_35">
    <path clip-path="url(#pf48a24f682)" d="M 593.327603 324.864 
L 608.084628 324.864 
L 608.084628 299.264 
L 593.327603 299.264 
z
" style="fill:#7f7f7f;"/>
   </g>
   <g id="patch_36">
    <path clip-path="url(#pf48a24f682)" d="M 608.084628 324.864 
L 622.841653 324.864 
L 622.841653 299.264 
L 608.084628 299.264 
z
" style="fill:#7f7f7f;"/>
   </g>
   <g id="patch_37">
    <path clip-path="url(#pf48a24f682)" d="M 622.841653 324.864 
L 637.598678 324.864 
L 637.598678 312.064 
L 622.841653 312.064 
z
" style="fill:#7f7f7f;"/>
   </g>
   <g id="patch_38">
    <path clip-path="url(#pf48a24f682)" d="M 637.598678 324.864 
L 652.355702 324.864 
L 652.355702 324.864 
L 637.598678 324.864 
z
" style="fill:#7f7f7f;"/>
   </g>
   <g id="patch_39">
    <path clip-path="url(#pf48a24f682)" d="M 652.355702 324.864 
L 667.112727 324.864 
L 667.112727 299.264 
L 652.355702 299.264 
z
" style="fill:#7f7f7f;"/>
   </g>
   <g id="patch_40">
    <path clip-path="url(#pf48a24f682)" d="M 667.112727 324.864 
L 681.869752 324.864 
L 681.869752 318.464 
L 667.112727 318.464 
z
" style="fill:#7f7f7f;"/>
   </g>
   <g id="patch_41">
    <path clip-path="url(#pf48a24f682)" d="M 681.869752 324.864 
L 696.626777 324.864 
L 696.626777 299.264 
L 681.869752 299.264 
z
" style="fill:#7f7f7f;"/>
   </g>
   <g id="patch_42">
    <path clip-path="url(#pf48a24f682)" d="M 696.626777 324.864 
L 711.383802 324.864 
L 711.383802 324.864 
L 696.626777 324.864 
z
" style="fill:#7f7f7f;"/>
   </g>
   <g id="patch_43">
    <path clip-path="url(#pf48a24f682)" d="M 711.383802 324.864 
L 726.140826 324.864 
L 726.140826 318.464 
L 711.383802 318.464 
z
" style="fill:#7f7f7f;"/>
   </g>
   <g id="patch_44">
    <path clip-path="url(#pf48a24f682)" d="M 726.140826 324.864 
L 740.897851 324.864 
L 740.897851 318.464 
L 726.140826 318.464 
z
" style="fill:#7f7f7f;"/>
   </g>
   <g id="patch_45">
    <path clip-path="url(#pf48a24f682)" d="M 740.897851 324.864 
L 755.654876 324.864 
L 755.654876 324.864 
L 740.897851 324.864 
z
" style="fill:#7f7f7f;"/>
   </g>
   <g id="patch_46">
    <path clip-path="url(#pf48a24f682)" d="M 755.654876 324.864 
L 770.411901 324.864 
L 770.411901 318.464 
L 755.654876 318.464 
z
" style="fill:#7f7f7f;"/>
   </g>
   <g id="patch_47">
    <path clip-path="url(#pf48a24f682)" d="M 770.411901 324.864 
L 785.168926 324.864 
L 785.168926 305.664 
L 770.411901 305.664 
z
" style="fill:#7f7f7f;"/>
   </g>
   <g id="patch_48">
    <path clip-path="url(#pf48a24f682)" d="M 785.168926 324.864 
L 799.92595 324.864 
L 799.92595 312.064 
L 785.168926 312.064 
z
" style="fill:#7f7f7f;"/>
   </g>
   <g id="patch_49">
    <path clip-path="url(#pf48a24f682)" d="M 799.92595 324.864 
L 814.682975 324.864 
L 814.682975 305.664 
L 799.92595 305.664 
z
" style="fill:#7f7f7f;"/>
   </g>
   <g id="matplotlib.axis_3">
    <g id="xtick_7">
     <g id="line2d_20">
      <g>
       <use style="stroke:#000000;stroke-width:0.8;" x="519.519921" xlink:href="#m2c323c6b25" y="324.864"/>
      </g>
     </g>
     <g id="text_19">
      <!-- 0.0 -->
      <g transform="translate(511.568359 339.462437)scale(0.1 -0.1)">
       <use xlink:href="#DejaVuSans-48"/>
       <use x="63.623047" xlink:href="#DejaVuSans-46"/>
       <use x="95.410156" xlink:href="#DejaVuSans-48"/>
      </g>
     </g>
    </g>
    <g id="xtick_8">
     <g id="line2d_21">
      <g>
       <use style="stroke:#000000;stroke-width:0.8;" x="580.455717" xlink:href="#m2c323c6b25" y="324.864"/>
      </g>
     </g>
     <g id="text_20">
      <!-- 0.2 -->
      <g transform="translate(572.504154 339.462437)scale(0.1 -0.1)">
       <use xlink:href="#DejaVuSans-48"/>
       <use x="63.623047" xlink:href="#DejaVuSans-46"/>
       <use x="95.410156" xlink:href="#DejaVuSans-50"/>
      </g>
     </g>
    </g>
    <g id="xtick_9">
     <g id="line2d_22">
      <g>
       <use style="stroke:#000000;stroke-width:0.8;" x="641.391513" xlink:href="#m2c323c6b25" y="324.864"/>
      </g>
     </g>
     <g id="text_21">
      <!-- 0.4 -->
      <g transform="translate(633.43995 339.462437)scale(0.1 -0.1)">
       <use xlink:href="#DejaVuSans-48"/>
       <use x="63.623047" xlink:href="#DejaVuSans-46"/>
       <use x="95.410156" xlink:href="#DejaVuSans-52"/>
      </g>
     </g>
    </g>
    <g id="xtick_10">
     <g id="line2d_23">
      <g>
       <use style="stroke:#000000;stroke-width:0.8;" x="702.327309" xlink:href="#m2c323c6b25" y="324.864"/>
      </g>
     </g>
     <g id="text_22">
      <!-- 0.6 -->
      <g transform="translate(694.375746 339.462437)scale(0.1 -0.1)">
       <use xlink:href="#DejaVuSans-48"/>
       <use x="63.623047" xlink:href="#DejaVuSans-46"/>
       <use x="95.410156" xlink:href="#DejaVuSans-54"/>
      </g>
     </g>
    </g>
    <g id="xtick_11">
     <g id="line2d_24">
      <g>
       <use style="stroke:#000000;stroke-width:0.8;" x="763.263104" xlink:href="#m2c323c6b25" y="324.864"/>
      </g>
     </g>
     <g id="text_23">
      <!-- 0.8 -->
      <g transform="translate(755.311542 339.462437)scale(0.1 -0.1)">
       <use xlink:href="#DejaVuSans-48"/>
       <use x="63.623047" xlink:href="#DejaVuSans-46"/>
       <use x="95.410156" xlink:href="#DejaVuSans-56"/>
      </g>
     </g>
    </g>
    <g id="xtick_12">
     <g id="line2d_25">
      <g>
       <use style="stroke:#000000;stroke-width:0.8;" x="824.1989" xlink:href="#m2c323c6b25" y="324.864"/>
      </g>
     </g>
     <g id="text_24">
      <!-- 1.0 -->
      <g transform="translate(816.247338 339.462437)scale(0.1 -0.1)">
       <use xlink:href="#DejaVuSans-49"/>
       <use x="63.623047" xlink:href="#DejaVuSans-46"/>
       <use x="95.410156" xlink:href="#DejaVuSans-48"/>
      </g>
     </g>
    </g>
   </g>
   <g id="matplotlib.axis_4">
    <g id="ytick_8">
     <g id="line2d_26">
      <g>
       <use style="stroke:#000000;stroke-width:0.8;" x="504.785455" xlink:href="#m6881659f36" y="324.864"/>
      </g>
     </g>
     <g id="text_25">
      <!-- 0 -->
      <g transform="translate(491.422955 328.663219)scale(0.1 -0.1)">
       <use xlink:href="#DejaVuSans-48"/>
      </g>
     </g>
    </g>
    <g id="ytick_9">
     <g id="line2d_27">
      <g>
       <use style="stroke:#000000;stroke-width:0.8;" x="504.785455" xlink:href="#m6881659f36" y="292.864"/>
      </g>
     </g>
     <g id="text_26">
      <!-- 5 -->
      <g transform="translate(491.422955 296.663219)scale(0.1 -0.1)">
       <use xlink:href="#DejaVuSans-53"/>
      </g>
     </g>
    </g>
    <g id="ytick_10">
     <g id="line2d_28">
      <g>
       <use style="stroke:#000000;stroke-width:0.8;" x="504.785455" xlink:href="#m6881659f36" y="260.864"/>
      </g>
     </g>
     <g id="text_27">
      <!-- 10 -->
      <g transform="translate(485.060455 264.663219)scale(0.1 -0.1)">
       <use xlink:href="#DejaVuSans-49"/>
       <use x="63.623047" xlink:href="#DejaVuSans-48"/>
      </g>
     </g>
    </g>
    <g id="ytick_11">
     <g id="line2d_29">
      <g>
       <use style="stroke:#000000;stroke-width:0.8;" x="504.785455" xlink:href="#m6881659f36" y="228.864"/>
      </g>
     </g>
     <g id="text_28">
      <!-- 15 -->
      <g transform="translate(485.060455 232.663219)scale(0.1 -0.1)">
       <use xlink:href="#DejaVuSans-49"/>
       <use x="63.623047" xlink:href="#DejaVuSans-53"/>
      </g>
     </g>
    </g>
    <g id="ytick_12">
     <g id="line2d_30">
      <g>
       <use style="stroke:#000000;stroke-width:0.8;" x="504.785455" xlink:href="#m6881659f36" y="196.864"/>
      </g>
     </g>
     <g id="text_29">
      <!-- 20 -->
      <g transform="translate(485.060455 200.663219)scale(0.1 -0.1)">
       <use xlink:href="#DejaVuSans-50"/>
       <use x="63.623047" xlink:href="#DejaVuSans-48"/>
      </g>
     </g>
    </g>
    <g id="ytick_13">
     <g id="line2d_31">
      <g>
       <use style="stroke:#000000;stroke-width:0.8;" x="504.785455" xlink:href="#m6881659f36" y="164.864"/>
      </g>
     </g>
     <g id="text_30">
      <!-- 25 -->
      <g transform="translate(485.060455 168.663219)scale(0.1 -0.1)">
       <use xlink:href="#DejaVuSans-50"/>
       <use x="63.623047" xlink:href="#DejaVuSans-53"/>
      </g>
     </g>
    </g>
    <g id="ytick_14">
     <g id="line2d_32">
      <g>
       <use style="stroke:#000000;stroke-width:0.8;" x="504.785455" xlink:href="#m6881659f36" y="132.864"/>
      </g>
     </g>
     <g id="text_31">
      <!-- 30 -->
      <g transform="translate(485.060455 136.663219)scale(0.1 -0.1)">
       <use xlink:href="#DejaVuSans-51"/>
       <use x="63.623047" xlink:href="#DejaVuSans-48"/>
      </g>
     </g>
    </g>
    <g id="ytick_15">
     <g id="line2d_33">
      <g>
       <use style="stroke:#000000;stroke-width:0.8;" x="504.785455" xlink:href="#m6881659f36" y="100.864"/>
      </g>
     </g>
     <g id="text_32">
      <!-- 35 -->
      <g transform="translate(485.060455 104.663219)scale(0.1 -0.1)">
       <use xlink:href="#DejaVuSans-51"/>
       <use x="63.623047" xlink:href="#DejaVuSans-53"/>
      </g>
     </g>
    </g>
   </g>
   <g id="line2d_34">
    <path clip-path="url(#pf48a24f682)" d="M 534.75387 324.864 
L 534.75387 82.944 
" style="fill:none;stroke:#00008b;stroke-linecap:square;stroke-width:2;"/>
   </g>
   <g id="line2d_35">
    <path clip-path="url(#pf48a24f682)" d="M 556.197648 324.864 
L 556.197648 82.944 
" style="fill:none;stroke:#008b00;stroke-linecap:square;stroke-width:2;"/>
   </g>
   <g id="patch_50">
    <path d="M 504.785455 324.864 
L 504.785455 82.944 
" style="fill:none;stroke:#000000;stroke-linecap:square;stroke-linejoin:miter;stroke-width:0.8;"/>
   </g>
   <g id="patch_51">
    <path d="M 829.44 324.864 
L 829.44 82.944 
" style="fill:none;stroke:#000000;stroke-linecap:square;stroke-linejoin:miter;stroke-width:0.8;"/>
   </g>
   <g id="patch_52">
    <path d="M 504.785455 324.864 
L 829.44 324.864 
" style="fill:none;stroke:#000000;stroke-linecap:square;stroke-linejoin:miter;stroke-width:0.8;"/>
   </g>
   <g id="patch_53">
    <path d="M 504.785455 82.944 
L 829.44 82.944 
" style="fill:none;stroke:#000000;stroke-linecap:square;stroke-linejoin:miter;stroke-width:0.8;"/>
   </g>
   <g id="text_33">
    <!-- B -->
    <g transform="translate(508.032 92.961637)scale(0.1 -0.1)">
     <defs>
      <path d="M 19.671875 34.8125 
L 19.671875 8.109375 
L 35.5 8.109375 
Q 43.453125 8.109375 47.28125 11.40625 
Q 51.125 14.703125 51.125 21.484375 
Q 51.125 28.328125 47.28125 31.5625 
Q 43.453125 34.8125 35.5 34.8125 
z
M 19.671875 64.796875 
L 19.671875 42.828125 
L 34.28125 42.828125 
Q 41.5 42.828125 45.03125 45.53125 
Q 48.578125 48.25 48.578125 53.8125 
Q 48.578125 59.328125 45.03125 62.0625 
Q 41.5 64.796875 34.28125 64.796875 
z
M 9.8125 72.90625 
L 35.015625 72.90625 
Q 46.296875 72.90625 52.390625 68.21875 
Q 58.5 63.53125 58.5 54.890625 
Q 58.5 48.1875 55.375 44.234375 
Q 52.25 40.28125 46.1875 39.3125 
Q 53.46875 37.75 57.5 32.78125 
Q 61.53125 27.828125 61.53125 20.40625 
Q 61.53125 10.640625 54.890625 5.3125 
Q 48.25 0 35.984375 0 
L 9.8125 0 
z
" id="DejaVuSans-66"/>
     </defs>
     <use xlink:href="#DejaVuSans-66"/>
    </g>
   </g>
   <g id="text_34">
    <!-- Duration -->
    <g transform="translate(641.053977 76.944)scale(0.12 -0.12)">
     <defs>
      <path d="M 19.671875 64.796875 
L 19.671875 8.109375 
L 31.59375 8.109375 
Q 46.6875 8.109375 53.6875 14.9375 
Q 60.6875 21.78125 60.6875 36.53125 
Q 60.6875 51.171875 53.6875 57.984375 
Q 46.6875 64.796875 31.59375 64.796875 
z
M 9.8125 72.90625 
L 30.078125 72.90625 
Q 51.265625 72.90625 61.171875 64.09375 
Q 71.09375 55.28125 71.09375 36.53125 
Q 71.09375 17.671875 61.125 8.828125 
Q 51.171875 0 30.078125 0 
L 9.8125 0 
z
" id="DejaVuSans-68"/>
      <path d="M 41.109375 46.296875 
Q 39.59375 47.171875 37.8125 47.578125 
Q 36.03125 48 33.890625 48 
Q 26.265625 48 22.1875 43.046875 
Q 18.109375 38.09375 18.109375 28.8125 
L 18.109375 0 
L 9.078125 0 
L 9.078125 54.6875 
L 18.109375 54.6875 
L 18.109375 46.1875 
Q 20.953125 51.171875 25.484375 53.578125 
Q 30.03125 56 36.53125 56 
Q 37.453125 56 38.578125 55.875 
Q 39.703125 55.765625 41.0625 55.515625 
z
" id="DejaVuSans-114"/>
      <path d="M 30.609375 48.390625 
Q 23.390625 48.390625 19.1875 42.75 
Q 14.984375 37.109375 14.984375 27.296875 
Q 14.984375 17.484375 19.15625 11.84375 
Q 23.34375 6.203125 30.609375 6.203125 
Q 37.796875 6.203125 41.984375 11.859375 
Q 46.1875 17.53125 46.1875 27.296875 
Q 46.1875 37.015625 41.984375 42.703125 
Q 37.796875 48.390625 30.609375 48.390625 
z
M 30.609375 56 
Q 42.328125 56 49.015625 48.375 
Q 55.71875 40.765625 55.71875 27.296875 
Q 55.71875 13.875 49.015625 6.21875 
Q 42.328125 -1.421875 30.609375 -1.421875 
Q 18.84375 -1.421875 12.171875 6.21875 
Q 5.515625 13.875 5.515625 27.296875 
Q 5.515625 40.765625 12.171875 48.375 
Q 18.84375 56 30.609375 56 
z
" id="DejaVuSans-111"/>
     </defs>
     <use xlink:href="#DejaVuSans-68"/>
     <use x="77.001953" xlink:href="#DejaVuSans-117"/>
     <use x="140.380859" xlink:href="#DejaVuSans-114"/>
     <use x="181.494141" xlink:href="#DejaVuSans-97"/>
     <use x="242.773438" xlink:href="#DejaVuSans-116"/>
     <use x="281.982422" xlink:href="#DejaVuSans-105"/>
     <use x="309.765625" xlink:href="#DejaVuSans-111"/>
     <use x="370.947266" xlink:href="#DejaVuSans-110"/>
    </g>
   </g>
   <g id="legend_2">
    <g id="patch_54">
     <path d="M 749.54 135.020562 
L 822.44 135.020562 
Q 824.44 135.020562 824.44 133.020562 
L 824.44 89.944 
Q 824.44 87.944 822.44 87.944 
L 749.54 87.944 
Q 747.54 87.944 747.54 89.944 
L 747.54 133.020562 
Q 747.54 135.020562 749.54 135.020562 
z
" style="fill:#ffffff;opacity:0.8;stroke:#cccccc;stroke-linejoin:miter;"/>
    </g>
    <g id="line2d_36">
     <path d="M 751.54 96.042438 
L 771.54 96.042438 
" style="fill:none;stroke:#00008b;stroke-linecap:square;stroke-width:2;"/>
    </g>
    <g id="line2d_37"/>
    <g id="text_35">
     <!-- $p = 0.05$ -->
     <g transform="translate(779.54 99.542438)scale(0.1 -0.1)">
      <use transform="translate(0 0.78125)" xlink:href="#DejaVuSans-Oblique-112"/>
      <use transform="translate(82.958984 0.78125)" xlink:href="#DejaVuSans-61"/>
      <use transform="translate(186.230469 0.78125)" xlink:href="#DejaVuSans-48"/>
      <use transform="translate(249.853516 0.78125)" xlink:href="#DejaVuSans-46"/>
      <use transform="translate(281.640625 0.78125)" xlink:href="#DejaVuSans-48"/>
      <use transform="translate(345.263672 0.78125)" xlink:href="#DejaVuSans-53"/>
     </g>
    </g>
    <g id="line2d_38">
     <path d="M 751.54 110.740875 
L 771.54 110.740875 
" style="fill:none;stroke:#008b00;stroke-linecap:square;stroke-width:2;"/>
    </g>
    <g id="line2d_39"/>
    <g id="text_36">
     <!-- Median -->
     <g transform="translate(779.54 114.240875)scale(0.1 -0.1)">
      <use xlink:href="#DejaVuSans-77"/>
      <use x="86.279297" xlink:href="#DejaVuSans-101"/>
      <use x="147.802734" xlink:href="#DejaVuSans-100"/>
      <use x="211.279297" xlink:href="#DejaVuSans-105"/>
      <use x="239.0625" xlink:href="#DejaVuSans-97"/>
      <use x="300.341797" xlink:href="#DejaVuSans-110"/>
     </g>
    </g>
    <g id="patch_55">
     <path d="M 751.54 128.920562 
L 771.54 128.920562 
L 771.54 121.920562 
L 751.54 121.920562 
z
" style="fill:#7f7f7f;"/>
    </g>
    <g id="text_37">
     <!-- $p$-value -->
     <g transform="translate(779.54 128.920562)scale(0.1 -0.1)">
      <use transform="translate(0 0.015625)" xlink:href="#DejaVuSans-Oblique-112"/>
      <use transform="translate(63.476562 0.015625)" xlink:href="#DejaVuSans-45"/>
      <use transform="translate(99.560547 0.015625)" xlink:href="#DejaVuSans-118"/>
      <use transform="translate(158.740234 0.015625)" xlink:href="#DejaVuSans-97"/>
      <use transform="translate(220.019531 0.015625)" xlink:href="#DejaVuSans-108"/>
      <use transform="translate(247.802734 0.015625)" xlink:href="#DejaVuSans-117"/>
      <use transform="translate(311.181641 0.015625)" xlink:href="#DejaVuSans-101"/>
     </g>
    </g>
   </g>
  </g>
  <g id="axes_3">
   <g id="patch_56">
    <path d="M 115.2 615.168 
L 439.854545 615.168 
L 439.854545 373.248 
L 115.2 373.248 
z
" style="fill:#ffffff;"/>
   </g>
   <g id="patch_57">
    <path clip-path="url(#p8119e2abe1)" d="M 129.957025 615.168 
L 144.71405 615.168 
L 144.71405 384.768 
L 129.957025 384.768 
z
" style="fill:#7f7f7f;"/>
   </g>
   <g id="patch_58">
    <path clip-path="url(#p8119e2abe1)" d="M 144.71405 615.168 
L 159.471074 615.168 
L 159.471074 576.768 
L 144.71405 576.768 
z
" style="fill:#7f7f7f;"/>
   </g>
   <g id="patch_59">
    <path clip-path="url(#p8119e2abe1)" d="M 159.471074 615.168 
L 174.228099 615.168 
L 174.228099 594.222545 
L 159.471074 594.222545 
z
" style="fill:#7f7f7f;"/>
   </g>
   <g id="patch_60">
    <path clip-path="url(#p8119e2abe1)" d="M 174.228099 615.168 
L 188.985124 615.168 
L 188.985124 601.204364 
L 174.228099 601.204364 
z
" style="fill:#7f7f7f;"/>
   </g>
   <g id="patch_61">
    <path clip-path="url(#p8119e2abe1)" d="M 188.985124 615.168 
L 203.742149 615.168 
L 203.742149 601.204364 
L 188.985124 601.204364 
z
" style="fill:#7f7f7f;"/>
   </g>
   <g id="patch_62">
    <path clip-path="url(#p8119e2abe1)" d="M 203.742149 615.168 
L 218.499174 615.168 
L 218.499174 608.186182 
L 203.742149 608.186182 
z
" style="fill:#7f7f7f;"/>
   </g>
   <g id="patch_63">
    <path clip-path="url(#p8119e2abe1)" d="M 218.499174 615.168 
L 233.256198 615.168 
L 233.256198 611.677091 
L 218.499174 611.677091 
z
" style="fill:#7f7f7f;"/>
   </g>
   <g id="patch_64">
    <path clip-path="url(#p8119e2abe1)" d="M 233.256198 615.168 
L 248.013223 615.168 
L 248.013223 601.204364 
L 233.256198 601.204364 
z
" style="fill:#7f7f7f;"/>
   </g>
   <g id="patch_65">
    <path clip-path="url(#p8119e2abe1)" d="M 248.013223 615.168 
L 262.770248 615.168 
L 262.770248 611.677091 
L 248.013223 611.677091 
z
" style="fill:#7f7f7f;"/>
   </g>
   <g id="patch_66">
    <path clip-path="url(#p8119e2abe1)" d="M 262.770248 615.168 
L 277.527273 615.168 
L 277.527273 608.186182 
L 262.770248 608.186182 
z
" style="fill:#7f7f7f;"/>
   </g>
   <g id="patch_67">
    <path clip-path="url(#p8119e2abe1)" d="M 277.527273 615.168 
L 292.284298 615.168 
L 292.284298 608.186182 
L 277.527273 608.186182 
z
" style="fill:#7f7f7f;"/>
   </g>
   <g id="patch_68">
    <path clip-path="url(#p8119e2abe1)" d="M 292.284298 615.168 
L 307.041322 615.168 
L 307.041322 611.677091 
L 292.284298 611.677091 
z
" style="fill:#7f7f7f;"/>
   </g>
   <g id="patch_69">
    <path clip-path="url(#p8119e2abe1)" d="M 307.041322 615.168 
L 321.798347 615.168 
L 321.798347 604.695273 
L 307.041322 604.695273 
z
" style="fill:#7f7f7f;"/>
   </g>
   <g id="patch_70">
    <path clip-path="url(#p8119e2abe1)" d="M 321.798347 615.168 
L 336.555372 615.168 
L 336.555372 608.186182 
L 321.798347 608.186182 
z
" style="fill:#7f7f7f;"/>
   </g>
   <g id="patch_71">
    <path clip-path="url(#p8119e2abe1)" d="M 336.555372 615.168 
L 351.312397 615.168 
L 351.312397 611.677091 
L 336.555372 611.677091 
z
" style="fill:#7f7f7f;"/>
   </g>
   <g id="patch_72">
    <path clip-path="url(#p8119e2abe1)" d="M 351.312397 615.168 
L 366.069421 615.168 
L 366.069421 611.677091 
L 351.312397 611.677091 
z
" style="fill:#7f7f7f;"/>
   </g>
   <g id="patch_73">
    <path clip-path="url(#p8119e2abe1)" d="M 366.069421 615.168 
L 380.826446 615.168 
L 380.826446 608.186182 
L 366.069421 608.186182 
z
" style="fill:#7f7f7f;"/>
   </g>
   <g id="patch_74">
    <path clip-path="url(#p8119e2abe1)" d="M 380.826446 615.168 
L 395.583471 615.168 
L 395.583471 608.186182 
L 380.826446 608.186182 
z
" style="fill:#7f7f7f;"/>
   </g>
   <g id="patch_75">
    <path clip-path="url(#p8119e2abe1)" d="M 395.583471 615.168 
L 410.340496 615.168 
L 410.340496 608.186182 
L 395.583471 608.186182 
z
" style="fill:#7f7f7f;"/>
   </g>
   <g id="patch_76">
    <path clip-path="url(#p8119e2abe1)" d="M 410.340496 615.168 
L 425.097521 615.168 
L 425.097521 608.186182 
L 410.340496 608.186182 
z
" style="fill:#7f7f7f;"/>
   </g>
   <g id="matplotlib.axis_5">
    <g id="xtick_13">
     <g id="line2d_40">
      <g>
       <use style="stroke:#000000;stroke-width:0.8;" x="129.957025" xlink:href="#m2c323c6b25" y="615.168"/>
      </g>
     </g>
     <g id="text_38">
      <!-- 0.0 -->
      <g transform="translate(122.005462 629.766437)scale(0.1 -0.1)">
       <use xlink:href="#DejaVuSans-48"/>
       <use x="63.623047" xlink:href="#DejaVuSans-46"/>
       <use x="95.410156" xlink:href="#DejaVuSans-48"/>
      </g>
     </g>
    </g>
    <g id="xtick_14">
     <g id="line2d_41">
      <g>
       <use style="stroke:#000000;stroke-width:0.8;" x="193.784987" xlink:href="#m2c323c6b25" y="615.168"/>
      </g>
     </g>
     <g id="text_39">
      <!-- 0.2 -->
      <g transform="translate(185.833424 629.766437)scale(0.1 -0.1)">
       <use xlink:href="#DejaVuSans-48"/>
       <use x="63.623047" xlink:href="#DejaVuSans-46"/>
       <use x="95.410156" xlink:href="#DejaVuSans-50"/>
      </g>
     </g>
    </g>
    <g id="xtick_15">
     <g id="line2d_42">
      <g>
       <use style="stroke:#000000;stroke-width:0.8;" x="257.612949" xlink:href="#m2c323c6b25" y="615.168"/>
      </g>
     </g>
     <g id="text_40">
      <!-- 0.4 -->
      <g transform="translate(249.661386 629.766437)scale(0.1 -0.1)">
       <use xlink:href="#DejaVuSans-48"/>
       <use x="63.623047" xlink:href="#DejaVuSans-46"/>
       <use x="95.410156" xlink:href="#DejaVuSans-52"/>
      </g>
     </g>
    </g>
    <g id="xtick_16">
     <g id="line2d_43">
      <g>
       <use style="stroke:#000000;stroke-width:0.8;" x="321.440911" xlink:href="#m2c323c6b25" y="615.168"/>
      </g>
     </g>
     <g id="text_41">
      <!-- 0.6 -->
      <g transform="translate(313.489348 629.766437)scale(0.1 -0.1)">
       <use xlink:href="#DejaVuSans-48"/>
       <use x="63.623047" xlink:href="#DejaVuSans-46"/>
       <use x="95.410156" xlink:href="#DejaVuSans-54"/>
      </g>
     </g>
    </g>
    <g id="xtick_17">
     <g id="line2d_44">
      <g>
       <use style="stroke:#000000;stroke-width:0.8;" x="385.268872" xlink:href="#m2c323c6b25" y="615.168"/>
      </g>
     </g>
     <g id="text_42">
      <!-- 0.8 -->
      <g transform="translate(377.31731 629.766437)scale(0.1 -0.1)">
       <use xlink:href="#DejaVuSans-48"/>
       <use x="63.623047" xlink:href="#DejaVuSans-46"/>
       <use x="95.410156" xlink:href="#DejaVuSans-56"/>
      </g>
     </g>
    </g>
   </g>
   <g id="matplotlib.axis_6">
    <g id="ytick_16">
     <g id="line2d_45">
      <g>
       <use style="stroke:#000000;stroke-width:0.8;" x="115.2" xlink:href="#m6881659f36" y="615.168"/>
      </g>
     </g>
     <g id="text_43">
      <!-- 0 -->
      <g transform="translate(101.8375 618.967219)scale(0.1 -0.1)">
       <use xlink:href="#DejaVuSans-48"/>
      </g>
     </g>
    </g>
    <g id="ytick_17">
     <g id="line2d_46">
      <g>
       <use style="stroke:#000000;stroke-width:0.8;" x="115.2" xlink:href="#m6881659f36" y="580.258909"/>
      </g>
     </g>
     <g id="text_44">
      <!-- 10 -->
      <g transform="translate(95.475 584.058128)scale(0.1 -0.1)">
       <use xlink:href="#DejaVuSans-49"/>
       <use x="63.623047" xlink:href="#DejaVuSans-48"/>
      </g>
     </g>
    </g>
    <g id="ytick_18">
     <g id="line2d_47">
      <g>
       <use style="stroke:#000000;stroke-width:0.8;" x="115.2" xlink:href="#m6881659f36" y="545.349818"/>
      </g>
     </g>
     <g id="text_45">
      <!-- 20 -->
      <g transform="translate(95.475 549.149037)scale(0.1 -0.1)">
       <use xlink:href="#DejaVuSans-50"/>
       <use x="63.623047" xlink:href="#DejaVuSans-48"/>
      </g>
     </g>
    </g>
    <g id="ytick_19">
     <g id="line2d_48">
      <g>
       <use style="stroke:#000000;stroke-width:0.8;" x="115.2" xlink:href="#m6881659f36" y="510.440727"/>
      </g>
     </g>
     <g id="text_46">
      <!-- 30 -->
      <g transform="translate(95.475 514.239946)scale(0.1 -0.1)">
       <use xlink:href="#DejaVuSans-51"/>
       <use x="63.623047" xlink:href="#DejaVuSans-48"/>
      </g>
     </g>
    </g>
    <g id="ytick_20">
     <g id="line2d_49">
      <g>
       <use style="stroke:#000000;stroke-width:0.8;" x="115.2" xlink:href="#m6881659f36" y="475.531636"/>
      </g>
     </g>
     <g id="text_47">
      <!-- 40 -->
      <g transform="translate(95.475 479.330855)scale(0.1 -0.1)">
       <use xlink:href="#DejaVuSans-52"/>
       <use x="63.623047" xlink:href="#DejaVuSans-48"/>
      </g>
     </g>
    </g>
    <g id="ytick_21">
     <g id="line2d_50">
      <g>
       <use style="stroke:#000000;stroke-width:0.8;" x="115.2" xlink:href="#m6881659f36" y="440.622545"/>
      </g>
     </g>
     <g id="text_48">
      <!-- 50 -->
      <g transform="translate(95.475 444.421764)scale(0.1 -0.1)">
       <use xlink:href="#DejaVuSans-53"/>
       <use x="63.623047" xlink:href="#DejaVuSans-48"/>
      </g>
     </g>
    </g>
    <g id="ytick_22">
     <g id="line2d_51">
      <g>
       <use style="stroke:#000000;stroke-width:0.8;" x="115.2" xlink:href="#m6881659f36" y="405.713455"/>
      </g>
     </g>
     <g id="text_49">
      <!-- 60 -->
      <g transform="translate(95.475 409.512673)scale(0.1 -0.1)">
       <use xlink:href="#DejaVuSans-54"/>
       <use x="63.623047" xlink:href="#DejaVuSans-48"/>
      </g>
     </g>
    </g>
   </g>
   <g id="line2d_52">
    <path clip-path="url(#p8119e2abe1)" d="M 145.914015 615.168 
L 145.914015 373.248 
" style="fill:none;stroke:#00008b;stroke-linecap:square;stroke-width:2;"/>
   </g>
   <g id="line2d_53">
    <path clip-path="url(#p8119e2abe1)" d="M 139.020595 615.168 
L 139.020595 373.248 
" style="fill:none;stroke:#008b00;stroke-linecap:square;stroke-width:2;"/>
   </g>
   <g id="patch_77">
    <path d="M 115.2 615.168 
L 115.2 373.248 
" style="fill:none;stroke:#000000;stroke-linecap:square;stroke-linejoin:miter;stroke-width:0.8;"/>
   </g>
   <g id="patch_78">
    <path d="M 439.854545 615.168 
L 439.854545 373.248 
" style="fill:none;stroke:#000000;stroke-linecap:square;stroke-linejoin:miter;stroke-width:0.8;"/>
   </g>
   <g id="patch_79">
    <path d="M 115.2 615.168 
L 439.854545 615.168 
" style="fill:none;stroke:#000000;stroke-linecap:square;stroke-linejoin:miter;stroke-width:0.8;"/>
   </g>
   <g id="patch_80">
    <path d="M 115.2 373.248 
L 439.854545 373.248 
" style="fill:none;stroke:#000000;stroke-linecap:square;stroke-linejoin:miter;stroke-width:0.8;"/>
   </g>
   <g id="text_50">
    <!-- C -->
    <g transform="translate(118.446545 383.265637)scale(0.1 -0.1)">
     <defs>
      <path d="M 64.40625 67.28125 
L 64.40625 56.890625 
Q 59.421875 61.53125 53.78125 63.8125 
Q 48.140625 66.109375 41.796875 66.109375 
Q 29.296875 66.109375 22.65625 58.46875 
Q 16.015625 50.828125 16.015625 36.375 
Q 16.015625 21.96875 22.65625 14.328125 
Q 29.296875 6.6875 41.796875 6.6875 
Q 48.140625 6.6875 53.78125 8.984375 
Q 59.421875 11.28125 64.40625 15.921875 
L 64.40625 5.609375 
Q 59.234375 2.09375 53.4375 0.328125 
Q 47.65625 -1.421875 41.21875 -1.421875 
Q 24.65625 -1.421875 15.125 8.703125 
Q 5.609375 18.84375 5.609375 36.375 
Q 5.609375 53.953125 15.125 64.078125 
Q 24.65625 74.21875 41.21875 74.21875 
Q 47.75 74.21875 53.53125 72.484375 
Q 59.328125 70.75 64.40625 67.28125 
z
" id="DejaVuSans-67"/>
     </defs>
     <use xlink:href="#DejaVuSans-67"/>
    </g>
   </g>
   <g id="text_51">
    <!-- Burstiness -->
    <g transform="translate(246.251335 367.248)scale(0.12 -0.12)">
     <defs>
      <path d="M 44.28125 53.078125 
L 44.28125 44.578125 
Q 40.484375 46.53125 36.375 47.5 
Q 32.28125 48.484375 27.875 48.484375 
Q 21.1875 48.484375 17.84375 46.4375 
Q 14.5 44.390625 14.5 40.28125 
Q 14.5 37.15625 16.890625 35.375 
Q 19.28125 33.59375 26.515625 31.984375 
L 29.59375 31.296875 
Q 39.15625 29.25 43.1875 25.515625 
Q 47.21875 21.78125 47.21875 15.09375 
Q 47.21875 7.46875 41.1875 3.015625 
Q 35.15625 -1.421875 24.609375 -1.421875 
Q 20.21875 -1.421875 15.453125 -0.5625 
Q 10.6875 0.296875 5.421875 2 
L 5.421875 11.28125 
Q 10.40625 8.6875 15.234375 7.390625 
Q 20.0625 6.109375 24.8125 6.109375 
Q 31.15625 6.109375 34.5625 8.28125 
Q 37.984375 10.453125 37.984375 14.40625 
Q 37.984375 18.0625 35.515625 20.015625 
Q 33.0625 21.96875 24.703125 23.78125 
L 21.578125 24.515625 
Q 13.234375 26.265625 9.515625 29.90625 
Q 5.8125 33.546875 5.8125 39.890625 
Q 5.8125 47.609375 11.28125 51.796875 
Q 16.75 56 26.8125 56 
Q 31.78125 56 36.171875 55.265625 
Q 40.578125 54.546875 44.28125 53.078125 
z
" id="DejaVuSans-115"/>
     </defs>
     <use xlink:href="#DejaVuSans-66"/>
     <use x="68.603516" xlink:href="#DejaVuSans-117"/>
     <use x="131.982422" xlink:href="#DejaVuSans-114"/>
     <use x="173.095703" xlink:href="#DejaVuSans-115"/>
     <use x="225.195312" xlink:href="#DejaVuSans-116"/>
     <use x="264.404297" xlink:href="#DejaVuSans-105"/>
     <use x="292.1875" xlink:href="#DejaVuSans-110"/>
     <use x="355.566406" xlink:href="#DejaVuSans-101"/>
     <use x="417.089844" xlink:href="#DejaVuSans-115"/>
     <use x="469.189453" xlink:href="#DejaVuSans-115"/>
    </g>
   </g>
   <g id="legend_3">
    <g id="patch_81">
     <path d="M 359.954545 425.324562 
L 432.854545 425.324562 
Q 434.854545 425.324562 434.854545 423.324562 
L 434.854545 380.248 
Q 434.854545 378.248 432.854545 378.248 
L 359.954545 378.248 
Q 357.954545 378.248 357.954545 380.248 
L 357.954545 423.324562 
Q 357.954545 425.324562 359.954545 425.324562 
z
" style="fill:#ffffff;opacity:0.8;stroke:#cccccc;stroke-linejoin:miter;"/>
    </g>
    <g id="line2d_54">
     <path d="M 361.954545 386.346437 
L 381.954545 386.346437 
" style="fill:none;stroke:#00008b;stroke-linecap:square;stroke-width:2;"/>
    </g>
    <g id="line2d_55"/>
    <g id="text_52">
     <!-- $p = 0.05$ -->
     <g transform="translate(389.954545 389.846437)scale(0.1 -0.1)">
      <use transform="translate(0 0.78125)" xlink:href="#DejaVuSans-Oblique-112"/>
      <use transform="translate(82.958984 0.78125)" xlink:href="#DejaVuSans-61"/>
      <use transform="translate(186.230469 0.78125)" xlink:href="#DejaVuSans-48"/>
      <use transform="translate(249.853516 0.78125)" xlink:href="#DejaVuSans-46"/>
      <use transform="translate(281.640625 0.78125)" xlink:href="#DejaVuSans-48"/>
      <use transform="translate(345.263672 0.78125)" xlink:href="#DejaVuSans-53"/>
     </g>
    </g>
    <g id="line2d_56">
     <path d="M 361.954545 401.044875 
L 381.954545 401.044875 
" style="fill:none;stroke:#008b00;stroke-linecap:square;stroke-width:2;"/>
    </g>
    <g id="line2d_57"/>
    <g id="text_53">
     <!-- Median -->
     <g transform="translate(389.954545 404.544875)scale(0.1 -0.1)">
      <use xlink:href="#DejaVuSans-77"/>
      <use x="86.279297" xlink:href="#DejaVuSans-101"/>
      <use x="147.802734" xlink:href="#DejaVuSans-100"/>
      <use x="211.279297" xlink:href="#DejaVuSans-105"/>
      <use x="239.0625" xlink:href="#DejaVuSans-97"/>
      <use x="300.341797" xlink:href="#DejaVuSans-110"/>
     </g>
    </g>
    <g id="patch_82">
     <path d="M 361.954545 419.224562 
L 381.954545 419.224562 
L 381.954545 412.224562 
L 361.954545 412.224562 
z
" style="fill:#7f7f7f;"/>
    </g>
    <g id="text_54">
     <!-- $p$-value -->
     <g transform="translate(389.954545 419.224562)scale(0.1 -0.1)">
      <use transform="translate(0 0.015625)" xlink:href="#DejaVuSans-Oblique-112"/>
      <use transform="translate(63.476562 0.015625)" xlink:href="#DejaVuSans-45"/>
      <use transform="translate(99.560547 0.015625)" xlink:href="#DejaVuSans-118"/>
      <use transform="translate(158.740234 0.015625)" xlink:href="#DejaVuSans-97"/>
      <use transform="translate(220.019531 0.015625)" xlink:href="#DejaVuSans-108"/>
      <use transform="translate(247.802734 0.015625)" xlink:href="#DejaVuSans-117"/>
      <use transform="translate(311.181641 0.015625)" xlink:href="#DejaVuSans-101"/>
     </g>
    </g>
   </g>
  </g>
  <g id="axes_4">
   <g id="patch_83">
    <path d="M 504.785455 615.168 
L 829.44 615.168 
L 829.44 373.248 
L 504.785455 373.248 
z
" style="fill:#ffffff;"/>
   </g>
   <g id="patch_84">
    <path clip-path="url(#p32c41dc97d)" d="M 519.542479 615.168 
L 534.299504 615.168 
L 534.299504 467.053714 
L 519.542479 467.053714 
z
" style="fill:#7f7f7f;"/>
   </g>
   <g id="patch_85">
    <path clip-path="url(#p32c41dc97d)" d="M 534.299504 615.168 
L 549.056529 615.168 
L 549.056529 532.882286 
L 534.299504 532.882286 
z
" style="fill:#7f7f7f;"/>
   </g>
   <g id="patch_86">
    <path clip-path="url(#p32c41dc97d)" d="M 549.056529 615.168 
L 563.813554 615.168 
L 563.813554 499.968 
L 549.056529 499.968 
z
" style="fill:#7f7f7f;"/>
   </g>
   <g id="patch_87">
    <path clip-path="url(#p32c41dc97d)" d="M 563.813554 615.168 
L 578.570579 615.168 
L 578.570579 483.510857 
L 563.813554 483.510857 
z
" style="fill:#7f7f7f;"/>
   </g>
   <g id="patch_88">
    <path clip-path="url(#p32c41dc97d)" d="M 578.570579 615.168 
L 593.327603 615.168 
L 593.327603 467.053714 
L 578.570579 467.053714 
z
" style="fill:#7f7f7f;"/>
   </g>
   <g id="patch_89">
    <path clip-path="url(#p32c41dc97d)" d="M 593.327603 615.168 
L 608.084628 615.168 
L 608.084628 532.882286 
L 593.327603 532.882286 
z
" style="fill:#7f7f7f;"/>
   </g>
   <g id="patch_90">
    <path clip-path="url(#p32c41dc97d)" d="M 608.084628 615.168 
L 622.841653 615.168 
L 622.841653 565.796571 
L 608.084628 565.796571 
z
" style="fill:#7f7f7f;"/>
   </g>
   <g id="patch_91">
    <path clip-path="url(#p32c41dc97d)" d="M 622.841653 615.168 
L 637.598678 615.168 
L 637.598678 565.796571 
L 622.841653 565.796571 
z
" style="fill:#7f7f7f;"/>
   </g>
   <g id="patch_92">
    <path clip-path="url(#p32c41dc97d)" d="M 637.598678 615.168 
L 652.355702 615.168 
L 652.355702 532.882286 
L 637.598678 532.882286 
z
" style="fill:#7f7f7f;"/>
   </g>
   <g id="patch_93">
    <path clip-path="url(#p32c41dc97d)" d="M 652.355702 615.168 
L 667.112727 615.168 
L 667.112727 565.796571 
L 652.355702 565.796571 
z
" style="fill:#7f7f7f;"/>
   </g>
   <g id="patch_94">
    <path clip-path="url(#p32c41dc97d)" d="M 667.112727 615.168 
L 681.869752 615.168 
L 681.869752 516.425143 
L 667.112727 516.425143 
z
" style="fill:#7f7f7f;"/>
   </g>
   <g id="patch_95">
    <path clip-path="url(#p32c41dc97d)" d="M 681.869752 615.168 
L 696.626777 615.168 
L 696.626777 483.510857 
L 681.869752 483.510857 
z
" style="fill:#7f7f7f;"/>
   </g>
   <g id="patch_96">
    <path clip-path="url(#p32c41dc97d)" d="M 696.626777 615.168 
L 711.383802 615.168 
L 711.383802 499.968 
L 696.626777 499.968 
z
" style="fill:#7f7f7f;"/>
   </g>
   <g id="patch_97">
    <path clip-path="url(#p32c41dc97d)" d="M 711.383802 615.168 
L 726.140826 615.168 
L 726.140826 549.339429 
L 711.383802 549.339429 
z
" style="fill:#7f7f7f;"/>
   </g>
   <g id="patch_98">
    <path clip-path="url(#p32c41dc97d)" d="M 726.140826 615.168 
L 740.897851 615.168 
L 740.897851 516.425143 
L 726.140826 516.425143 
z
" style="fill:#7f7f7f;"/>
   </g>
   <g id="patch_99">
    <path clip-path="url(#p32c41dc97d)" d="M 740.897851 615.168 
L 755.654876 615.168 
L 755.654876 532.882286 
L 740.897851 532.882286 
z
" style="fill:#7f7f7f;"/>
   </g>
   <g id="patch_100">
    <path clip-path="url(#p32c41dc97d)" d="M 755.654876 615.168 
L 770.411901 615.168 
L 770.411901 516.425143 
L 755.654876 516.425143 
z
" style="fill:#7f7f7f;"/>
   </g>
   <g id="patch_101">
    <path clip-path="url(#p32c41dc97d)" d="M 770.411901 615.168 
L 785.168926 615.168 
L 785.168926 549.339429 
L 770.411901 549.339429 
z
" style="fill:#7f7f7f;"/>
   </g>
   <g id="patch_102">
    <path clip-path="url(#p32c41dc97d)" d="M 785.168926 615.168 
L 799.92595 615.168 
L 799.92595 582.253714 
L 785.168926 582.253714 
z
" style="fill:#7f7f7f;"/>
   </g>
   <g id="patch_103">
    <path clip-path="url(#p32c41dc97d)" d="M 799.92595 615.168 
L 814.682975 615.168 
L 814.682975 384.768 
L 799.92595 384.768 
z
" style="fill:#7f7f7f;"/>
   </g>
   <g id="matplotlib.axis_7">
    <g id="xtick_18">
     <g id="line2d_58">
      <g>
       <use style="stroke:#000000;stroke-width:0.8;" x="519.542479" xlink:href="#m2c323c6b25" y="615.168"/>
      </g>
     </g>
     <g id="text_55">
      <!-- 0.0 -->
      <g transform="translate(511.590917 629.766437)scale(0.1 -0.1)">
       <use xlink:href="#DejaVuSans-48"/>
       <use x="63.623047" xlink:href="#DejaVuSans-46"/>
       <use x="95.410156" xlink:href="#DejaVuSans-48"/>
      </g>
     </g>
    </g>
    <g id="xtick_19">
     <g id="line2d_59">
      <g>
       <use style="stroke:#000000;stroke-width:0.8;" x="579.070615" xlink:href="#m2c323c6b25" y="615.168"/>
      </g>
     </g>
     <g id="text_56">
      <!-- 0.2 -->
      <g transform="translate(571.119052 629.766437)scale(0.1 -0.1)">
       <use xlink:href="#DejaVuSans-48"/>
       <use x="63.623047" xlink:href="#DejaVuSans-46"/>
       <use x="95.410156" xlink:href="#DejaVuSans-50"/>
      </g>
     </g>
    </g>
    <g id="xtick_20">
     <g id="line2d_60">
      <g>
       <use style="stroke:#000000;stroke-width:0.8;" x="638.59875" xlink:href="#m2c323c6b25" y="615.168"/>
      </g>
     </g>
     <g id="text_57">
      <!-- 0.4 -->
      <g transform="translate(630.647188 629.766437)scale(0.1 -0.1)">
       <use xlink:href="#DejaVuSans-48"/>
       <use x="63.623047" xlink:href="#DejaVuSans-46"/>
       <use x="95.410156" xlink:href="#DejaVuSans-52"/>
      </g>
     </g>
    </g>
    <g id="xtick_21">
     <g id="line2d_61">
      <g>
       <use style="stroke:#000000;stroke-width:0.8;" x="698.126886" xlink:href="#m2c323c6b25" y="615.168"/>
      </g>
     </g>
     <g id="text_58">
      <!-- 0.6 -->
      <g transform="translate(690.175323 629.766437)scale(0.1 -0.1)">
       <use xlink:href="#DejaVuSans-48"/>
       <use x="63.623047" xlink:href="#DejaVuSans-46"/>
       <use x="95.410156" xlink:href="#DejaVuSans-54"/>
      </g>
     </g>
    </g>
    <g id="xtick_22">
     <g id="line2d_62">
      <g>
       <use style="stroke:#000000;stroke-width:0.8;" x="757.655021" xlink:href="#m2c323c6b25" y="615.168"/>
      </g>
     </g>
     <g id="text_59">
      <!-- 0.8 -->
      <g transform="translate(749.703459 629.766437)scale(0.1 -0.1)">
       <use xlink:href="#DejaVuSans-48"/>
       <use x="63.623047" xlink:href="#DejaVuSans-46"/>
       <use x="95.410156" xlink:href="#DejaVuSans-56"/>
      </g>
     </g>
    </g>
    <g id="xtick_23">
     <g id="line2d_63">
      <g>
       <use style="stroke:#000000;stroke-width:0.8;" x="817.183157" xlink:href="#m2c323c6b25" y="615.168"/>
      </g>
     </g>
     <g id="text_60">
      <!-- 1.0 -->
      <g transform="translate(809.231594 629.766437)scale(0.1 -0.1)">
       <use xlink:href="#DejaVuSans-49"/>
       <use x="63.623047" xlink:href="#DejaVuSans-46"/>
       <use x="95.410156" xlink:href="#DejaVuSans-48"/>
      </g>
     </g>
    </g>
   </g>
   <g id="matplotlib.axis_8">
    <g id="ytick_23">
     <g id="line2d_64">
      <g>
       <use style="stroke:#000000;stroke-width:0.8;" x="504.785455" xlink:href="#m6881659f36" y="615.168"/>
      </g>
     </g>
     <g id="text_61">
      <!-- 0 -->
      <g transform="translate(491.422955 618.967219)scale(0.1 -0.1)">
       <use xlink:href="#DejaVuSans-48"/>
      </g>
     </g>
    </g>
    <g id="ytick_24">
     <g id="line2d_65">
      <g>
       <use style="stroke:#000000;stroke-width:0.8;" x="504.785455" xlink:href="#m6881659f36" y="582.253714"/>
      </g>
     </g>
     <g id="text_62">
      <!-- 2 -->
      <g transform="translate(491.422955 586.052933)scale(0.1 -0.1)">
       <use xlink:href="#DejaVuSans-50"/>
      </g>
     </g>
    </g>
    <g id="ytick_25">
     <g id="line2d_66">
      <g>
       <use style="stroke:#000000;stroke-width:0.8;" x="504.785455" xlink:href="#m6881659f36" y="549.339429"/>
      </g>
     </g>
     <g id="text_63">
      <!-- 4 -->
      <g transform="translate(491.422955 553.138647)scale(0.1 -0.1)">
       <use xlink:href="#DejaVuSans-52"/>
      </g>
     </g>
    </g>
    <g id="ytick_26">
     <g id="line2d_67">
      <g>
       <use style="stroke:#000000;stroke-width:0.8;" x="504.785455" xlink:href="#m6881659f36" y="516.425143"/>
      </g>
     </g>
     <g id="text_64">
      <!-- 6 -->
      <g transform="translate(491.422955 520.224362)scale(0.1 -0.1)">
       <use xlink:href="#DejaVuSans-54"/>
      </g>
     </g>
    </g>
    <g id="ytick_27">
     <g id="line2d_68">
      <g>
       <use style="stroke:#000000;stroke-width:0.8;" x="504.785455" xlink:href="#m6881659f36" y="483.510857"/>
      </g>
     </g>
     <g id="text_65">
      <!-- 8 -->
      <g transform="translate(491.422955 487.310076)scale(0.1 -0.1)">
       <use xlink:href="#DejaVuSans-56"/>
      </g>
     </g>
    </g>
    <g id="ytick_28">
     <g id="line2d_69">
      <g>
       <use style="stroke:#000000;stroke-width:0.8;" x="504.785455" xlink:href="#m6881659f36" y="450.596571"/>
      </g>
     </g>
     <g id="text_66">
      <!-- 10 -->
      <g transform="translate(485.060455 454.39579)scale(0.1 -0.1)">
       <use xlink:href="#DejaVuSans-49"/>
       <use x="63.623047" xlink:href="#DejaVuSans-48"/>
      </g>
     </g>
    </g>
    <g id="ytick_29">
     <g id="line2d_70">
      <g>
       <use style="stroke:#000000;stroke-width:0.8;" x="504.785455" xlink:href="#m6881659f36" y="417.682286"/>
      </g>
     </g>
     <g id="text_67">
      <!-- 12 -->
      <g transform="translate(485.060455 421.481504)scale(0.1 -0.1)">
       <use xlink:href="#DejaVuSans-49"/>
       <use x="63.623047" xlink:href="#DejaVuSans-50"/>
      </g>
     </g>
    </g>
    <g id="ytick_30">
     <g id="line2d_71">
      <g>
       <use style="stroke:#000000;stroke-width:0.8;" x="504.785455" xlink:href="#m6881659f36" y="384.768"/>
      </g>
     </g>
     <g id="text_68">
      <!-- 14 -->
      <g transform="translate(485.060455 388.567219)scale(0.1 -0.1)">
       <use xlink:href="#DejaVuSans-49"/>
       <use x="63.623047" xlink:href="#DejaVuSans-52"/>
      </g>
     </g>
    </g>
   </g>
   <g id="line2d_72">
    <path clip-path="url(#p32c41dc97d)" d="M 534.424513 615.168 
L 534.424513 373.248 
" style="fill:none;stroke:#00008b;stroke-linecap:square;stroke-width:2;"/>
   </g>
   <g id="line2d_73">
    <path clip-path="url(#p32c41dc97d)" d="M 670.267718 615.168 
L 670.267718 373.248 
" style="fill:none;stroke:#008b00;stroke-linecap:square;stroke-width:2;"/>
   </g>
   <g id="patch_104">
    <path d="M 504.785455 615.168 
L 504.785455 373.248 
" style="fill:none;stroke:#000000;stroke-linecap:square;stroke-linejoin:miter;stroke-width:0.8;"/>
   </g>
   <g id="patch_105">
    <path d="M 829.44 615.168 
L 829.44 373.248 
" style="fill:none;stroke:#000000;stroke-linecap:square;stroke-linejoin:miter;stroke-width:0.8;"/>
   </g>
   <g id="patch_106">
    <path d="M 504.785455 615.168 
L 829.44 615.168 
" style="fill:none;stroke:#000000;stroke-linecap:square;stroke-linejoin:miter;stroke-width:0.8;"/>
   </g>
   <g id="patch_107">
    <path d="M 504.785455 373.248 
L 829.44 373.248 
" style="fill:none;stroke:#000000;stroke-linecap:square;stroke-linejoin:miter;stroke-width:0.8;"/>
   </g>
   <g id="text_69">
    <!-- D -->
    <g transform="translate(508.032 383.265637)scale(0.1 -0.1)">
     <use xlink:href="#DejaVuSans-68"/>
    </g>
   </g>
   <g id="text_70">
    <!-- Memory -->
    <g transform="translate(642.71054 367.248)scale(0.12 -0.12)">
     <defs>
      <path d="M 52 44.1875 
Q 55.375 50.25 60.0625 53.125 
Q 64.75 56 71.09375 56 
Q 79.640625 56 84.28125 50.015625 
Q 88.921875 44.046875 88.921875 33.015625 
L 88.921875 0 
L 79.890625 0 
L 79.890625 32.71875 
Q 79.890625 40.578125 77.09375 44.375 
Q 74.3125 48.1875 68.609375 48.1875 
Q 61.625 48.1875 57.5625 43.546875 
Q 53.515625 38.921875 53.515625 30.90625 
L 53.515625 0 
L 44.484375 0 
L 44.484375 32.71875 
Q 44.484375 40.625 41.703125 44.40625 
Q 38.921875 48.1875 33.109375 48.1875 
Q 26.21875 48.1875 22.15625 43.53125 
Q 18.109375 38.875 18.109375 30.90625 
L 18.109375 0 
L 9.078125 0 
L 9.078125 54.6875 
L 18.109375 54.6875 
L 18.109375 46.1875 
Q 21.1875 51.21875 25.484375 53.609375 
Q 29.78125 56 35.6875 56 
Q 41.65625 56 45.828125 52.96875 
Q 50 49.953125 52 44.1875 
z
" id="DejaVuSans-109"/>
     </defs>
     <use xlink:href="#DejaVuSans-77"/>
     <use x="86.279297" xlink:href="#DejaVuSans-101"/>
     <use x="147.802734" xlink:href="#DejaVuSans-109"/>
     <use x="245.214844" xlink:href="#DejaVuSans-111"/>
     <use x="306.396484" xlink:href="#DejaVuSans-114"/>
     <use x="347.509766" xlink:href="#DejaVuSans-121"/>
    </g>
   </g>
   <g id="legend_4">
    <g id="patch_108">
     <path d="M 749.54 425.324562 
L 822.44 425.324562 
Q 824.44 425.324562 824.44 423.324562 
L 824.44 380.248 
Q 824.44 378.248 822.44 378.248 
L 749.54 378.248 
Q 747.54 378.248 747.54 380.248 
L 747.54 423.324562 
Q 747.54 425.324562 749.54 425.324562 
z
" style="fill:#ffffff;opacity:0.8;stroke:#cccccc;stroke-linejoin:miter;"/>
    </g>
    <g id="line2d_74">
     <path d="M 751.54 386.346437 
L 771.54 386.346437 
" style="fill:none;stroke:#00008b;stroke-linecap:square;stroke-width:2;"/>
    </g>
    <g id="line2d_75"/>
    <g id="text_71">
     <!-- $p = 0.05$ -->
     <g transform="translate(779.54 389.846437)scale(0.1 -0.1)">
      <use transform="translate(0 0.78125)" xlink:href="#DejaVuSans-Oblique-112"/>
      <use transform="translate(82.958984 0.78125)" xlink:href="#DejaVuSans-61"/>
      <use transform="translate(186.230469 0.78125)" xlink:href="#DejaVuSans-48"/>
      <use transform="translate(249.853516 0.78125)" xlink:href="#DejaVuSans-46"/>
      <use transform="translate(281.640625 0.78125)" xlink:href="#DejaVuSans-48"/>
      <use transform="translate(345.263672 0.78125)" xlink:href="#DejaVuSans-53"/>
     </g>
    </g>
    <g id="line2d_76">
     <path d="M 751.54 401.044875 
L 771.54 401.044875 
" style="fill:none;stroke:#008b00;stroke-linecap:square;stroke-width:2;"/>
    </g>
    <g id="line2d_77"/>
    <g id="text_72">
     <!-- Median -->
     <g transform="translate(779.54 404.544875)scale(0.1 -0.1)">
      <use xlink:href="#DejaVuSans-77"/>
      <use x="86.279297" xlink:href="#DejaVuSans-101"/>
      <use x="147.802734" xlink:href="#DejaVuSans-100"/>
      <use x="211.279297" xlink:href="#DejaVuSans-105"/>
      <use x="239.0625" xlink:href="#DejaVuSans-97"/>
      <use x="300.341797" xlink:href="#DejaVuSans-110"/>
     </g>
    </g>
    <g id="patch_109">
     <path d="M 751.54 419.224562 
L 771.54 419.224562 
L 771.54 412.224562 
L 751.54 412.224562 
z
" style="fill:#7f7f7f;"/>
    </g>
    <g id="text_73">
     <!-- $p$-value -->
     <g transform="translate(779.54 419.224562)scale(0.1 -0.1)">
      <use transform="translate(0 0.015625)" xlink:href="#DejaVuSans-Oblique-112"/>
      <use transform="translate(63.476562 0.015625)" xlink:href="#DejaVuSans-45"/>
      <use transform="translate(99.560547 0.015625)" xlink:href="#DejaVuSans-118"/>
      <use transform="translate(158.740234 0.015625)" xlink:href="#DejaVuSans-97"/>
      <use transform="translate(220.019531 0.015625)" xlink:href="#DejaVuSans-108"/>
      <use transform="translate(247.802734 0.015625)" xlink:href="#DejaVuSans-117"/>
      <use transform="translate(311.181641 0.015625)" xlink:href="#DejaVuSans-101"/>
     </g>
    </g>
   </g>
  </g>
 </g>
 <defs>
  <clipPath id="pc71c8ba459">
   <rect height="241.92" width="324.654545" x="115.2" y="82.944"/>
  </clipPath>
  <clipPath id="pf48a24f682">
   <rect height="241.92" width="324.654545" x="504.785455" y="82.944"/>
  </clipPath>
  <clipPath id="p8119e2abe1">
   <rect height="241.92" width="324.654545" x="115.2" y="373.248"/>
  </clipPath>
  <clipPath id="p32c41dc97d">
   <rect height="241.92" width="324.654545" x="504.785455" y="373.248"/>
  </clipPath>
 </defs>
</svg>
