<?xml version="1.0" encoding="utf-8" standalone="no"?>
<!DOCTYPE svg PUBLIC "-//W3C//DTD SVG 1.1//EN"
  "http://www.w3.org/Graphics/SVG/1.1/DTD/svg11.dtd">
<!-- Created with matplotlib (https://matplotlib.org/) -->
<svg height="691.2pt" version="1.1" viewBox="0 0 921.6 691.2" width="921.6pt" xmlns="http://www.w3.org/2000/svg" xmlns:xlink="http://www.w3.org/1999/xlink">
 <metadata>
  <rdf:RDF xmlns:cc="http://creativecommons.org/ns#" xmlns:dc="http://purl.org/dc/elements/1.1/" xmlns:rdf="http://www.w3.org/1999/02/22-rdf-syntax-ns#">
   <cc:Work>
    <dc:type rdf:resource="http://purl.org/dc/dcmitype/StillImage"/>
    <dc:date>2021-03-11T10:33:41.184871</dc:date>
    <dc:format>image/svg+xml</dc:format>
    <dc:creator>
     <cc:Agent>
      <dc:title>Matplotlib v3.3.4, https://matplotlib.org/</dc:title>
     </cc:Agent>
    </dc:creator>
   </cc:Work>
  </rdf:RDF>
 </metadata>
 <defs>
  <style type="text/css">*{stroke-linecap:butt;stroke-linejoin:round;}</style>
 </defs>
 <g id="figure_1">
  <g id="patch_1">
   <path d="M 0 691.2 
L 921.6 691.2 
L 921.6 0 
L 0 0 
z
" style="fill:#ffffff;"/>
  </g>
  <g id="axes_1">
   <g id="patch_2">
    <path d="M 115.2 324.864 
L 439.854545 324.864 
L 439.854545 82.944 
L 115.2 82.944 
z
" style="fill:#ffffff;"/>
   </g>
   <g id="patch_3">
    <path clip-path="url(#p638eaf0e00)" d="M 129.957025 324.864 
L 135.859835 324.864 
L 135.859835 94.464 
L 129.957025 94.464 
z
" style="fill:#7f7f7f;"/>
   </g>
   <g id="patch_4">
    <path clip-path="url(#p638eaf0e00)" d="M 135.859835 324.864 
L 141.762645 324.864 
L 141.762645 212.393858 
L 135.859835 212.393858 
z
" style="fill:#7f7f7f;"/>
   </g>
   <g id="patch_5">
    <path clip-path="url(#p638eaf0e00)" d="M 141.762645 324.864 
L 147.665455 324.864 
L 147.665455 244.333194 
L 141.762645 244.333194 
z
" style="fill:#7f7f7f;"/>
   </g>
   <g id="patch_6">
    <path clip-path="url(#p638eaf0e00)" d="M 147.665455 324.864 
L 153.568264 324.864 
L 153.568264 262.350256 
L 147.665455 262.350256 
z
" style="fill:#7f7f7f;"/>
   </g>
   <g id="patch_7">
    <path clip-path="url(#p638eaf0e00)" d="M 153.568264 324.864 
L 159.471074 324.864 
L 159.471074 280.094332 
L 153.568264 280.094332 
z
" style="fill:#7f7f7f;"/>
   </g>
   <g id="patch_8">
    <path clip-path="url(#p638eaf0e00)" d="M 159.471074 324.864 
L 165.373884 324.864 
L 165.373884 289.92182 
L 159.471074 289.92182 
z
" style="fill:#7f7f7f;"/>
   </g>
   <g id="patch_9">
    <path clip-path="url(#p638eaf0e00)" d="M 165.373884 324.864 
L 171.276694 324.864 
L 171.276694 299.749308 
L 165.373884 299.749308 
z
" style="fill:#7f7f7f;"/>
   </g>
   <g id="patch_10">
    <path clip-path="url(#p638eaf0e00)" d="M 171.276694 324.864 
L 177.179504 324.864 
L 177.179504 305.482009 
L 171.276694 305.482009 
z
" style="fill:#7f7f7f;"/>
   </g>
   <g id="patch_11">
    <path clip-path="url(#p638eaf0e00)" d="M 177.179504 324.864 
L 183.082314 324.864 
L 183.082314 308.211867 
L 177.179504 308.211867 
z
" style="fill:#7f7f7f;"/>
   </g>
   <g id="patch_12">
    <path clip-path="url(#p638eaf0e00)" d="M 183.082314 324.864 
L 188.985124 324.864 
L 188.985124 314.217555 
L 183.082314 314.217555 
z
" style="fill:#7f7f7f;"/>
   </g>
   <g id="patch_13">
    <path clip-path="url(#p638eaf0e00)" d="M 188.985124 324.864 
L 194.887934 324.864 
L 194.887934 314.217555 
L 188.985124 314.217555 
z
" style="fill:#7f7f7f;"/>
   </g>
   <g id="patch_14">
    <path clip-path="url(#p638eaf0e00)" d="M 194.887934 324.864 
L 200.790744 324.864 
L 200.790744 318.312341 
L 194.887934 318.312341 
z
" style="fill:#7f7f7f;"/>
   </g>
   <g id="patch_15">
    <path clip-path="url(#p638eaf0e00)" d="M 200.790744 324.864 
L 206.693554 324.864 
L 206.693554 319.404284 
L 200.790744 319.404284 
z
" style="fill:#7f7f7f;"/>
   </g>
   <g id="patch_16">
    <path clip-path="url(#p638eaf0e00)" d="M 206.693554 324.864 
L 212.596364 324.864 
L 212.596364 320.496227 
L 206.693554 320.496227 
z
" style="fill:#7f7f7f;"/>
   </g>
   <g id="patch_17">
    <path clip-path="url(#p638eaf0e00)" d="M 212.596364 324.864 
L 218.499174 324.864 
L 218.499174 320.496227 
L 212.596364 320.496227 
z
" style="fill:#7f7f7f;"/>
   </g>
   <g id="patch_18">
    <path clip-path="url(#p638eaf0e00)" d="M 218.499174 324.864 
L 224.401983 324.864 
L 224.401983 322.407128 
L 218.499174 322.407128 
z
" style="fill:#7f7f7f;"/>
   </g>
   <g id="patch_19">
    <path clip-path="url(#p638eaf0e00)" d="M 224.401983 324.864 
L 230.304793 324.864 
L 230.304793 322.680114 
L 224.401983 322.680114 
z
" style="fill:#7f7f7f;"/>
   </g>
   <g id="patch_20">
    <path clip-path="url(#p638eaf0e00)" d="M 230.304793 324.864 
L 236.207603 324.864 
L 236.207603 322.9531 
L 230.304793 322.9531 
z
" style="fill:#7f7f7f;"/>
   </g>
   <g id="patch_21">
    <path clip-path="url(#p638eaf0e00)" d="M 236.207603 324.864 
L 242.110413 324.864 
L 242.110413 324.318028 
L 236.207603 324.318028 
z
" style="fill:#7f7f7f;"/>
   </g>
   <g id="patch_22">
    <path clip-path="url(#p638eaf0e00)" d="M 242.110413 324.864 
L 248.013223 324.864 
L 248.013223 324.045043 
L 242.110413 324.045043 
z
" style="fill:#7f7f7f;"/>
   </g>
   <g id="patch_23">
    <path clip-path="url(#p638eaf0e00)" d="M 248.013223 324.864 
L 253.916033 324.864 
L 253.916033 322.680114 
L 248.013223 322.680114 
z
" style="fill:#7f7f7f;"/>
   </g>
   <g id="patch_24">
    <path clip-path="url(#p638eaf0e00)" d="M 253.916033 324.864 
L 259.818843 324.864 
L 259.818843 323.499071 
L 253.916033 323.499071 
z
" style="fill:#7f7f7f;"/>
   </g>
   <g id="patch_25">
    <path clip-path="url(#p638eaf0e00)" d="M 259.818843 324.864 
L 265.721653 324.864 
L 265.721653 324.864 
L 259.818843 324.864 
z
" style="fill:#7f7f7f;"/>
   </g>
   <g id="patch_26">
    <path clip-path="url(#p638eaf0e00)" d="M 265.721653 324.864 
L 271.624463 324.864 
L 271.624463 324.045043 
L 265.721653 324.045043 
z
" style="fill:#7f7f7f;"/>
   </g>
   <g id="patch_27">
    <path clip-path="url(#p638eaf0e00)" d="M 271.624463 324.864 
L 277.527273 324.864 
L 277.527273 324.318028 
L 271.624463 324.318028 
z
" style="fill:#7f7f7f;"/>
   </g>
   <g id="patch_28">
    <path clip-path="url(#p638eaf0e00)" d="M 277.527273 324.864 
L 283.430083 324.864 
L 283.430083 324.318028 
L 277.527273 324.318028 
z
" style="fill:#7f7f7f;"/>
   </g>
   <g id="patch_29">
    <path clip-path="url(#p638eaf0e00)" d="M 283.430083 324.864 
L 289.332893 324.864 
L 289.332893 324.864 
L 283.430083 324.864 
z
" style="fill:#7f7f7f;"/>
   </g>
   <g id="patch_30">
    <path clip-path="url(#p638eaf0e00)" d="M 289.332893 324.864 
L 295.235702 324.864 
L 295.235702 324.864 
L 289.332893 324.864 
z
" style="fill:#7f7f7f;"/>
   </g>
   <g id="patch_31">
    <path clip-path="url(#p638eaf0e00)" d="M 295.235702 324.864 
L 301.138512 324.864 
L 301.138512 324.864 
L 295.235702 324.864 
z
" style="fill:#7f7f7f;"/>
   </g>
   <g id="patch_32">
    <path clip-path="url(#p638eaf0e00)" d="M 301.138512 324.864 
L 307.041322 324.864 
L 307.041322 324.864 
L 301.138512 324.864 
z
" style="fill:#7f7f7f;"/>
   </g>
   <g id="patch_33">
    <path clip-path="url(#p638eaf0e00)" d="M 307.041322 324.864 
L 312.944132 324.864 
L 312.944132 324.864 
L 307.041322 324.864 
z
" style="fill:#7f7f7f;"/>
   </g>
   <g id="patch_34">
    <path clip-path="url(#p638eaf0e00)" d="M 312.944132 324.864 
L 318.846942 324.864 
L 318.846942 324.864 
L 312.944132 324.864 
z
" style="fill:#7f7f7f;"/>
   </g>
   <g id="patch_35">
    <path clip-path="url(#p638eaf0e00)" d="M 318.846942 324.864 
L 324.749752 324.864 
L 324.749752 324.864 
L 318.846942 324.864 
z
" style="fill:#7f7f7f;"/>
   </g>
   <g id="patch_36">
    <path clip-path="url(#p638eaf0e00)" d="M 324.749752 324.864 
L 330.652562 324.864 
L 330.652562 324.864 
L 324.749752 324.864 
z
" style="fill:#7f7f7f;"/>
   </g>
   <g id="patch_37">
    <path clip-path="url(#p638eaf0e00)" d="M 330.652562 324.864 
L 336.555372 324.864 
L 336.555372 324.864 
L 330.652562 324.864 
z
" style="fill:#7f7f7f;"/>
   </g>
   <g id="patch_38">
    <path clip-path="url(#p638eaf0e00)" d="M 336.555372 324.864 
L 342.458182 324.864 
L 342.458182 324.864 
L 336.555372 324.864 
z
" style="fill:#7f7f7f;"/>
   </g>
   <g id="patch_39">
    <path clip-path="url(#p638eaf0e00)" d="M 342.458182 324.864 
L 348.360992 324.864 
L 348.360992 324.864 
L 342.458182 324.864 
z
" style="fill:#7f7f7f;"/>
   </g>
   <g id="patch_40">
    <path clip-path="url(#p638eaf0e00)" d="M 348.360992 324.864 
L 354.263802 324.864 
L 354.263802 324.864 
L 348.360992 324.864 
z
" style="fill:#7f7f7f;"/>
   </g>
   <g id="patch_41">
    <path clip-path="url(#p638eaf0e00)" d="M 354.263802 324.864 
L 360.166612 324.864 
L 360.166612 324.864 
L 354.263802 324.864 
z
" style="fill:#7f7f7f;"/>
   </g>
   <g id="patch_42">
    <path clip-path="url(#p638eaf0e00)" d="M 360.166612 324.864 
L 366.069421 324.864 
L 366.069421 324.864 
L 360.166612 324.864 
z
" style="fill:#7f7f7f;"/>
   </g>
   <g id="patch_43">
    <path clip-path="url(#p638eaf0e00)" d="M 366.069421 324.864 
L 371.972231 324.864 
L 371.972231 324.864 
L 366.069421 324.864 
z
" style="fill:#7f7f7f;"/>
   </g>
   <g id="patch_44">
    <path clip-path="url(#p638eaf0e00)" d="M 371.972231 324.864 
L 377.875041 324.864 
L 377.875041 324.864 
L 371.972231 324.864 
z
" style="fill:#7f7f7f;"/>
   </g>
   <g id="patch_45">
    <path clip-path="url(#p638eaf0e00)" d="M 377.875041 324.864 
L 383.777851 324.864 
L 383.777851 324.864 
L 377.875041 324.864 
z
" style="fill:#7f7f7f;"/>
   </g>
   <g id="patch_46">
    <path clip-path="url(#p638eaf0e00)" d="M 383.777851 324.864 
L 389.680661 324.864 
L 389.680661 324.864 
L 383.777851 324.864 
z
" style="fill:#7f7f7f;"/>
   </g>
   <g id="patch_47">
    <path clip-path="url(#p638eaf0e00)" d="M 389.680661 324.864 
L 395.583471 324.864 
L 395.583471 324.864 
L 389.680661 324.864 
z
" style="fill:#7f7f7f;"/>
   </g>
   <g id="patch_48">
    <path clip-path="url(#p638eaf0e00)" d="M 395.583471 324.864 
L 401.486281 324.864 
L 401.486281 324.864 
L 395.583471 324.864 
z
" style="fill:#7f7f7f;"/>
   </g>
   <g id="patch_49">
    <path clip-path="url(#p638eaf0e00)" d="M 401.486281 324.864 
L 407.389091 324.864 
L 407.389091 324.864 
L 401.486281 324.864 
z
" style="fill:#7f7f7f;"/>
   </g>
   <g id="patch_50">
    <path clip-path="url(#p638eaf0e00)" d="M 407.389091 324.864 
L 413.291901 324.864 
L 413.291901 324.864 
L 407.389091 324.864 
z
" style="fill:#7f7f7f;"/>
   </g>
   <g id="patch_51">
    <path clip-path="url(#p638eaf0e00)" d="M 413.291901 324.864 
L 419.194711 324.864 
L 419.194711 324.864 
L 413.291901 324.864 
z
" style="fill:#7f7f7f;"/>
   </g>
   <g id="patch_52">
    <path clip-path="url(#p638eaf0e00)" d="M 419.194711 324.864 
L 425.097521 324.864 
L 425.097521 324.591014 
L 419.194711 324.591014 
z
" style="fill:#7f7f7f;"/>
   </g>
   <g id="matplotlib.axis_1">
    <g id="xtick_1">
     <g id="line2d_1">
      <defs>
       <path d="M 0 0 
L 0 3.5 
" id="mecd939b4ac" style="stroke:#000000;stroke-width:0.8;"/>
      </defs>
      <g>
       <use style="stroke:#000000;stroke-width:0.8;" x="120.468754" xlink:href="#mecd939b4ac" y="324.864"/>
      </g>
     </g>
     <g id="text_1">
      <!-- 0.00016 -->
      <g transform="translate(99.792191 339.462437)scale(0.1 -0.1)">
       <defs>
        <path d="M 31.78125 66.40625 
Q 24.171875 66.40625 20.328125 58.90625 
Q 16.5 51.421875 16.5 36.375 
Q 16.5 21.390625 20.328125 13.890625 
Q 24.171875 6.390625 31.78125 6.390625 
Q 39.453125 6.390625 43.28125 13.890625 
Q 47.125 21.390625 47.125 36.375 
Q 47.125 51.421875 43.28125 58.90625 
Q 39.453125 66.40625 31.78125 66.40625 
z
M 31.78125 74.21875 
Q 44.046875 74.21875 50.515625 64.515625 
Q 56.984375 54.828125 56.984375 36.375 
Q 56.984375 17.96875 50.515625 8.265625 
Q 44.046875 -1.421875 31.78125 -1.421875 
Q 19.53125 -1.421875 13.0625 8.265625 
Q 6.59375 17.96875 6.59375 36.375 
Q 6.59375 54.828125 13.0625 64.515625 
Q 19.53125 74.21875 31.78125 74.21875 
z
" id="DejaVuSans-48"/>
        <path d="M 10.6875 12.40625 
L 21 12.40625 
L 21 0 
L 10.6875 0 
z
" id="DejaVuSans-46"/>
        <path d="M 12.40625 8.296875 
L 28.515625 8.296875 
L 28.515625 63.921875 
L 10.984375 60.40625 
L 10.984375 69.390625 
L 28.421875 72.90625 
L 38.28125 72.90625 
L 38.28125 8.296875 
L 54.390625 8.296875 
L 54.390625 0 
L 12.40625 0 
z
" id="DejaVuSans-49"/>
        <path d="M 33.015625 40.375 
Q 26.375 40.375 22.484375 35.828125 
Q 18.609375 31.296875 18.609375 23.390625 
Q 18.609375 15.53125 22.484375 10.953125 
Q 26.375 6.390625 33.015625 6.390625 
Q 39.65625 6.390625 43.53125 10.953125 
Q 47.40625 15.53125 47.40625 23.390625 
Q 47.40625 31.296875 43.53125 35.828125 
Q 39.65625 40.375 33.015625 40.375 
z
M 52.59375 71.296875 
L 52.59375 62.3125 
Q 48.875 64.0625 45.09375 64.984375 
Q 41.3125 65.921875 37.59375 65.921875 
Q 27.828125 65.921875 22.671875 59.328125 
Q 17.53125 52.734375 16.796875 39.40625 
Q 19.671875 43.65625 24.015625 45.921875 
Q 28.375 48.1875 33.59375 48.1875 
Q 44.578125 48.1875 50.953125 41.515625 
Q 57.328125 34.859375 57.328125 23.390625 
Q 57.328125 12.15625 50.6875 5.359375 
Q 44.046875 -1.421875 33.015625 -1.421875 
Q 20.359375 -1.421875 13.671875 8.265625 
Q 6.984375 17.96875 6.984375 36.375 
Q 6.984375 53.65625 15.1875 63.9375 
Q 23.390625 74.21875 37.203125 74.21875 
Q 40.921875 74.21875 44.703125 73.484375 
Q 48.484375 72.75 52.59375 71.296875 
z
" id="DejaVuSans-54"/>
       </defs>
       <use xlink:href="#DejaVuSans-48"/>
       <use x="63.623047" xlink:href="#DejaVuSans-46"/>
       <use x="95.410156" xlink:href="#DejaVuSans-48"/>
       <use x="159.033203" xlink:href="#DejaVuSans-48"/>
       <use x="222.65625" xlink:href="#DejaVuSans-48"/>
       <use x="286.279297" xlink:href="#DejaVuSans-49"/>
       <use x="349.902344" xlink:href="#DejaVuSans-54"/>
      </g>
     </g>
    </g>
    <g id="xtick_2">
     <g id="line2d_2">
      <g>
       <use style="stroke:#000000;stroke-width:0.8;" x="169.478516" xlink:href="#mecd939b4ac" y="324.864"/>
      </g>
     </g>
     <g id="text_2">
      <!-- 0.00018 -->
      <g transform="translate(148.801953 339.462437)scale(0.1 -0.1)">
       <defs>
        <path d="M 31.78125 34.625 
Q 24.75 34.625 20.71875 30.859375 
Q 16.703125 27.09375 16.703125 20.515625 
Q 16.703125 13.921875 20.71875 10.15625 
Q 24.75 6.390625 31.78125 6.390625 
Q 38.8125 6.390625 42.859375 10.171875 
Q 46.921875 13.96875 46.921875 20.515625 
Q 46.921875 27.09375 42.890625 30.859375 
Q 38.875 34.625 31.78125 34.625 
z
M 21.921875 38.8125 
Q 15.578125 40.375 12.03125 44.71875 
Q 8.5 49.078125 8.5 55.328125 
Q 8.5 64.0625 14.71875 69.140625 
Q 20.953125 74.21875 31.78125 74.21875 
Q 42.671875 74.21875 48.875 69.140625 
Q 55.078125 64.0625 55.078125 55.328125 
Q 55.078125 49.078125 51.53125 44.71875 
Q 48 40.375 41.703125 38.8125 
Q 48.828125 37.15625 52.796875 32.3125 
Q 56.78125 27.484375 56.78125 20.515625 
Q 56.78125 9.90625 50.3125 4.234375 
Q 43.84375 -1.421875 31.78125 -1.421875 
Q 19.734375 -1.421875 13.25 4.234375 
Q 6.78125 9.90625 6.78125 20.515625 
Q 6.78125 27.484375 10.78125 32.3125 
Q 14.796875 37.15625 21.921875 38.8125 
z
M 18.3125 54.390625 
Q 18.3125 48.734375 21.84375 45.5625 
Q 25.390625 42.390625 31.78125 42.390625 
Q 38.140625 42.390625 41.71875 45.5625 
Q 45.3125 48.734375 45.3125 54.390625 
Q 45.3125 60.0625 41.71875 63.234375 
Q 38.140625 66.40625 31.78125 66.40625 
Q 25.390625 66.40625 21.84375 63.234375 
Q 18.3125 60.0625 18.3125 54.390625 
z
" id="DejaVuSans-56"/>
       </defs>
       <use xlink:href="#DejaVuSans-48"/>
       <use x="63.623047" xlink:href="#DejaVuSans-46"/>
       <use x="95.410156" xlink:href="#DejaVuSans-48"/>
       <use x="159.033203" xlink:href="#DejaVuSans-48"/>
       <use x="222.65625" xlink:href="#DejaVuSans-48"/>
       <use x="286.279297" xlink:href="#DejaVuSans-49"/>
       <use x="349.902344" xlink:href="#DejaVuSans-56"/>
      </g>
     </g>
    </g>
    <g id="xtick_3">
     <g id="line2d_3">
      <g>
       <use style="stroke:#000000;stroke-width:0.8;" x="218.488278" xlink:href="#mecd939b4ac" y="324.864"/>
      </g>
     </g>
     <g id="text_3">
      <!-- 0.00020 -->
      <g transform="translate(197.811715 339.462437)scale(0.1 -0.1)">
       <defs>
        <path d="M 19.1875 8.296875 
L 53.609375 8.296875 
L 53.609375 0 
L 7.328125 0 
L 7.328125 8.296875 
Q 12.9375 14.109375 22.625 23.890625 
Q 32.328125 33.6875 34.8125 36.53125 
Q 39.546875 41.84375 41.421875 45.53125 
Q 43.3125 49.21875 43.3125 52.78125 
Q 43.3125 58.59375 39.234375 62.25 
Q 35.15625 65.921875 28.609375 65.921875 
Q 23.96875 65.921875 18.8125 64.3125 
Q 13.671875 62.703125 7.8125 59.421875 
L 7.8125 69.390625 
Q 13.765625 71.78125 18.9375 73 
Q 24.125 74.21875 28.421875 74.21875 
Q 39.75 74.21875 46.484375 68.546875 
Q 53.21875 62.890625 53.21875 53.421875 
Q 53.21875 48.921875 51.53125 44.890625 
Q 49.859375 40.875 45.40625 35.40625 
Q 44.1875 33.984375 37.640625 27.21875 
Q 31.109375 20.453125 19.1875 8.296875 
z
" id="DejaVuSans-50"/>
       </defs>
       <use xlink:href="#DejaVuSans-48"/>
       <use x="63.623047" xlink:href="#DejaVuSans-46"/>
       <use x="95.410156" xlink:href="#DejaVuSans-48"/>
       <use x="159.033203" xlink:href="#DejaVuSans-48"/>
       <use x="222.65625" xlink:href="#DejaVuSans-48"/>
       <use x="286.279297" xlink:href="#DejaVuSans-50"/>
       <use x="349.902344" xlink:href="#DejaVuSans-48"/>
      </g>
     </g>
    </g>
    <g id="xtick_4">
     <g id="line2d_4">
      <g>
       <use style="stroke:#000000;stroke-width:0.8;" x="267.498039" xlink:href="#mecd939b4ac" y="324.864"/>
      </g>
     </g>
     <g id="text_4">
      <!-- 0.00022 -->
      <g transform="translate(246.821477 339.462437)scale(0.1 -0.1)">
       <use xlink:href="#DejaVuSans-48"/>
       <use x="63.623047" xlink:href="#DejaVuSans-46"/>
       <use x="95.410156" xlink:href="#DejaVuSans-48"/>
       <use x="159.033203" xlink:href="#DejaVuSans-48"/>
       <use x="222.65625" xlink:href="#DejaVuSans-48"/>
       <use x="286.279297" xlink:href="#DejaVuSans-50"/>
       <use x="349.902344" xlink:href="#DejaVuSans-50"/>
      </g>
     </g>
    </g>
    <g id="xtick_5">
     <g id="line2d_5">
      <g>
       <use style="stroke:#000000;stroke-width:0.8;" x="316.507801" xlink:href="#mecd939b4ac" y="324.864"/>
      </g>
     </g>
     <g id="text_5">
      <!-- 0.00024 -->
      <g transform="translate(295.831239 339.462437)scale(0.1 -0.1)">
       <defs>
        <path d="M 37.796875 64.3125 
L 12.890625 25.390625 
L 37.796875 25.390625 
z
M 35.203125 72.90625 
L 47.609375 72.90625 
L 47.609375 25.390625 
L 58.015625 25.390625 
L 58.015625 17.1875 
L 47.609375 17.1875 
L 47.609375 0 
L 37.796875 0 
L 37.796875 17.1875 
L 4.890625 17.1875 
L 4.890625 26.703125 
z
" id="DejaVuSans-52"/>
       </defs>
       <use xlink:href="#DejaVuSans-48"/>
       <use x="63.623047" xlink:href="#DejaVuSans-46"/>
       <use x="95.410156" xlink:href="#DejaVuSans-48"/>
       <use x="159.033203" xlink:href="#DejaVuSans-48"/>
       <use x="222.65625" xlink:href="#DejaVuSans-48"/>
       <use x="286.279297" xlink:href="#DejaVuSans-50"/>
       <use x="349.902344" xlink:href="#DejaVuSans-52"/>
      </g>
     </g>
    </g>
    <g id="xtick_6">
     <g id="line2d_6">
      <g>
       <use style="stroke:#000000;stroke-width:0.8;" x="365.517563" xlink:href="#mecd939b4ac" y="324.864"/>
      </g>
     </g>
     <g id="text_6">
      <!-- 0.00026 -->
      <g transform="translate(344.841001 339.462437)scale(0.1 -0.1)">
       <use xlink:href="#DejaVuSans-48"/>
       <use x="63.623047" xlink:href="#DejaVuSans-46"/>
       <use x="95.410156" xlink:href="#DejaVuSans-48"/>
       <use x="159.033203" xlink:href="#DejaVuSans-48"/>
       <use x="222.65625" xlink:href="#DejaVuSans-48"/>
       <use x="286.279297" xlink:href="#DejaVuSans-50"/>
       <use x="349.902344" xlink:href="#DejaVuSans-54"/>
      </g>
     </g>
    </g>
    <g id="xtick_7">
     <g id="line2d_7">
      <g>
       <use style="stroke:#000000;stroke-width:0.8;" x="414.527325" xlink:href="#mecd939b4ac" y="324.864"/>
      </g>
     </g>
     <g id="text_7">
      <!-- 0.00028 -->
      <g transform="translate(393.850763 339.462437)scale(0.1 -0.1)">
       <use xlink:href="#DejaVuSans-48"/>
       <use x="63.623047" xlink:href="#DejaVuSans-46"/>
       <use x="95.410156" xlink:href="#DejaVuSans-48"/>
       <use x="159.033203" xlink:href="#DejaVuSans-48"/>
       <use x="222.65625" xlink:href="#DejaVuSans-48"/>
       <use x="286.279297" xlink:href="#DejaVuSans-50"/>
       <use x="349.902344" xlink:href="#DejaVuSans-56"/>
      </g>
     </g>
    </g>
   </g>
   <g id="matplotlib.axis_2">
    <g id="ytick_1">
     <g id="line2d_8">
      <defs>
       <path d="M 0 0 
L -3.5 0 
" id="m02bfd10797" style="stroke:#000000;stroke-width:0.8;"/>
      </defs>
      <g>
       <use style="stroke:#000000;stroke-width:0.8;" x="115.2" xlink:href="#m02bfd10797" y="324.864"/>
      </g>
     </g>
     <g id="text_8">
      <!-- 0 -->
      <g transform="translate(101.8375 328.663219)scale(0.1 -0.1)">
       <use xlink:href="#DejaVuSans-48"/>
      </g>
     </g>
    </g>
    <g id="ytick_2">
     <g id="line2d_9">
      <g>
       <use style="stroke:#000000;stroke-width:0.8;" x="115.2" xlink:href="#m02bfd10797" y="297.565422"/>
      </g>
     </g>
     <g id="text_9">
      <!-- 100 -->
      <g transform="translate(89.1125 301.364641)scale(0.1 -0.1)">
       <use xlink:href="#DejaVuSans-49"/>
       <use x="63.623047" xlink:href="#DejaVuSans-48"/>
       <use x="127.246094" xlink:href="#DejaVuSans-48"/>
      </g>
     </g>
    </g>
    <g id="ytick_3">
     <g id="line2d_10">
      <g>
       <use style="stroke:#000000;stroke-width:0.8;" x="115.2" xlink:href="#m02bfd10797" y="270.266844"/>
      </g>
     </g>
     <g id="text_10">
      <!-- 200 -->
      <g transform="translate(89.1125 274.066062)scale(0.1 -0.1)">
       <use xlink:href="#DejaVuSans-50"/>
       <use x="63.623047" xlink:href="#DejaVuSans-48"/>
       <use x="127.246094" xlink:href="#DejaVuSans-48"/>
      </g>
     </g>
    </g>
    <g id="ytick_4">
     <g id="line2d_11">
      <g>
       <use style="stroke:#000000;stroke-width:0.8;" x="115.2" xlink:href="#m02bfd10797" y="242.968265"/>
      </g>
     </g>
     <g id="text_11">
      <!-- 300 -->
      <g transform="translate(89.1125 246.767484)scale(0.1 -0.1)">
       <defs>
        <path d="M 40.578125 39.3125 
Q 47.65625 37.796875 51.625 33 
Q 55.609375 28.21875 55.609375 21.1875 
Q 55.609375 10.40625 48.1875 4.484375 
Q 40.765625 -1.421875 27.09375 -1.421875 
Q 22.515625 -1.421875 17.65625 -0.515625 
Q 12.796875 0.390625 7.625 2.203125 
L 7.625 11.71875 
Q 11.71875 9.328125 16.59375 8.109375 
Q 21.484375 6.890625 26.8125 6.890625 
Q 36.078125 6.890625 40.9375 10.546875 
Q 45.796875 14.203125 45.796875 21.1875 
Q 45.796875 27.640625 41.28125 31.265625 
Q 36.765625 34.90625 28.71875 34.90625 
L 20.21875 34.90625 
L 20.21875 43.015625 
L 29.109375 43.015625 
Q 36.375 43.015625 40.234375 45.921875 
Q 44.09375 48.828125 44.09375 54.296875 
Q 44.09375 59.90625 40.109375 62.90625 
Q 36.140625 65.921875 28.71875 65.921875 
Q 24.65625 65.921875 20.015625 65.03125 
Q 15.375 64.15625 9.8125 62.3125 
L 9.8125 71.09375 
Q 15.4375 72.65625 20.34375 73.4375 
Q 25.25 74.21875 29.59375 74.21875 
Q 40.828125 74.21875 47.359375 69.109375 
Q 53.90625 64.015625 53.90625 55.328125 
Q 53.90625 49.265625 50.4375 45.09375 
Q 46.96875 40.921875 40.578125 39.3125 
z
" id="DejaVuSans-51"/>
       </defs>
       <use xlink:href="#DejaVuSans-51"/>
       <use x="63.623047" xlink:href="#DejaVuSans-48"/>
       <use x="127.246094" xlink:href="#DejaVuSans-48"/>
      </g>
     </g>
    </g>
    <g id="ytick_5">
     <g id="line2d_12">
      <g>
       <use style="stroke:#000000;stroke-width:0.8;" x="115.2" xlink:href="#m02bfd10797" y="215.669687"/>
      </g>
     </g>
     <g id="text_12">
      <!-- 400 -->
      <g transform="translate(89.1125 219.468906)scale(0.1 -0.1)">
       <use xlink:href="#DejaVuSans-52"/>
       <use x="63.623047" xlink:href="#DejaVuSans-48"/>
       <use x="127.246094" xlink:href="#DejaVuSans-48"/>
      </g>
     </g>
    </g>
    <g id="ytick_6">
     <g id="line2d_13">
      <g>
       <use style="stroke:#000000;stroke-width:0.8;" x="115.2" xlink:href="#m02bfd10797" y="188.371109"/>
      </g>
     </g>
     <g id="text_13">
      <!-- 500 -->
      <g transform="translate(89.1125 192.170328)scale(0.1 -0.1)">
       <defs>
        <path d="M 10.796875 72.90625 
L 49.515625 72.90625 
L 49.515625 64.59375 
L 19.828125 64.59375 
L 19.828125 46.734375 
Q 21.96875 47.46875 24.109375 47.828125 
Q 26.265625 48.1875 28.421875 48.1875 
Q 40.625 48.1875 47.75 41.5 
Q 54.890625 34.8125 54.890625 23.390625 
Q 54.890625 11.625 47.5625 5.09375 
Q 40.234375 -1.421875 26.90625 -1.421875 
Q 22.3125 -1.421875 17.546875 -0.640625 
Q 12.796875 0.140625 7.71875 1.703125 
L 7.71875 11.625 
Q 12.109375 9.234375 16.796875 8.0625 
Q 21.484375 6.890625 26.703125 6.890625 
Q 35.15625 6.890625 40.078125 11.328125 
Q 45.015625 15.765625 45.015625 23.390625 
Q 45.015625 31 40.078125 35.4375 
Q 35.15625 39.890625 26.703125 39.890625 
Q 22.75 39.890625 18.8125 39.015625 
Q 14.890625 38.140625 10.796875 36.28125 
z
" id="DejaVuSans-53"/>
       </defs>
       <use xlink:href="#DejaVuSans-53"/>
       <use x="63.623047" xlink:href="#DejaVuSans-48"/>
       <use x="127.246094" xlink:href="#DejaVuSans-48"/>
      </g>
     </g>
    </g>
    <g id="ytick_7">
     <g id="line2d_14">
      <g>
       <use style="stroke:#000000;stroke-width:0.8;" x="115.2" xlink:href="#m02bfd10797" y="161.072531"/>
      </g>
     </g>
     <g id="text_14">
      <!-- 600 -->
      <g transform="translate(89.1125 164.87175)scale(0.1 -0.1)">
       <use xlink:href="#DejaVuSans-54"/>
       <use x="63.623047" xlink:href="#DejaVuSans-48"/>
       <use x="127.246094" xlink:href="#DejaVuSans-48"/>
      </g>
     </g>
    </g>
    <g id="ytick_8">
     <g id="line2d_15">
      <g>
       <use style="stroke:#000000;stroke-width:0.8;" x="115.2" xlink:href="#m02bfd10797" y="133.773953"/>
      </g>
     </g>
     <g id="text_15">
      <!-- 700 -->
      <g transform="translate(89.1125 137.573171)scale(0.1 -0.1)">
       <defs>
        <path d="M 8.203125 72.90625 
L 55.078125 72.90625 
L 55.078125 68.703125 
L 28.609375 0 
L 18.3125 0 
L 43.21875 64.59375 
L 8.203125 64.59375 
z
" id="DejaVuSans-55"/>
       </defs>
       <use xlink:href="#DejaVuSans-55"/>
       <use x="63.623047" xlink:href="#DejaVuSans-48"/>
       <use x="127.246094" xlink:href="#DejaVuSans-48"/>
      </g>
     </g>
    </g>
    <g id="ytick_9">
     <g id="line2d_16">
      <g>
       <use style="stroke:#000000;stroke-width:0.8;" x="115.2" xlink:href="#m02bfd10797" y="106.475374"/>
      </g>
     </g>
     <g id="text_16">
      <!-- 800 -->
      <g transform="translate(89.1125 110.274593)scale(0.1 -0.1)">
       <use xlink:href="#DejaVuSans-56"/>
       <use x="63.623047" xlink:href="#DejaVuSans-48"/>
       <use x="127.246094" xlink:href="#DejaVuSans-48"/>
      </g>
     </g>
    </g>
   </g>
   <g id="line2d_17">
    <path clip-path="url(#p638eaf0e00)" d="M 129.951369 324.864 
L 129.951369 82.944 
" style="fill:none;stroke:#00008b;stroke-linecap:square;stroke-width:1.5;"/>
   </g>
   <g id="patch_53">
    <path d="M 115.2 324.864 
L 115.2 82.944 
" style="fill:none;stroke:#000000;stroke-linecap:square;stroke-linejoin:miter;stroke-width:0.8;"/>
   </g>
   <g id="patch_54">
    <path d="M 439.854545 324.864 
L 439.854545 82.944 
" style="fill:none;stroke:#000000;stroke-linecap:square;stroke-linejoin:miter;stroke-width:0.8;"/>
   </g>
   <g id="patch_55">
    <path d="M 115.2 324.864 
L 439.854545 324.864 
" style="fill:none;stroke:#000000;stroke-linecap:square;stroke-linejoin:miter;stroke-width:0.8;"/>
   </g>
   <g id="patch_56">
    <path d="M 115.2 82.944 
L 439.854545 82.944 
" style="fill:none;stroke:#000000;stroke-linecap:square;stroke-linejoin:miter;stroke-width:0.8;"/>
   </g>
   <g id="text_17">
    <!-- A -->
    <g transform="translate(118.446545 92.961637)scale(0.1 -0.1)">
     <defs>
      <path d="M 34.1875 63.1875 
L 20.796875 26.90625 
L 47.609375 26.90625 
z
M 28.609375 72.90625 
L 39.796875 72.90625 
L 67.578125 0 
L 57.328125 0 
L 50.6875 18.703125 
L 17.828125 18.703125 
L 11.1875 0 
L 0.78125 0 
z
" id="DejaVuSans-65"/>
     </defs>
     <use xlink:href="#DejaVuSans-65"/>
    </g>
   </g>
   <g id="text_18">
    <!-- $p$ = 0.1436 -->
    <g transform="translate(277.527273 203.904)scale(0.1 -0.1)">
     <defs>
      <path d="M 49.609375 33.6875 
Q 49.609375 40.875 46.484375 44.671875 
Q 43.359375 48.484375 37.5 48.484375 
Q 33.5 48.484375 29.859375 46.4375 
Q 26.21875 44.390625 23.390625 40.484375 
Q 20.609375 36.625 18.9375 31.15625 
Q 17.28125 25.6875 17.28125 20.3125 
Q 17.28125 13.484375 20.40625 9.796875 
Q 23.53125 6.109375 29.296875 6.109375 
Q 33.546875 6.109375 37.1875 8.109375 
Q 40.828125 10.109375 43.40625 13.921875 
Q 46.1875 17.921875 47.890625 23.34375 
Q 49.609375 28.765625 49.609375 33.6875 
z
M 21.78125 46.390625 
Q 25.390625 51.125 30.296875 53.5625 
Q 35.203125 56 41.21875 56 
Q 49.609375 56 54.25 50.5 
Q 58.890625 45.015625 58.890625 35.109375 
Q 58.890625 27 56 19.65625 
Q 53.125 12.3125 47.703125 6.5 
Q 44.09375 2.640625 39.546875 0.609375 
Q 35.015625 -1.421875 29.984375 -1.421875 
Q 24.171875 -1.421875 20.21875 1 
Q 16.265625 3.421875 14.3125 8.203125 
L 8.6875 -20.796875 
L -0.296875 -20.796875 
L 14.40625 54.6875 
L 23.390625 54.6875 
z
" id="DejaVuSans-Oblique-112"/>
      <path id="DejaVuSans-32"/>
      <path d="M 10.59375 45.40625 
L 73.1875 45.40625 
L 73.1875 37.203125 
L 10.59375 37.203125 
z
M 10.59375 25.484375 
L 73.1875 25.484375 
L 73.1875 17.1875 
L 10.59375 17.1875 
z
" id="DejaVuSans-61"/>
     </defs>
     <use transform="translate(0 0.78125)" xlink:href="#DejaVuSans-Oblique-112"/>
     <use transform="translate(63.476562 0.78125)" xlink:href="#DejaVuSans-32"/>
     <use transform="translate(95.263672 0.78125)" xlink:href="#DejaVuSans-61"/>
     <use transform="translate(179.052734 0.78125)" xlink:href="#DejaVuSans-32"/>
     <use transform="translate(210.839844 0.78125)" xlink:href="#DejaVuSans-48"/>
     <use transform="translate(274.462891 0.78125)" xlink:href="#DejaVuSans-46"/>
     <use transform="translate(306.25 0.78125)" xlink:href="#DejaVuSans-49"/>
     <use transform="translate(369.873047 0.78125)" xlink:href="#DejaVuSans-52"/>
     <use transform="translate(433.496094 0.78125)" xlink:href="#DejaVuSans-51"/>
     <use transform="translate(497.119141 0.78125)" xlink:href="#DejaVuSans-54"/>
    </g>
   </g>
   <g id="text_19">
    <!-- Min $p$ -->
    <g transform="translate(261.147273 76.944)scale(0.12 -0.12)">
     <defs>
      <path d="M 9.8125 72.90625 
L 24.515625 72.90625 
L 43.109375 23.296875 
L 61.8125 72.90625 
L 76.515625 72.90625 
L 76.515625 0 
L 66.890625 0 
L 66.890625 64.015625 
L 48.09375 14.015625 
L 38.1875 14.015625 
L 19.390625 64.015625 
L 19.390625 0 
L 9.8125 0 
z
" id="DejaVuSans-77"/>
      <path d="M 9.421875 54.6875 
L 18.40625 54.6875 
L 18.40625 0 
L 9.421875 0 
z
M 9.421875 75.984375 
L 18.40625 75.984375 
L 18.40625 64.59375 
L 9.421875 64.59375 
z
" id="DejaVuSans-105"/>
      <path d="M 54.890625 33.015625 
L 54.890625 0 
L 45.90625 0 
L 45.90625 32.71875 
Q 45.90625 40.484375 42.875 44.328125 
Q 39.84375 48.1875 33.796875 48.1875 
Q 26.515625 48.1875 22.3125 43.546875 
Q 18.109375 38.921875 18.109375 30.90625 
L 18.109375 0 
L 9.078125 0 
L 9.078125 54.6875 
L 18.109375 54.6875 
L 18.109375 46.1875 
Q 21.34375 51.125 25.703125 53.5625 
Q 30.078125 56 35.796875 56 
Q 45.21875 56 50.046875 50.171875 
Q 54.890625 44.34375 54.890625 33.015625 
z
" id="DejaVuSans-110"/>
     </defs>
     <use transform="translate(0 0.015625)" xlink:href="#DejaVuSans-77"/>
     <use transform="translate(86.279297 0.015625)" xlink:href="#DejaVuSans-105"/>
     <use transform="translate(114.0625 0.015625)" xlink:href="#DejaVuSans-110"/>
     <use transform="translate(177.441406 0.015625)" xlink:href="#DejaVuSans-32"/>
     <use transform="translate(209.228516 0.015625)" xlink:href="#DejaVuSans-Oblique-112"/>
    </g>
   </g>
  </g>
  <g id="axes_2">
   <g id="patch_57">
    <path d="M 504.785455 324.864 
L 829.44 324.864 
L 829.44 82.944 
L 504.785455 82.944 
z
" style="fill:#ffffff;"/>
   </g>
   <g id="patch_58">
    <path clip-path="url(#p2244645e87)" d="M 519.542479 324.864 
L 525.445289 324.864 
L 525.445289 311.732394 
L 519.542479 311.732394 
z
" style="fill:#7f7f7f;"/>
   </g>
   <g id="patch_59">
    <path clip-path="url(#p2244645e87)" d="M 525.445289 324.864 
L 531.348099 324.864 
L 531.348099 311.732394 
L 525.445289 311.732394 
z
" style="fill:#7f7f7f;"/>
   </g>
   <g id="patch_60">
    <path clip-path="url(#p2244645e87)" d="M 531.348099 324.864 
L 537.250909 324.864 
L 537.250909 278.306487 
L 531.348099 278.306487 
z
" style="fill:#7f7f7f;"/>
   </g>
   <g id="patch_61">
    <path clip-path="url(#p2244645e87)" d="M 537.250909 324.864 
L 543.153719 324.864 
L 543.153719 243.686798 
L 537.250909 243.686798 
z
" style="fill:#7f7f7f;"/>
   </g>
   <g id="patch_62">
    <path clip-path="url(#p2244645e87)" d="M 543.153719 324.864 
L 549.056529 324.864 
L 549.056529 192.354155 
L 543.153719 192.354155 
z
" style="fill:#7f7f7f;"/>
   </g>
   <g id="patch_63">
    <path clip-path="url(#p2244645e87)" d="M 549.056529 324.864 
L 554.959339 324.864 
L 554.959339 150.571772 
L 549.056529 150.571772 
z
" style="fill:#7f7f7f;"/>
   </g>
   <g id="patch_64">
    <path clip-path="url(#p2244645e87)" d="M 554.959339 324.864 
L 560.862149 324.864 
L 560.862149 114.758301 
L 554.959339 114.758301 
z
" style="fill:#7f7f7f;"/>
   </g>
   <g id="patch_65">
    <path clip-path="url(#p2244645e87)" d="M 560.862149 324.864 
L 566.764959 324.864 
L 566.764959 106.401824 
L 560.862149 106.401824 
z
" style="fill:#7f7f7f;"/>
   </g>
   <g id="patch_66">
    <path clip-path="url(#p2244645e87)" d="M 566.764959 324.864 
L 572.667769 324.864 
L 572.667769 99.23913 
L 566.764959 99.23913 
z
" style="fill:#7f7f7f;"/>
   </g>
   <g id="patch_67">
    <path clip-path="url(#p2244645e87)" d="M 572.667769 324.864 
L 578.570579 324.864 
L 578.570579 94.464 
L 572.667769 94.464 
z
" style="fill:#7f7f7f;"/>
   </g>
   <g id="patch_68">
    <path clip-path="url(#p2244645e87)" d="M 578.570579 324.864 
L 584.473388 324.864 
L 584.473388 94.464 
L 578.570579 94.464 
z
" style="fill:#7f7f7f;"/>
   </g>
   <g id="patch_69">
    <path clip-path="url(#p2244645e87)" d="M 584.473388 324.864 
L 590.376198 324.864 
L 590.376198 105.208041 
L 584.473388 105.208041 
z
" style="fill:#7f7f7f;"/>
   </g>
   <g id="patch_70">
    <path clip-path="url(#p2244645e87)" d="M 590.376198 324.864 
L 596.279008 324.864 
L 596.279008 161.315813 
L 590.376198 161.315813 
z
" style="fill:#7f7f7f;"/>
   </g>
   <g id="patch_71">
    <path clip-path="url(#p2244645e87)" d="M 596.279008 324.864 
L 602.181818 324.864 
L 602.181818 168.478508 
L 596.279008 168.478508 
z
" style="fill:#7f7f7f;"/>
   </g>
   <g id="patch_72">
    <path clip-path="url(#p2244645e87)" d="M 602.181818 324.864 
L 608.084628 324.864 
L 608.084628 188.772808 
L 602.181818 188.772808 
z
" style="fill:#7f7f7f;"/>
   </g>
   <g id="patch_73">
    <path clip-path="url(#p2244645e87)" d="M 608.084628 324.864 
L 613.987438 324.864 
L 613.987438 211.454674 
L 608.084628 211.454674 
z
" style="fill:#7f7f7f;"/>
   </g>
   <g id="patch_74">
    <path clip-path="url(#p2244645e87)" d="M 613.987438 324.864 
L 619.890248 324.864 
L 619.890248 221.004933 
L 613.987438 221.004933 
z
" style="fill:#7f7f7f;"/>
   </g>
   <g id="patch_75">
    <path clip-path="url(#p2244645e87)" d="M 619.890248 324.864 
L 625.793058 324.864 
L 625.793058 231.748974 
L 619.890248 231.748974 
z
" style="fill:#7f7f7f;"/>
   </g>
   <g id="patch_76">
    <path clip-path="url(#p2244645e87)" d="M 625.793058 324.864 
L 631.695868 324.864 
L 631.695868 244.88058 
L 625.793058 244.88058 
z
" style="fill:#7f7f7f;"/>
   </g>
   <g id="patch_77">
    <path clip-path="url(#p2244645e87)" d="M 631.695868 324.864 
L 637.598678 324.864 
L 637.598678 249.65571 
L 631.695868 249.65571 
z
" style="fill:#7f7f7f;"/>
   </g>
   <g id="patch_78">
    <path clip-path="url(#p2244645e87)" d="M 637.598678 324.864 
L 643.501488 324.864 
L 643.501488 273.531358 
L 637.598678 273.531358 
z
" style="fill:#7f7f7f;"/>
   </g>
   <g id="patch_79">
    <path clip-path="url(#p2244645e87)" d="M 643.501488 324.864 
L 649.404298 324.864 
L 649.404298 289.050528 
L 643.501488 289.050528 
z
" style="fill:#7f7f7f;"/>
   </g>
   <g id="patch_80">
    <path clip-path="url(#p2244645e87)" d="M 649.404298 324.864 
L 655.307107 324.864 
L 655.307107 296.213223 
L 649.404298 296.213223 
z
" style="fill:#7f7f7f;"/>
   </g>
   <g id="patch_81">
    <path clip-path="url(#p2244645e87)" d="M 655.307107 324.864 
L 661.209917 324.864 
L 661.209917 295.01944 
L 655.307107 295.01944 
z
" style="fill:#7f7f7f;"/>
   </g>
   <g id="patch_82">
    <path clip-path="url(#p2244645e87)" d="M 661.209917 324.864 
L 667.112727 324.864 
L 667.112727 308.151047 
L 661.209917 308.151047 
z
" style="fill:#7f7f7f;"/>
   </g>
   <g id="patch_83">
    <path clip-path="url(#p2244645e87)" d="M 667.112727 324.864 
L 673.015537 324.864 
L 673.015537 306.957264 
L 667.112727 306.957264 
z
" style="fill:#7f7f7f;"/>
   </g>
   <g id="patch_84">
    <path clip-path="url(#p2244645e87)" d="M 673.015537 324.864 
L 678.918347 324.864 
L 678.918347 306.957264 
L 673.015537 306.957264 
z
" style="fill:#7f7f7f;"/>
   </g>
   <g id="patch_85">
    <path clip-path="url(#p2244645e87)" d="M 678.918347 324.864 
L 684.821157 324.864 
L 684.821157 309.344829 
L 678.918347 309.344829 
z
" style="fill:#7f7f7f;"/>
   </g>
   <g id="patch_86">
    <path clip-path="url(#p2244645e87)" d="M 684.821157 324.864 
L 690.723967 324.864 
L 690.723967 310.538611 
L 684.821157 310.538611 
z
" style="fill:#7f7f7f;"/>
   </g>
   <g id="patch_87">
    <path clip-path="url(#p2244645e87)" d="M 690.723967 324.864 
L 696.626777 324.864 
L 696.626777 316.507523 
L 690.723967 316.507523 
z
" style="fill:#7f7f7f;"/>
   </g>
   <g id="patch_88">
    <path clip-path="url(#p2244645e87)" d="M 696.626777 324.864 
L 702.529587 324.864 
L 702.529587 320.08887 
L 696.626777 320.08887 
z
" style="fill:#7f7f7f;"/>
   </g>
   <g id="patch_89">
    <path clip-path="url(#p2244645e87)" d="M 702.529587 324.864 
L 708.432397 324.864 
L 708.432397 324.864 
L 702.529587 324.864 
z
" style="fill:#7f7f7f;"/>
   </g>
   <g id="patch_90">
    <path clip-path="url(#p2244645e87)" d="M 708.432397 324.864 
L 714.335207 324.864 
L 714.335207 316.507523 
L 708.432397 316.507523 
z
" style="fill:#7f7f7f;"/>
   </g>
   <g id="patch_91">
    <path clip-path="url(#p2244645e87)" d="M 714.335207 324.864 
L 720.238017 324.864 
L 720.238017 321.282653 
L 714.335207 321.282653 
z
" style="fill:#7f7f7f;"/>
   </g>
   <g id="patch_92">
    <path clip-path="url(#p2244645e87)" d="M 720.238017 324.864 
L 726.140826 324.864 
L 726.140826 323.670218 
L 720.238017 323.670218 
z
" style="fill:#7f7f7f;"/>
   </g>
   <g id="patch_93">
    <path clip-path="url(#p2244645e87)" d="M 726.140826 324.864 
L 732.043636 324.864 
L 732.043636 321.282653 
L 726.140826 321.282653 
z
" style="fill:#7f7f7f;"/>
   </g>
   <g id="patch_94">
    <path clip-path="url(#p2244645e87)" d="M 732.043636 324.864 
L 737.946446 324.864 
L 737.946446 323.670218 
L 732.043636 323.670218 
z
" style="fill:#7f7f7f;"/>
   </g>
   <g id="patch_95">
    <path clip-path="url(#p2244645e87)" d="M 737.946446 324.864 
L 743.849256 324.864 
L 743.849256 323.670218 
L 737.946446 323.670218 
z
" style="fill:#7f7f7f;"/>
   </g>
   <g id="patch_96">
    <path clip-path="url(#p2244645e87)" d="M 743.849256 324.864 
L 749.752066 324.864 
L 749.752066 323.670218 
L 743.849256 323.670218 
z
" style="fill:#7f7f7f;"/>
   </g>
   <g id="patch_97">
    <path clip-path="url(#p2244645e87)" d="M 749.752066 324.864 
L 755.654876 324.864 
L 755.654876 322.476435 
L 749.752066 322.476435 
z
" style="fill:#7f7f7f;"/>
   </g>
   <g id="patch_98">
    <path clip-path="url(#p2244645e87)" d="M 755.654876 324.864 
L 761.557686 324.864 
L 761.557686 324.864 
L 755.654876 324.864 
z
" style="fill:#7f7f7f;"/>
   </g>
   <g id="patch_99">
    <path clip-path="url(#p2244645e87)" d="M 761.557686 324.864 
L 767.460496 324.864 
L 767.460496 323.670218 
L 761.557686 323.670218 
z
" style="fill:#7f7f7f;"/>
   </g>
   <g id="patch_100">
    <path clip-path="url(#p2244645e87)" d="M 767.460496 324.864 
L 773.363306 324.864 
L 773.363306 324.864 
L 767.460496 324.864 
z
" style="fill:#7f7f7f;"/>
   </g>
   <g id="patch_101">
    <path clip-path="url(#p2244645e87)" d="M 773.363306 324.864 
L 779.266116 324.864 
L 779.266116 324.864 
L 773.363306 324.864 
z
" style="fill:#7f7f7f;"/>
   </g>
   <g id="patch_102">
    <path clip-path="url(#p2244645e87)" d="M 779.266116 324.864 
L 785.168926 324.864 
L 785.168926 323.670218 
L 779.266116 323.670218 
z
" style="fill:#7f7f7f;"/>
   </g>
   <g id="patch_103">
    <path clip-path="url(#p2244645e87)" d="M 785.168926 324.864 
L 791.071736 324.864 
L 791.071736 324.864 
L 785.168926 324.864 
z
" style="fill:#7f7f7f;"/>
   </g>
   <g id="patch_104">
    <path clip-path="url(#p2244645e87)" d="M 791.071736 324.864 
L 796.974545 324.864 
L 796.974545 324.864 
L 791.071736 324.864 
z
" style="fill:#7f7f7f;"/>
   </g>
   <g id="patch_105">
    <path clip-path="url(#p2244645e87)" d="M 796.974545 324.864 
L 802.877355 324.864 
L 802.877355 324.864 
L 796.974545 324.864 
z
" style="fill:#7f7f7f;"/>
   </g>
   <g id="patch_106">
    <path clip-path="url(#p2244645e87)" d="M 802.877355 324.864 
L 808.780165 324.864 
L 808.780165 324.864 
L 802.877355 324.864 
z
" style="fill:#7f7f7f;"/>
   </g>
   <g id="patch_107">
    <path clip-path="url(#p2244645e87)" d="M 808.780165 324.864 
L 814.682975 324.864 
L 814.682975 323.670218 
L 808.780165 323.670218 
z
" style="fill:#7f7f7f;"/>
   </g>
   <g id="matplotlib.axis_3">
    <g id="xtick_8">
     <g id="line2d_18">
      <g>
       <use style="stroke:#000000;stroke-width:0.8;" x="559.382696" xlink:href="#mecd939b4ac" y="324.864"/>
      </g>
     </g>
     <g id="text_20">
      <!-- 0.04 -->
      <g transform="translate(548.249883 339.462437)scale(0.1 -0.1)">
       <use xlink:href="#DejaVuSans-48"/>
       <use x="63.623047" xlink:href="#DejaVuSans-46"/>
       <use x="95.410156" xlink:href="#DejaVuSans-48"/>
       <use x="159.033203" xlink:href="#DejaVuSans-52"/>
      </g>
     </g>
    </g>
    <g id="xtick_9">
     <g id="line2d_19">
      <g>
       <use style="stroke:#000000;stroke-width:0.8;" x="614.006024" xlink:href="#mecd939b4ac" y="324.864"/>
      </g>
     </g>
     <g id="text_21">
      <!-- 0.06 -->
      <g transform="translate(602.873212 339.462437)scale(0.1 -0.1)">
       <use xlink:href="#DejaVuSans-48"/>
       <use x="63.623047" xlink:href="#DejaVuSans-46"/>
       <use x="95.410156" xlink:href="#DejaVuSans-48"/>
       <use x="159.033203" xlink:href="#DejaVuSans-54"/>
      </g>
     </g>
    </g>
    <g id="xtick_10">
     <g id="line2d_20">
      <g>
       <use style="stroke:#000000;stroke-width:0.8;" x="668.629353" xlink:href="#mecd939b4ac" y="324.864"/>
      </g>
     </g>
     <g id="text_22">
      <!-- 0.08 -->
      <g transform="translate(657.49654 339.462437)scale(0.1 -0.1)">
       <use xlink:href="#DejaVuSans-48"/>
       <use x="63.623047" xlink:href="#DejaVuSans-46"/>
       <use x="95.410156" xlink:href="#DejaVuSans-48"/>
       <use x="159.033203" xlink:href="#DejaVuSans-56"/>
      </g>
     </g>
    </g>
    <g id="xtick_11">
     <g id="line2d_21">
      <g>
       <use style="stroke:#000000;stroke-width:0.8;" x="723.252681" xlink:href="#mecd939b4ac" y="324.864"/>
      </g>
     </g>
     <g id="text_23">
      <!-- 0.10 -->
      <g transform="translate(712.119869 339.462437)scale(0.1 -0.1)">
       <use xlink:href="#DejaVuSans-48"/>
       <use x="63.623047" xlink:href="#DejaVuSans-46"/>
       <use x="95.410156" xlink:href="#DejaVuSans-49"/>
       <use x="159.033203" xlink:href="#DejaVuSans-48"/>
      </g>
     </g>
    </g>
    <g id="xtick_12">
     <g id="line2d_22">
      <g>
       <use style="stroke:#000000;stroke-width:0.8;" x="777.87601" xlink:href="#mecd939b4ac" y="324.864"/>
      </g>
     </g>
     <g id="text_24">
      <!-- 0.12 -->
      <g transform="translate(766.743197 339.462437)scale(0.1 -0.1)">
       <use xlink:href="#DejaVuSans-48"/>
       <use x="63.623047" xlink:href="#DejaVuSans-46"/>
       <use x="95.410156" xlink:href="#DejaVuSans-49"/>
       <use x="159.033203" xlink:href="#DejaVuSans-50"/>
      </g>
     </g>
    </g>
   </g>
   <g id="matplotlib.axis_4">
    <g id="ytick_10">
     <g id="line2d_23">
      <g>
       <use style="stroke:#000000;stroke-width:0.8;" x="504.785455" xlink:href="#m02bfd10797" y="324.864"/>
      </g>
     </g>
     <g id="text_25">
      <!-- 0 -->
      <g transform="translate(491.422955 328.663219)scale(0.1 -0.1)">
       <use xlink:href="#DejaVuSans-48"/>
      </g>
     </g>
    </g>
    <g id="ytick_11">
     <g id="line2d_24">
      <g>
       <use style="stroke:#000000;stroke-width:0.8;" x="504.785455" xlink:href="#m02bfd10797" y="295.01944"/>
      </g>
     </g>
     <g id="text_26">
      <!-- 25 -->
      <g transform="translate(485.060455 298.818659)scale(0.1 -0.1)">
       <use xlink:href="#DejaVuSans-50"/>
       <use x="63.623047" xlink:href="#DejaVuSans-53"/>
      </g>
     </g>
    </g>
    <g id="ytick_12">
     <g id="line2d_25">
      <g>
       <use style="stroke:#000000;stroke-width:0.8;" x="504.785455" xlink:href="#m02bfd10797" y="265.174881"/>
      </g>
     </g>
     <g id="text_27">
      <!-- 50 -->
      <g transform="translate(485.060455 268.9741)scale(0.1 -0.1)">
       <use xlink:href="#DejaVuSans-53"/>
       <use x="63.623047" xlink:href="#DejaVuSans-48"/>
      </g>
     </g>
    </g>
    <g id="ytick_13">
     <g id="line2d_26">
      <g>
       <use style="stroke:#000000;stroke-width:0.8;" x="504.785455" xlink:href="#m02bfd10797" y="235.330321"/>
      </g>
     </g>
     <g id="text_28">
      <!-- 75 -->
      <g transform="translate(485.060455 239.12954)scale(0.1 -0.1)">
       <use xlink:href="#DejaVuSans-55"/>
       <use x="63.623047" xlink:href="#DejaVuSans-53"/>
      </g>
     </g>
    </g>
    <g id="ytick_14">
     <g id="line2d_27">
      <g>
       <use style="stroke:#000000;stroke-width:0.8;" x="504.785455" xlink:href="#m02bfd10797" y="205.485762"/>
      </g>
     </g>
     <g id="text_29">
      <!-- 100 -->
      <g transform="translate(478.697955 209.28498)scale(0.1 -0.1)">
       <use xlink:href="#DejaVuSans-49"/>
       <use x="63.623047" xlink:href="#DejaVuSans-48"/>
       <use x="127.246094" xlink:href="#DejaVuSans-48"/>
      </g>
     </g>
    </g>
    <g id="ytick_15">
     <g id="line2d_28">
      <g>
       <use style="stroke:#000000;stroke-width:0.8;" x="504.785455" xlink:href="#m02bfd10797" y="175.641202"/>
      </g>
     </g>
     <g id="text_30">
      <!-- 125 -->
      <g transform="translate(478.697955 179.440421)scale(0.1 -0.1)">
       <use xlink:href="#DejaVuSans-49"/>
       <use x="63.623047" xlink:href="#DejaVuSans-50"/>
       <use x="127.246094" xlink:href="#DejaVuSans-53"/>
      </g>
     </g>
    </g>
    <g id="ytick_16">
     <g id="line2d_29">
      <g>
       <use style="stroke:#000000;stroke-width:0.8;" x="504.785455" xlink:href="#m02bfd10797" y="145.796642"/>
      </g>
     </g>
     <g id="text_31">
      <!-- 150 -->
      <g transform="translate(478.697955 149.595861)scale(0.1 -0.1)">
       <use xlink:href="#DejaVuSans-49"/>
       <use x="63.623047" xlink:href="#DejaVuSans-53"/>
       <use x="127.246094" xlink:href="#DejaVuSans-48"/>
      </g>
     </g>
    </g>
    <g id="ytick_17">
     <g id="line2d_30">
      <g>
       <use style="stroke:#000000;stroke-width:0.8;" x="504.785455" xlink:href="#m02bfd10797" y="115.952083"/>
      </g>
     </g>
     <g id="text_32">
      <!-- 175 -->
      <g transform="translate(478.697955 119.751302)scale(0.1 -0.1)">
       <use xlink:href="#DejaVuSans-49"/>
       <use x="63.623047" xlink:href="#DejaVuSans-55"/>
       <use x="127.246094" xlink:href="#DejaVuSans-53"/>
      </g>
     </g>
    </g>
    <g id="ytick_18">
     <g id="line2d_31">
      <g>
       <use style="stroke:#000000;stroke-width:0.8;" x="504.785455" xlink:href="#m02bfd10797" y="86.107523"/>
      </g>
     </g>
     <g id="text_33">
      <!-- 200 -->
      <g transform="translate(478.697955 89.906742)scale(0.1 -0.1)">
       <use xlink:href="#DejaVuSans-50"/>
       <use x="63.623047" xlink:href="#DejaVuSans-48"/>
       <use x="127.246094" xlink:href="#DejaVuSans-48"/>
      </g>
     </g>
    </g>
   </g>
   <g id="line2d_32">
    <path clip-path="url(#p2244645e87)" d="M 544.155011 324.864 
L 544.155011 82.944 
" style="fill:none;stroke:#00008b;stroke-linecap:square;stroke-width:1.5;"/>
   </g>
   <g id="patch_108">
    <path d="M 504.785455 324.864 
L 504.785455 82.944 
" style="fill:none;stroke:#000000;stroke-linecap:square;stroke-linejoin:miter;stroke-width:0.8;"/>
   </g>
   <g id="patch_109">
    <path d="M 829.44 324.864 
L 829.44 82.944 
" style="fill:none;stroke:#000000;stroke-linecap:square;stroke-linejoin:miter;stroke-width:0.8;"/>
   </g>
   <g id="patch_110">
    <path d="M 504.785455 324.864 
L 829.44 324.864 
" style="fill:none;stroke:#000000;stroke-linecap:square;stroke-linejoin:miter;stroke-width:0.8;"/>
   </g>
   <g id="patch_111">
    <path d="M 504.785455 82.944 
L 829.44 82.944 
" style="fill:none;stroke:#000000;stroke-linecap:square;stroke-linejoin:miter;stroke-width:0.8;"/>
   </g>
   <g id="text_34">
    <!-- B -->
    <g transform="translate(508.032 92.961637)scale(0.1 -0.1)">
     <defs>
      <path d="M 19.671875 34.8125 
L 19.671875 8.109375 
L 35.5 8.109375 
Q 43.453125 8.109375 47.28125 11.40625 
Q 51.125 14.703125 51.125 21.484375 
Q 51.125 28.328125 47.28125 31.5625 
Q 43.453125 34.8125 35.5 34.8125 
z
M 19.671875 64.796875 
L 19.671875 42.828125 
L 34.28125 42.828125 
Q 41.5 42.828125 45.03125 45.53125 
Q 48.578125 48.25 48.578125 53.8125 
Q 48.578125 59.328125 45.03125 62.0625 
Q 41.5 64.796875 34.28125 64.796875 
z
M 9.8125 72.90625 
L 35.015625 72.90625 
Q 46.296875 72.90625 52.390625 68.21875 
Q 58.5 63.53125 58.5 54.890625 
Q 58.5 48.1875 55.375 44.234375 
Q 52.25 40.28125 46.1875 39.3125 
Q 53.46875 37.75 57.5 32.78125 
Q 61.53125 27.828125 61.53125 20.40625 
Q 61.53125 10.640625 54.890625 5.3125 
Q 48.25 0 35.984375 0 
L 9.8125 0 
z
" id="DejaVuSans-66"/>
     </defs>
     <use xlink:href="#DejaVuSans-66"/>
    </g>
   </g>
   <g id="text_35">
    <!-- $p$ = 0.17 -->
    <g transform="translate(667.112727 203.904)scale(0.1 -0.1)">
     <use transform="translate(0 0.78125)" xlink:href="#DejaVuSans-Oblique-112"/>
     <use transform="translate(63.476562 0.78125)" xlink:href="#DejaVuSans-32"/>
     <use transform="translate(95.263672 0.78125)" xlink:href="#DejaVuSans-61"/>
     <use transform="translate(179.052734 0.78125)" xlink:href="#DejaVuSans-32"/>
     <use transform="translate(210.839844 0.78125)" xlink:href="#DejaVuSans-48"/>
     <use transform="translate(274.462891 0.78125)" xlink:href="#DejaVuSans-46"/>
     <use transform="translate(306.25 0.78125)" xlink:href="#DejaVuSans-49"/>
     <use transform="translate(369.873047 0.78125)" xlink:href="#DejaVuSans-55"/>
    </g>
   </g>
   <g id="text_36">
    <!-- Max $p$ -->
    <g transform="translate(648.932727 76.944)scale(0.12 -0.12)">
     <defs>
      <path d="M 34.28125 27.484375 
Q 23.390625 27.484375 19.1875 25 
Q 14.984375 22.515625 14.984375 16.5 
Q 14.984375 11.71875 18.140625 8.90625 
Q 21.296875 6.109375 26.703125 6.109375 
Q 34.1875 6.109375 38.703125 11.40625 
Q 43.21875 16.703125 43.21875 25.484375 
L 43.21875 27.484375 
z
M 52.203125 31.203125 
L 52.203125 0 
L 43.21875 0 
L 43.21875 8.296875 
Q 40.140625 3.328125 35.546875 0.953125 
Q 30.953125 -1.421875 24.3125 -1.421875 
Q 15.921875 -1.421875 10.953125 3.296875 
Q 6 8.015625 6 15.921875 
Q 6 25.140625 12.171875 29.828125 
Q 18.359375 34.515625 30.609375 34.515625 
L 43.21875 34.515625 
L 43.21875 35.40625 
Q 43.21875 41.609375 39.140625 45 
Q 35.0625 48.390625 27.6875 48.390625 
Q 23 48.390625 18.546875 47.265625 
Q 14.109375 46.140625 10.015625 43.890625 
L 10.015625 52.203125 
Q 14.9375 54.109375 19.578125 55.046875 
Q 24.21875 56 28.609375 56 
Q 40.484375 56 46.34375 49.84375 
Q 52.203125 43.703125 52.203125 31.203125 
z
" id="DejaVuSans-97"/>
      <path d="M 54.890625 54.6875 
L 35.109375 28.078125 
L 55.90625 0 
L 45.3125 0 
L 29.390625 21.484375 
L 13.484375 0 
L 2.875 0 
L 24.125 28.609375 
L 4.6875 54.6875 
L 15.28125 54.6875 
L 29.78125 35.203125 
L 44.28125 54.6875 
z
" id="DejaVuSans-120"/>
     </defs>
     <use transform="translate(0 0.09375)" xlink:href="#DejaVuSans-77"/>
     <use transform="translate(86.279297 0.09375)" xlink:href="#DejaVuSans-97"/>
     <use transform="translate(147.558594 0.09375)" xlink:href="#DejaVuSans-120"/>
     <use transform="translate(206.738281 0.09375)" xlink:href="#DejaVuSans-32"/>
     <use transform="translate(238.525391 0.09375)" xlink:href="#DejaVuSans-Oblique-112"/>
    </g>
   </g>
  </g>
  <g id="axes_3">
   <g id="patch_112">
    <path d="M 115.2 615.168 
L 439.854545 615.168 
L 439.854545 373.248 
L 115.2 373.248 
z
" style="fill:#ffffff;"/>
   </g>
   <g id="patch_113">
    <path clip-path="url(#p5dfa690a4e)" d="M 129.957025 615.168 
L 135.859835 615.168 
L 135.859835 613.611243 
L 129.957025 613.611243 
z
" style="fill:#7f7f7f;"/>
   </g>
   <g id="patch_114">
    <path clip-path="url(#p5dfa690a4e)" d="M 135.859835 615.168 
L 141.762645 615.168 
L 141.762645 613.611243 
L 135.859835 613.611243 
z
" style="fill:#7f7f7f;"/>
   </g>
   <g id="patch_115">
    <path clip-path="url(#p5dfa690a4e)" d="M 141.762645 615.168 
L 147.665455 615.168 
L 147.665455 615.168 
L 141.762645 615.168 
z
" style="fill:#7f7f7f;"/>
   </g>
   <g id="patch_116">
    <path clip-path="url(#p5dfa690a4e)" d="M 147.665455 615.168 
L 153.568264 615.168 
L 153.568264 613.611243 
L 147.665455 613.611243 
z
" style="fill:#7f7f7f;"/>
   </g>
   <g id="patch_117">
    <path clip-path="url(#p5dfa690a4e)" d="M 153.568264 615.168 
L 159.471074 615.168 
L 159.471074 613.611243 
L 153.568264 613.611243 
z
" style="fill:#7f7f7f;"/>
   </g>
   <g id="patch_118">
    <path clip-path="url(#p5dfa690a4e)" d="M 159.471074 615.168 
L 165.373884 615.168 
L 165.373884 610.49773 
L 159.471074 610.49773 
z
" style="fill:#7f7f7f;"/>
   </g>
   <g id="patch_119">
    <path clip-path="url(#p5dfa690a4e)" d="M 165.373884 615.168 
L 171.276694 615.168 
L 171.276694 612.054486 
L 165.373884 612.054486 
z
" style="fill:#7f7f7f;"/>
   </g>
   <g id="patch_120">
    <path clip-path="url(#p5dfa690a4e)" d="M 171.276694 615.168 
L 177.179504 615.168 
L 177.179504 612.054486 
L 171.276694 612.054486 
z
" style="fill:#7f7f7f;"/>
   </g>
   <g id="patch_121">
    <path clip-path="url(#p5dfa690a4e)" d="M 177.179504 615.168 
L 183.082314 615.168 
L 183.082314 613.611243 
L 177.179504 613.611243 
z
" style="fill:#7f7f7f;"/>
   </g>
   <g id="patch_122">
    <path clip-path="url(#p5dfa690a4e)" d="M 183.082314 615.168 
L 188.985124 615.168 
L 188.985124 607.384216 
L 183.082314 607.384216 
z
" style="fill:#7f7f7f;"/>
   </g>
   <g id="patch_123">
    <path clip-path="url(#p5dfa690a4e)" d="M 188.985124 615.168 
L 194.887934 615.168 
L 194.887934 608.940973 
L 188.985124 608.940973 
z
" style="fill:#7f7f7f;"/>
   </g>
   <g id="patch_124">
    <path clip-path="url(#p5dfa690a4e)" d="M 194.887934 615.168 
L 200.790744 615.168 
L 200.790744 601.157189 
L 194.887934 601.157189 
z
" style="fill:#7f7f7f;"/>
   </g>
   <g id="patch_125">
    <path clip-path="url(#p5dfa690a4e)" d="M 200.790744 615.168 
L 206.693554 615.168 
L 206.693554 599.600432 
L 200.790744 599.600432 
z
" style="fill:#7f7f7f;"/>
   </g>
   <g id="patch_126">
    <path clip-path="url(#p5dfa690a4e)" d="M 206.693554 615.168 
L 212.596364 615.168 
L 212.596364 601.157189 
L 206.693554 601.157189 
z
" style="fill:#7f7f7f;"/>
   </g>
   <g id="patch_127">
    <path clip-path="url(#p5dfa690a4e)" d="M 212.596364 615.168 
L 218.499174 615.168 
L 218.499174 596.486919 
L 212.596364 596.486919 
z
" style="fill:#7f7f7f;"/>
   </g>
   <g id="patch_128">
    <path clip-path="url(#p5dfa690a4e)" d="M 218.499174 615.168 
L 224.401983 615.168 
L 224.401983 587.146378 
L 218.499174 587.146378 
z
" style="fill:#7f7f7f;"/>
   </g>
   <g id="patch_129">
    <path clip-path="url(#p5dfa690a4e)" d="M 224.401983 615.168 
L 230.304793 615.168 
L 230.304793 576.249081 
L 224.401983 576.249081 
z
" style="fill:#7f7f7f;"/>
   </g>
   <g id="patch_130">
    <path clip-path="url(#p5dfa690a4e)" d="M 230.304793 615.168 
L 236.207603 615.168 
L 236.207603 588.703135 
L 230.304793 588.703135 
z
" style="fill:#7f7f7f;"/>
   </g>
   <g id="patch_131">
    <path clip-path="url(#p5dfa690a4e)" d="M 236.207603 615.168 
L 242.110413 615.168 
L 242.110413 556.011243 
L 236.207603 556.011243 
z
" style="fill:#7f7f7f;"/>
   </g>
   <g id="patch_132">
    <path clip-path="url(#p5dfa690a4e)" d="M 242.110413 615.168 
L 248.013223 615.168 
L 248.013223 549.784216 
L 242.110413 549.784216 
z
" style="fill:#7f7f7f;"/>
   </g>
   <g id="patch_133">
    <path clip-path="url(#p5dfa690a4e)" d="M 248.013223 615.168 
L 253.916033 615.168 
L 253.916033 546.670703 
L 248.013223 546.670703 
z
" style="fill:#7f7f7f;"/>
   </g>
   <g id="patch_134">
    <path clip-path="url(#p5dfa690a4e)" d="M 253.916033 615.168 
L 259.818843 615.168 
L 259.818843 517.092324 
L 253.916033 517.092324 
z
" style="fill:#7f7f7f;"/>
   </g>
   <g id="patch_135">
    <path clip-path="url(#p5dfa690a4e)" d="M 259.818843 615.168 
L 265.721653 615.168 
L 265.721653 499.968 
L 259.818843 499.968 
z
" style="fill:#7f7f7f;"/>
   </g>
   <g id="patch_136">
    <path clip-path="url(#p5dfa690a4e)" d="M 265.721653 615.168 
L 271.624463 615.168 
L 271.624463 489.070703 
L 265.721653 489.070703 
z
" style="fill:#7f7f7f;"/>
   </g>
   <g id="patch_137">
    <path clip-path="url(#p5dfa690a4e)" d="M 271.624463 615.168 
L 277.527273 615.168 
L 277.527273 476.616649 
L 271.624463 476.616649 
z
" style="fill:#7f7f7f;"/>
   </g>
   <g id="patch_138">
    <path clip-path="url(#p5dfa690a4e)" d="M 277.527273 615.168 
L 283.430083 615.168 
L 283.430083 492.184216 
L 277.527273 492.184216 
z
" style="fill:#7f7f7f;"/>
   </g>
   <g id="patch_139">
    <path clip-path="url(#p5dfa690a4e)" d="M 283.430083 615.168 
L 289.332893 615.168 
L 289.332893 442.368 
L 283.430083 442.368 
z
" style="fill:#7f7f7f;"/>
   </g>
   <g id="patch_140">
    <path clip-path="url(#p5dfa690a4e)" d="M 289.332893 615.168 
L 295.235702 615.168 
L 295.235702 425.243676 
L 289.332893 425.243676 
z
" style="fill:#7f7f7f;"/>
   </g>
   <g id="patch_141">
    <path clip-path="url(#p5dfa690a4e)" d="M 295.235702 615.168 
L 301.138512 615.168 
L 301.138512 431.470703 
L 295.235702 431.470703 
z
" style="fill:#7f7f7f;"/>
   </g>
   <g id="patch_142">
    <path clip-path="url(#p5dfa690a4e)" d="M 301.138512 615.168 
L 307.041322 615.168 
L 307.041322 423.686919 
L 301.138512 423.686919 
z
" style="fill:#7f7f7f;"/>
   </g>
   <g id="patch_143">
    <path clip-path="url(#p5dfa690a4e)" d="M 307.041322 615.168 
L 312.944132 615.168 
L 312.944132 408.119351 
L 307.041322 408.119351 
z
" style="fill:#7f7f7f;"/>
   </g>
   <g id="patch_144">
    <path clip-path="url(#p5dfa690a4e)" d="M 312.944132 615.168 
L 318.846942 615.168 
L 318.846942 384.768 
L 312.944132 384.768 
z
" style="fill:#7f7f7f;"/>
   </g>
   <g id="patch_145">
    <path clip-path="url(#p5dfa690a4e)" d="M 318.846942 615.168 
L 324.749752 615.168 
L 324.749752 403.449081 
L 318.846942 403.449081 
z
" style="fill:#7f7f7f;"/>
   </g>
   <g id="patch_146">
    <path clip-path="url(#p5dfa690a4e)" d="M 324.749752 615.168 
L 330.652562 615.168 
L 330.652562 409.676108 
L 324.749752 409.676108 
z
" style="fill:#7f7f7f;"/>
   </g>
   <g id="patch_147">
    <path clip-path="url(#p5dfa690a4e)" d="M 330.652562 615.168 
L 336.555372 615.168 
L 336.555372 420.573405 
L 330.652562 420.573405 
z
" style="fill:#7f7f7f;"/>
   </g>
   <g id="patch_148">
    <path clip-path="url(#p5dfa690a4e)" d="M 336.555372 615.168 
L 342.458182 615.168 
L 342.458182 431.470703 
L 336.555372 431.470703 
z
" style="fill:#7f7f7f;"/>
   </g>
   <g id="patch_149">
    <path clip-path="url(#p5dfa690a4e)" d="M 342.458182 615.168 
L 348.360992 615.168 
L 348.360992 451.708541 
L 342.458182 451.708541 
z
" style="fill:#7f7f7f;"/>
   </g>
   <g id="patch_150">
    <path clip-path="url(#p5dfa690a4e)" d="M 348.360992 615.168 
L 354.263802 615.168 
L 354.263802 478.173405 
L 348.360992 478.173405 
z
" style="fill:#7f7f7f;"/>
   </g>
   <g id="patch_151">
    <path clip-path="url(#p5dfa690a4e)" d="M 354.263802 615.168 
L 360.166612 615.168 
L 360.166612 501.524757 
L 354.263802 501.524757 
z
" style="fill:#7f7f7f;"/>
   </g>
   <g id="patch_152">
    <path clip-path="url(#p5dfa690a4e)" d="M 360.166612 615.168 
L 366.069421 615.168 
L 366.069421 493.740973 
L 360.166612 493.740973 
z
" style="fill:#7f7f7f;"/>
   </g>
   <g id="patch_153">
    <path clip-path="url(#p5dfa690a4e)" d="M 366.069421 615.168 
L 371.972231 615.168 
L 371.972231 506.195027 
L 366.069421 506.195027 
z
" style="fill:#7f7f7f;"/>
   </g>
   <g id="patch_154">
    <path clip-path="url(#p5dfa690a4e)" d="M 371.972231 615.168 
L 377.875041 615.168 
L 377.875041 535.773405 
L 371.972231 535.773405 
z
" style="fill:#7f7f7f;"/>
   </g>
   <g id="patch_155">
    <path clip-path="url(#p5dfa690a4e)" d="M 377.875041 615.168 
L 383.777851 615.168 
L 383.777851 559.124757 
L 377.875041 559.124757 
z
" style="fill:#7f7f7f;"/>
   </g>
   <g id="patch_156">
    <path clip-path="url(#p5dfa690a4e)" d="M 383.777851 615.168 
L 389.680661 615.168 
L 389.680661 557.568 
L 383.777851 557.568 
z
" style="fill:#7f7f7f;"/>
   </g>
   <g id="patch_157">
    <path clip-path="url(#p5dfa690a4e)" d="M 389.680661 615.168 
L 395.583471 615.168 
L 395.583471 579.362595 
L 389.680661 579.362595 
z
" style="fill:#7f7f7f;"/>
   </g>
   <g id="patch_158">
    <path clip-path="url(#p5dfa690a4e)" d="M 395.583471 615.168 
L 401.486281 615.168 
L 401.486281 588.703135 
L 395.583471 588.703135 
z
" style="fill:#7f7f7f;"/>
   </g>
   <g id="patch_159">
    <path clip-path="url(#p5dfa690a4e)" d="M 401.486281 615.168 
L 407.389091 615.168 
L 407.389091 602.713946 
L 401.486281 602.713946 
z
" style="fill:#7f7f7f;"/>
   </g>
   <g id="patch_160">
    <path clip-path="url(#p5dfa690a4e)" d="M 407.389091 615.168 
L 413.291901 615.168 
L 413.291901 605.827459 
L 407.389091 605.827459 
z
" style="fill:#7f7f7f;"/>
   </g>
   <g id="patch_161">
    <path clip-path="url(#p5dfa690a4e)" d="M 413.291901 615.168 
L 419.194711 615.168 
L 419.194711 605.827459 
L 413.291901 605.827459 
z
" style="fill:#7f7f7f;"/>
   </g>
   <g id="patch_162">
    <path clip-path="url(#p5dfa690a4e)" d="M 419.194711 615.168 
L 425.097521 615.168 
L 425.097521 607.384216 
L 419.194711 607.384216 
z
" style="fill:#7f7f7f;"/>
   </g>
   <g id="matplotlib.axis_5">
    <g id="xtick_13">
     <g id="line2d_33">
      <g>
       <use style="stroke:#000000;stroke-width:0.8;" x="125.619246" xlink:href="#mecd939b4ac" y="615.168"/>
      </g>
     </g>
     <g id="text_37">
      <!-- 0.005 -->
      <g transform="translate(107.11534 629.766437)scale(0.1 -0.1)">
       <defs>
        <path d="M 10.59375 35.5 
L 73.1875 35.5 
L 73.1875 27.203125 
L 10.59375 27.203125 
z
" id="DejaVuSans-8722"/>
       </defs>
       <use xlink:href="#DejaVuSans-8722"/>
       <use x="83.789062" xlink:href="#DejaVuSans-48"/>
       <use x="147.412109" xlink:href="#DejaVuSans-46"/>
       <use x="179.199219" xlink:href="#DejaVuSans-48"/>
       <use x="242.822266" xlink:href="#DejaVuSans-48"/>
       <use x="306.445312" xlink:href="#DejaVuSans-53"/>
      </g>
     </g>
    </g>
    <g id="xtick_14">
     <g id="line2d_34">
      <g>
       <use style="stroke:#000000;stroke-width:0.8;" x="179.62536" xlink:href="#mecd939b4ac" y="615.168"/>
      </g>
     </g>
     <g id="text_38">
      <!-- 0.000 -->
      <g transform="translate(165.311298 629.766437)scale(0.1 -0.1)">
       <use xlink:href="#DejaVuSans-48"/>
       <use x="63.623047" xlink:href="#DejaVuSans-46"/>
       <use x="95.410156" xlink:href="#DejaVuSans-48"/>
       <use x="159.033203" xlink:href="#DejaVuSans-48"/>
       <use x="222.65625" xlink:href="#DejaVuSans-48"/>
      </g>
     </g>
    </g>
    <g id="xtick_15">
     <g id="line2d_35">
      <g>
       <use style="stroke:#000000;stroke-width:0.8;" x="233.631475" xlink:href="#mecd939b4ac" y="615.168"/>
      </g>
     </g>
     <g id="text_39">
      <!-- 0.005 -->
      <g transform="translate(219.317412 629.766437)scale(0.1 -0.1)">
       <use xlink:href="#DejaVuSans-48"/>
       <use x="63.623047" xlink:href="#DejaVuSans-46"/>
       <use x="95.410156" xlink:href="#DejaVuSans-48"/>
       <use x="159.033203" xlink:href="#DejaVuSans-48"/>
       <use x="222.65625" xlink:href="#DejaVuSans-53"/>
      </g>
     </g>
    </g>
    <g id="xtick_16">
     <g id="line2d_36">
      <g>
       <use style="stroke:#000000;stroke-width:0.8;" x="287.637589" xlink:href="#mecd939b4ac" y="615.168"/>
      </g>
     </g>
     <g id="text_40">
      <!-- 0.010 -->
      <g transform="translate(273.323526 629.766437)scale(0.1 -0.1)">
       <use xlink:href="#DejaVuSans-48"/>
       <use x="63.623047" xlink:href="#DejaVuSans-46"/>
       <use x="95.410156" xlink:href="#DejaVuSans-48"/>
       <use x="159.033203" xlink:href="#DejaVuSans-49"/>
       <use x="222.65625" xlink:href="#DejaVuSans-48"/>
      </g>
     </g>
    </g>
    <g id="xtick_17">
     <g id="line2d_37">
      <g>
       <use style="stroke:#000000;stroke-width:0.8;" x="341.643703" xlink:href="#mecd939b4ac" y="615.168"/>
      </g>
     </g>
     <g id="text_41">
      <!-- 0.015 -->
      <g transform="translate(327.329641 629.766437)scale(0.1 -0.1)">
       <use xlink:href="#DejaVuSans-48"/>
       <use x="63.623047" xlink:href="#DejaVuSans-46"/>
       <use x="95.410156" xlink:href="#DejaVuSans-48"/>
       <use x="159.033203" xlink:href="#DejaVuSans-49"/>
       <use x="222.65625" xlink:href="#DejaVuSans-53"/>
      </g>
     </g>
    </g>
    <g id="xtick_18">
     <g id="line2d_38">
      <g>
       <use style="stroke:#000000;stroke-width:0.8;" x="395.649817" xlink:href="#mecd939b4ac" y="615.168"/>
      </g>
     </g>
     <g id="text_42">
      <!-- 0.020 -->
      <g transform="translate(381.335755 629.766437)scale(0.1 -0.1)">
       <use xlink:href="#DejaVuSans-48"/>
       <use x="63.623047" xlink:href="#DejaVuSans-46"/>
       <use x="95.410156" xlink:href="#DejaVuSans-48"/>
       <use x="159.033203" xlink:href="#DejaVuSans-50"/>
       <use x="222.65625" xlink:href="#DejaVuSans-48"/>
      </g>
     </g>
    </g>
   </g>
   <g id="matplotlib.axis_6">
    <g id="ytick_19">
     <g id="line2d_39">
      <g>
       <use style="stroke:#000000;stroke-width:0.8;" x="115.2" xlink:href="#m02bfd10797" y="615.168"/>
      </g>
     </g>
     <g id="text_43">
      <!-- 0 -->
      <g transform="translate(101.8375 618.967219)scale(0.1 -0.1)">
       <use xlink:href="#DejaVuSans-48"/>
      </g>
     </g>
    </g>
    <g id="ytick_20">
     <g id="line2d_40">
      <g>
       <use style="stroke:#000000;stroke-width:0.8;" x="115.2" xlink:href="#m02bfd10797" y="584.032865"/>
      </g>
     </g>
     <g id="text_44">
      <!-- 20 -->
      <g transform="translate(95.475 587.832084)scale(0.1 -0.1)">
       <use xlink:href="#DejaVuSans-50"/>
       <use x="63.623047" xlink:href="#DejaVuSans-48"/>
      </g>
     </g>
    </g>
    <g id="ytick_21">
     <g id="line2d_41">
      <g>
       <use style="stroke:#000000;stroke-width:0.8;" x="115.2" xlink:href="#m02bfd10797" y="552.89773"/>
      </g>
     </g>
     <g id="text_45">
      <!-- 40 -->
      <g transform="translate(95.475 556.696948)scale(0.1 -0.1)">
       <use xlink:href="#DejaVuSans-52"/>
       <use x="63.623047" xlink:href="#DejaVuSans-48"/>
      </g>
     </g>
    </g>
    <g id="ytick_22">
     <g id="line2d_42">
      <g>
       <use style="stroke:#000000;stroke-width:0.8;" x="115.2" xlink:href="#m02bfd10797" y="521.762595"/>
      </g>
     </g>
     <g id="text_46">
      <!-- 60 -->
      <g transform="translate(95.475 525.561813)scale(0.1 -0.1)">
       <use xlink:href="#DejaVuSans-54"/>
       <use x="63.623047" xlink:href="#DejaVuSans-48"/>
      </g>
     </g>
    </g>
    <g id="ytick_23">
     <g id="line2d_43">
      <g>
       <use style="stroke:#000000;stroke-width:0.8;" x="115.2" xlink:href="#m02bfd10797" y="490.627459"/>
      </g>
     </g>
     <g id="text_47">
      <!-- 80 -->
      <g transform="translate(95.475 494.426678)scale(0.1 -0.1)">
       <use xlink:href="#DejaVuSans-56"/>
       <use x="63.623047" xlink:href="#DejaVuSans-48"/>
      </g>
     </g>
    </g>
    <g id="ytick_24">
     <g id="line2d_44">
      <g>
       <use style="stroke:#000000;stroke-width:0.8;" x="115.2" xlink:href="#m02bfd10797" y="459.492324"/>
      </g>
     </g>
     <g id="text_48">
      <!-- 100 -->
      <g transform="translate(89.1125 463.291543)scale(0.1 -0.1)">
       <use xlink:href="#DejaVuSans-49"/>
       <use x="63.623047" xlink:href="#DejaVuSans-48"/>
       <use x="127.246094" xlink:href="#DejaVuSans-48"/>
      </g>
     </g>
    </g>
    <g id="ytick_25">
     <g id="line2d_45">
      <g>
       <use style="stroke:#000000;stroke-width:0.8;" x="115.2" xlink:href="#m02bfd10797" y="428.357189"/>
      </g>
     </g>
     <g id="text_49">
      <!-- 120 -->
      <g transform="translate(89.1125 432.156408)scale(0.1 -0.1)">
       <use xlink:href="#DejaVuSans-49"/>
       <use x="63.623047" xlink:href="#DejaVuSans-50"/>
       <use x="127.246094" xlink:href="#DejaVuSans-48"/>
      </g>
     </g>
    </g>
    <g id="ytick_26">
     <g id="line2d_46">
      <g>
       <use style="stroke:#000000;stroke-width:0.8;" x="115.2" xlink:href="#m02bfd10797" y="397.222054"/>
      </g>
     </g>
     <g id="text_50">
      <!-- 140 -->
      <g transform="translate(89.1125 401.021273)scale(0.1 -0.1)">
       <use xlink:href="#DejaVuSans-49"/>
       <use x="63.623047" xlink:href="#DejaVuSans-52"/>
       <use x="127.246094" xlink:href="#DejaVuSans-48"/>
      </g>
     </g>
    </g>
   </g>
   <g id="line2d_47">
    <path clip-path="url(#p5dfa690a4e)" d="M 270.847282 615.168 
L 270.847282 373.248 
" style="fill:none;stroke:#00008b;stroke-linecap:square;stroke-width:1.5;"/>
   </g>
   <g id="patch_163">
    <path d="M 115.2 615.168 
L 115.2 373.248 
" style="fill:none;stroke:#000000;stroke-linecap:square;stroke-linejoin:miter;stroke-width:0.8;"/>
   </g>
   <g id="patch_164">
    <path d="M 439.854545 615.168 
L 439.854545 373.248 
" style="fill:none;stroke:#000000;stroke-linecap:square;stroke-linejoin:miter;stroke-width:0.8;"/>
   </g>
   <g id="patch_165">
    <path d="M 115.2 615.168 
L 439.854545 615.168 
" style="fill:none;stroke:#000000;stroke-linecap:square;stroke-linejoin:miter;stroke-width:0.8;"/>
   </g>
   <g id="patch_166">
    <path d="M 115.2 373.248 
L 439.854545 373.248 
" style="fill:none;stroke:#000000;stroke-linecap:square;stroke-linejoin:miter;stroke-width:0.8;"/>
   </g>
   <g id="text_51">
    <!-- C -->
    <g transform="translate(118.446545 383.265637)scale(0.1 -0.1)">
     <defs>
      <path d="M 64.40625 67.28125 
L 64.40625 56.890625 
Q 59.421875 61.53125 53.78125 63.8125 
Q 48.140625 66.109375 41.796875 66.109375 
Q 29.296875 66.109375 22.65625 58.46875 
Q 16.015625 50.828125 16.015625 36.375 
Q 16.015625 21.96875 22.65625 14.328125 
Q 29.296875 6.6875 41.796875 6.6875 
Q 48.140625 6.6875 53.78125 8.984375 
Q 59.421875 11.28125 64.40625 15.921875 
L 64.40625 5.609375 
Q 59.234375 2.09375 53.4375 0.328125 
Q 47.65625 -1.421875 41.21875 -1.421875 
Q 24.65625 -1.421875 15.125 8.703125 
Q 5.609375 18.84375 5.609375 36.375 
Q 5.609375 53.953125 15.125 64.078125 
Q 24.65625 74.21875 41.21875 74.21875 
Q 47.75 74.21875 53.53125 72.484375 
Q 59.328125 70.75 64.40625 67.28125 
z
" id="DejaVuSans-67"/>
     </defs>
     <use xlink:href="#DejaVuSans-67"/>
    </g>
   </g>
   <g id="text_52">
    <!-- $p$ = 0.3616 -->
    <g transform="translate(277.527273 494.208)scale(0.1 -0.1)">
     <use transform="translate(0 0.78125)" xlink:href="#DejaVuSans-Oblique-112"/>
     <use transform="translate(63.476562 0.78125)" xlink:href="#DejaVuSans-32"/>
     <use transform="translate(95.263672 0.78125)" xlink:href="#DejaVuSans-61"/>
     <use transform="translate(179.052734 0.78125)" xlink:href="#DejaVuSans-32"/>
     <use transform="translate(210.839844 0.78125)" xlink:href="#DejaVuSans-48"/>
     <use transform="translate(274.462891 0.78125)" xlink:href="#DejaVuSans-46"/>
     <use transform="translate(306.25 0.78125)" xlink:href="#DejaVuSans-51"/>
     <use transform="translate(369.873047 0.78125)" xlink:href="#DejaVuSans-54"/>
     <use transform="translate(433.496094 0.78125)" xlink:href="#DejaVuSans-49"/>
     <use transform="translate(497.119141 0.78125)" xlink:href="#DejaVuSans-54"/>
    </g>
   </g>
   <g id="text_53">
    <!-- Min $q$ -->
    <g transform="translate(261.147273 367.248)scale(0.12 -0.12)">
     <defs>
      <path d="M 41.703125 8.203125 
Q 38.09375 3.46875 33.171875 1.015625 
Q 28.265625 -1.421875 22.3125 -1.421875 
Q 14.015625 -1.421875 9.296875 4.171875 
Q 4.59375 9.765625 4.59375 19.578125 
Q 4.59375 27.484375 7.5 34.859375 
Q 10.40625 42.234375 15.828125 48.09375 
Q 19.34375 51.90625 23.90625 53.953125 
Q 28.46875 56 33.5 56 
Q 39.546875 56 43.453125 53.609375 
Q 47.359375 51.21875 49.125 46.390625 
L 50.6875 54.59375 
L 59.71875 54.59375 
L 45.125 -20.609375 
L 36.078125 -20.609375 
z
M 13.921875 20.90625 
Q 13.921875 13.671875 16.9375 9.890625 
Q 19.96875 6.109375 25.6875 6.109375 
Q 34.1875 6.109375 40.1875 14.234375 
Q 46.1875 22.359375 46.1875 33.984375 
Q 46.1875 41.015625 43.078125 44.75 
Q 39.984375 48.484375 34.1875 48.484375 
Q 29.9375 48.484375 26.3125 46.5 
Q 22.703125 44.53125 20.015625 40.71875 
Q 17.1875 36.71875 15.546875 31.34375 
Q 13.921875 25.984375 13.921875 20.90625 
z
" id="DejaVuSans-Oblique-113"/>
     </defs>
     <use transform="translate(0 0.015625)" xlink:href="#DejaVuSans-77"/>
     <use transform="translate(86.279297 0.015625)" xlink:href="#DejaVuSans-105"/>
     <use transform="translate(114.0625 0.015625)" xlink:href="#DejaVuSans-110"/>
     <use transform="translate(177.441406 0.015625)" xlink:href="#DejaVuSans-32"/>
     <use transform="translate(209.228516 0.015625)" xlink:href="#DejaVuSans-Oblique-113"/>
    </g>
   </g>
  </g>
  <g id="axes_4">
   <g id="patch_167">
    <path d="M 504.785455 615.168 
L 829.44 615.168 
L 829.44 373.248 
L 504.785455 373.248 
z
" style="fill:#ffffff;"/>
   </g>
   <g id="patch_168">
    <path clip-path="url(#p80fe521e32)" d="M 519.542479 615.168 
L 525.445289 615.168 
L 525.445289 613.402483 
L 519.542479 613.402483 
z
" style="fill:#7f7f7f;"/>
   </g>
   <g id="patch_169">
    <path clip-path="url(#p80fe521e32)" d="M 525.445289 615.168 
L 531.348099 615.168 
L 531.348099 601.926621 
L 525.445289 601.926621 
z
" style="fill:#7f7f7f;"/>
   </g>
   <g id="patch_170">
    <path clip-path="url(#p80fe521e32)" d="M 531.348099 615.168 
L 537.250909 615.168 
L 537.250909 580.740414 
L 531.348099 580.740414 
z
" style="fill:#7f7f7f;"/>
   </g>
   <g id="patch_171">
    <path clip-path="url(#p80fe521e32)" d="M 537.250909 615.168 
L 543.153719 615.168 
L 543.153719 558.671448 
L 537.250909 558.671448 
z
" style="fill:#7f7f7f;"/>
   </g>
   <g id="patch_172">
    <path clip-path="url(#p80fe521e32)" d="M 543.153719 615.168 
L 549.056529 615.168 
L 549.056529 497.761103 
L 543.153719 497.761103 
z
" style="fill:#7f7f7f;"/>
   </g>
   <g id="patch_173">
    <path clip-path="url(#p80fe521e32)" d="M 549.056529 615.168 
L 554.959339 615.168 
L 554.959339 466.864552 
L 549.056529 466.864552 
z
" style="fill:#7f7f7f;"/>
   </g>
   <g id="patch_174">
    <path clip-path="url(#p80fe521e32)" d="M 554.959339 615.168 
L 560.862149 615.168 
L 560.862149 420.961103 
L 554.959339 420.961103 
z
" style="fill:#7f7f7f;"/>
   </g>
   <g id="patch_175">
    <path clip-path="url(#p80fe521e32)" d="M 560.862149 615.168 
L 566.764959 615.168 
L 566.764959 384.768 
L 560.862149 384.768 
z
" style="fill:#7f7f7f;"/>
   </g>
   <g id="patch_176">
    <path clip-path="url(#p80fe521e32)" d="M 566.764959 615.168 
L 572.667769 615.168 
L 572.667769 395.361103 
L 566.764959 395.361103 
z
" style="fill:#7f7f7f;"/>
   </g>
   <g id="patch_177">
    <path clip-path="url(#p80fe521e32)" d="M 572.667769 615.168 
L 578.570579 615.168 
L 578.570579 392.712828 
L 572.667769 392.712828 
z
" style="fill:#7f7f7f;"/>
   </g>
   <g id="patch_178">
    <path clip-path="url(#p80fe521e32)" d="M 578.570579 615.168 
L 584.473388 615.168 
L 584.473388 443.030069 
L 578.570579 443.030069 
z
" style="fill:#7f7f7f;"/>
   </g>
   <g id="patch_179">
    <path clip-path="url(#p80fe521e32)" d="M 584.473388 615.168 
L 590.376198 615.168 
L 590.376198 462.450759 
L 584.473388 462.450759 
z
" style="fill:#7f7f7f;"/>
   </g>
   <g id="patch_180">
    <path clip-path="url(#p80fe521e32)" d="M 590.376198 615.168 
L 596.279008 615.168 
L 596.279008 476.574897 
L 590.376198 476.574897 
z
" style="fill:#7f7f7f;"/>
   </g>
   <g id="patch_181">
    <path clip-path="url(#p80fe521e32)" d="M 596.279008 615.168 
L 602.181818 615.168 
L 602.181818 525.126621 
L 596.279008 525.126621 
z
" style="fill:#7f7f7f;"/>
   </g>
   <g id="patch_182">
    <path clip-path="url(#p80fe521e32)" d="M 602.181818 615.168 
L 608.084628 615.168 
L 608.084628 525.126621 
L 602.181818 525.126621 
z
" style="fill:#7f7f7f;"/>
   </g>
   <g id="patch_183">
    <path clip-path="url(#p80fe521e32)" d="M 608.084628 615.168 
L 613.987438 615.168 
L 613.987438 541.016276 
L 608.084628 541.016276 
z
" style="fill:#7f7f7f;"/>
   </g>
   <g id="patch_184">
    <path clip-path="url(#p80fe521e32)" d="M 613.987438 615.168 
L 619.890248 615.168 
L 619.890248 556.905931 
L 613.987438 556.905931 
z
" style="fill:#7f7f7f;"/>
   </g>
   <g id="patch_185">
    <path clip-path="url(#p80fe521e32)" d="M 619.890248 615.168 
L 625.793058 615.168 
L 625.793058 570.14731 
L 619.890248 570.14731 
z
" style="fill:#7f7f7f;"/>
   </g>
   <g id="patch_186">
    <path clip-path="url(#p80fe521e32)" d="M 625.793058 615.168 
L 631.695868 615.168 
L 631.695868 582.505931 
L 625.793058 582.505931 
z
" style="fill:#7f7f7f;"/>
   </g>
   <g id="patch_187">
    <path clip-path="url(#p80fe521e32)" d="M 631.695868 615.168 
L 637.598678 615.168 
L 637.598678 584.271448 
L 631.695868 584.271448 
z
" style="fill:#7f7f7f;"/>
   </g>
   <g id="patch_188">
    <path clip-path="url(#p80fe521e32)" d="M 637.598678 615.168 
L 643.501488 615.168 
L 643.501488 592.216276 
L 637.598678 592.216276 
z
" style="fill:#7f7f7f;"/>
   </g>
   <g id="patch_189">
    <path clip-path="url(#p80fe521e32)" d="M 643.501488 615.168 
L 649.404298 615.168 
L 649.404298 602.809379 
L 643.501488 602.809379 
z
" style="fill:#7f7f7f;"/>
   </g>
   <g id="patch_190">
    <path clip-path="url(#p80fe521e32)" d="M 649.404298 615.168 
L 655.307107 615.168 
L 655.307107 604.574897 
L 649.404298 604.574897 
z
" style="fill:#7f7f7f;"/>
   </g>
   <g id="patch_191">
    <path clip-path="url(#p80fe521e32)" d="M 655.307107 615.168 
L 661.209917 615.168 
L 661.209917 608.105931 
L 655.307107 608.105931 
z
" style="fill:#7f7f7f;"/>
   </g>
   <g id="patch_192">
    <path clip-path="url(#p80fe521e32)" d="M 661.209917 615.168 
L 667.112727 615.168 
L 667.112727 608.105931 
L 661.209917 608.105931 
z
" style="fill:#7f7f7f;"/>
   </g>
   <g id="patch_193">
    <path clip-path="url(#p80fe521e32)" d="M 667.112727 615.168 
L 673.015537 615.168 
L 673.015537 611.636966 
L 667.112727 611.636966 
z
" style="fill:#7f7f7f;"/>
   </g>
   <g id="patch_194">
    <path clip-path="url(#p80fe521e32)" d="M 673.015537 615.168 
L 678.918347 615.168 
L 678.918347 608.105931 
L 673.015537 608.105931 
z
" style="fill:#7f7f7f;"/>
   </g>
   <g id="patch_195">
    <path clip-path="url(#p80fe521e32)" d="M 678.918347 615.168 
L 684.821157 615.168 
L 684.821157 609.871448 
L 678.918347 609.871448 
z
" style="fill:#7f7f7f;"/>
   </g>
   <g id="patch_196">
    <path clip-path="url(#p80fe521e32)" d="M 684.821157 615.168 
L 690.723967 615.168 
L 690.723967 611.636966 
L 684.821157 611.636966 
z
" style="fill:#7f7f7f;"/>
   </g>
   <g id="patch_197">
    <path clip-path="url(#p80fe521e32)" d="M 690.723967 615.168 
L 696.626777 615.168 
L 696.626777 614.285241 
L 690.723967 614.285241 
z
" style="fill:#7f7f7f;"/>
   </g>
   <g id="patch_198">
    <path clip-path="url(#p80fe521e32)" d="M 696.626777 615.168 
L 702.529587 615.168 
L 702.529587 613.402483 
L 696.626777 613.402483 
z
" style="fill:#7f7f7f;"/>
   </g>
   <g id="patch_199">
    <path clip-path="url(#p80fe521e32)" d="M 702.529587 615.168 
L 708.432397 615.168 
L 708.432397 614.285241 
L 702.529587 614.285241 
z
" style="fill:#7f7f7f;"/>
   </g>
   <g id="patch_200">
    <path clip-path="url(#p80fe521e32)" d="M 708.432397 615.168 
L 714.335207 615.168 
L 714.335207 615.168 
L 708.432397 615.168 
z
" style="fill:#7f7f7f;"/>
   </g>
   <g id="patch_201">
    <path clip-path="url(#p80fe521e32)" d="M 714.335207 615.168 
L 720.238017 615.168 
L 720.238017 615.168 
L 714.335207 615.168 
z
" style="fill:#7f7f7f;"/>
   </g>
   <g id="patch_202">
    <path clip-path="url(#p80fe521e32)" d="M 720.238017 615.168 
L 726.140826 615.168 
L 726.140826 615.168 
L 720.238017 615.168 
z
" style="fill:#7f7f7f;"/>
   </g>
   <g id="patch_203">
    <path clip-path="url(#p80fe521e32)" d="M 726.140826 615.168 
L 732.043636 615.168 
L 732.043636 615.168 
L 726.140826 615.168 
z
" style="fill:#7f7f7f;"/>
   </g>
   <g id="patch_204">
    <path clip-path="url(#p80fe521e32)" d="M 732.043636 615.168 
L 737.946446 615.168 
L 737.946446 615.168 
L 732.043636 615.168 
z
" style="fill:#7f7f7f;"/>
   </g>
   <g id="patch_205">
    <path clip-path="url(#p80fe521e32)" d="M 737.946446 615.168 
L 743.849256 615.168 
L 743.849256 615.168 
L 737.946446 615.168 
z
" style="fill:#7f7f7f;"/>
   </g>
   <g id="patch_206">
    <path clip-path="url(#p80fe521e32)" d="M 743.849256 615.168 
L 749.752066 615.168 
L 749.752066 615.168 
L 743.849256 615.168 
z
" style="fill:#7f7f7f;"/>
   </g>
   <g id="patch_207">
    <path clip-path="url(#p80fe521e32)" d="M 749.752066 615.168 
L 755.654876 615.168 
L 755.654876 615.168 
L 749.752066 615.168 
z
" style="fill:#7f7f7f;"/>
   </g>
   <g id="patch_208">
    <path clip-path="url(#p80fe521e32)" d="M 755.654876 615.168 
L 761.557686 615.168 
L 761.557686 615.168 
L 755.654876 615.168 
z
" style="fill:#7f7f7f;"/>
   </g>
   <g id="patch_209">
    <path clip-path="url(#p80fe521e32)" d="M 761.557686 615.168 
L 767.460496 615.168 
L 767.460496 615.168 
L 761.557686 615.168 
z
" style="fill:#7f7f7f;"/>
   </g>
   <g id="patch_210">
    <path clip-path="url(#p80fe521e32)" d="M 767.460496 615.168 
L 773.363306 615.168 
L 773.363306 615.168 
L 767.460496 615.168 
z
" style="fill:#7f7f7f;"/>
   </g>
   <g id="patch_211">
    <path clip-path="url(#p80fe521e32)" d="M 773.363306 615.168 
L 779.266116 615.168 
L 779.266116 615.168 
L 773.363306 615.168 
z
" style="fill:#7f7f7f;"/>
   </g>
   <g id="patch_212">
    <path clip-path="url(#p80fe521e32)" d="M 779.266116 615.168 
L 785.168926 615.168 
L 785.168926 615.168 
L 779.266116 615.168 
z
" style="fill:#7f7f7f;"/>
   </g>
   <g id="patch_213">
    <path clip-path="url(#p80fe521e32)" d="M 785.168926 615.168 
L 791.071736 615.168 
L 791.071736 615.168 
L 785.168926 615.168 
z
" style="fill:#7f7f7f;"/>
   </g>
   <g id="patch_214">
    <path clip-path="url(#p80fe521e32)" d="M 791.071736 615.168 
L 796.974545 615.168 
L 796.974545 615.168 
L 791.071736 615.168 
z
" style="fill:#7f7f7f;"/>
   </g>
   <g id="patch_215">
    <path clip-path="url(#p80fe521e32)" d="M 796.974545 615.168 
L 802.877355 615.168 
L 802.877355 615.168 
L 796.974545 615.168 
z
" style="fill:#7f7f7f;"/>
   </g>
   <g id="patch_216">
    <path clip-path="url(#p80fe521e32)" d="M 802.877355 615.168 
L 808.780165 615.168 
L 808.780165 615.168 
L 802.877355 615.168 
z
" style="fill:#7f7f7f;"/>
   </g>
   <g id="patch_217">
    <path clip-path="url(#p80fe521e32)" d="M 808.780165 615.168 
L 814.682975 615.168 
L 814.682975 614.285241 
L 808.780165 614.285241 
z
" style="fill:#7f7f7f;"/>
   </g>
   <g id="matplotlib.axis_7">
    <g id="xtick_19">
     <g id="line2d_48">
      <g>
       <use style="stroke:#000000;stroke-width:0.8;" x="551.710926" xlink:href="#mecd939b4ac" y="615.168"/>
      </g>
     </g>
     <g id="text_54">
      <!-- 0.15 -->
      <g transform="translate(540.578113 629.766437)scale(0.1 -0.1)">
       <use xlink:href="#DejaVuSans-48"/>
       <use x="63.623047" xlink:href="#DejaVuSans-46"/>
       <use x="95.410156" xlink:href="#DejaVuSans-49"/>
       <use x="159.033203" xlink:href="#DejaVuSans-53"/>
      </g>
     </g>
    </g>
    <g id="xtick_20">
     <g id="line2d_49">
      <g>
       <use style="stroke:#000000;stroke-width:0.8;" x="607.073258" xlink:href="#mecd939b4ac" y="615.168"/>
      </g>
     </g>
     <g id="text_55">
      <!-- 0.20 -->
      <g transform="translate(595.940445 629.766437)scale(0.1 -0.1)">
       <use xlink:href="#DejaVuSans-48"/>
       <use x="63.623047" xlink:href="#DejaVuSans-46"/>
       <use x="95.410156" xlink:href="#DejaVuSans-50"/>
       <use x="159.033203" xlink:href="#DejaVuSans-48"/>
      </g>
     </g>
    </g>
    <g id="xtick_21">
     <g id="line2d_50">
      <g>
       <use style="stroke:#000000;stroke-width:0.8;" x="662.43559" xlink:href="#mecd939b4ac" y="615.168"/>
      </g>
     </g>
     <g id="text_56">
      <!-- 0.25 -->
      <g transform="translate(651.302777 629.766437)scale(0.1 -0.1)">
       <use xlink:href="#DejaVuSans-48"/>
       <use x="63.623047" xlink:href="#DejaVuSans-46"/>
       <use x="95.410156" xlink:href="#DejaVuSans-50"/>
       <use x="159.033203" xlink:href="#DejaVuSans-53"/>
      </g>
     </g>
    </g>
    <g id="xtick_22">
     <g id="line2d_51">
      <g>
       <use style="stroke:#000000;stroke-width:0.8;" x="717.797922" xlink:href="#mecd939b4ac" y="615.168"/>
      </g>
     </g>
     <g id="text_57">
      <!-- 0.30 -->
      <g transform="translate(706.665109 629.766437)scale(0.1 -0.1)">
       <use xlink:href="#DejaVuSans-48"/>
       <use x="63.623047" xlink:href="#DejaVuSans-46"/>
       <use x="95.410156" xlink:href="#DejaVuSans-51"/>
       <use x="159.033203" xlink:href="#DejaVuSans-48"/>
      </g>
     </g>
    </g>
    <g id="xtick_23">
     <g id="line2d_52">
      <g>
       <use style="stroke:#000000;stroke-width:0.8;" x="773.160254" xlink:href="#mecd939b4ac" y="615.168"/>
      </g>
     </g>
     <g id="text_58">
      <!-- 0.35 -->
      <g transform="translate(762.027441 629.766437)scale(0.1 -0.1)">
       <use xlink:href="#DejaVuSans-48"/>
       <use x="63.623047" xlink:href="#DejaVuSans-46"/>
       <use x="95.410156" xlink:href="#DejaVuSans-51"/>
       <use x="159.033203" xlink:href="#DejaVuSans-53"/>
      </g>
     </g>
    </g>
    <g id="xtick_24">
     <g id="line2d_53">
      <g>
       <use style="stroke:#000000;stroke-width:0.8;" x="828.522585" xlink:href="#mecd939b4ac" y="615.168"/>
      </g>
     </g>
     <g id="text_59">
      <!-- 0.40 -->
      <g transform="translate(817.389773 629.766437)scale(0.1 -0.1)">
       <use xlink:href="#DejaVuSans-48"/>
       <use x="63.623047" xlink:href="#DejaVuSans-46"/>
       <use x="95.410156" xlink:href="#DejaVuSans-52"/>
       <use x="159.033203" xlink:href="#DejaVuSans-48"/>
      </g>
     </g>
    </g>
   </g>
   <g id="matplotlib.axis_8">
    <g id="ytick_27">
     <g id="line2d_54">
      <g>
       <use style="stroke:#000000;stroke-width:0.8;" x="504.785455" xlink:href="#m02bfd10797" y="615.168"/>
      </g>
     </g>
     <g id="text_60">
      <!-- 0 -->
      <g transform="translate(491.422955 618.967219)scale(0.1 -0.1)">
       <use xlink:href="#DejaVuSans-48"/>
      </g>
     </g>
    </g>
    <g id="ytick_28">
     <g id="line2d_55">
      <g>
       <use style="stroke:#000000;stroke-width:0.8;" x="504.785455" xlink:href="#m02bfd10797" y="571.030069"/>
      </g>
     </g>
     <g id="text_61">
      <!-- 50 -->
      <g transform="translate(485.060455 574.829288)scale(0.1 -0.1)">
       <use xlink:href="#DejaVuSans-53"/>
       <use x="63.623047" xlink:href="#DejaVuSans-48"/>
      </g>
     </g>
    </g>
    <g id="ytick_29">
     <g id="line2d_56">
      <g>
       <use style="stroke:#000000;stroke-width:0.8;" x="504.785455" xlink:href="#m02bfd10797" y="526.892138"/>
      </g>
     </g>
     <g id="text_62">
      <!-- 100 -->
      <g transform="translate(478.697955 530.691357)scale(0.1 -0.1)">
       <use xlink:href="#DejaVuSans-49"/>
       <use x="63.623047" xlink:href="#DejaVuSans-48"/>
       <use x="127.246094" xlink:href="#DejaVuSans-48"/>
      </g>
     </g>
    </g>
    <g id="ytick_30">
     <g id="line2d_57">
      <g>
       <use style="stroke:#000000;stroke-width:0.8;" x="504.785455" xlink:href="#m02bfd10797" y="482.754207"/>
      </g>
     </g>
     <g id="text_63">
      <!-- 150 -->
      <g transform="translate(478.697955 486.553426)scale(0.1 -0.1)">
       <use xlink:href="#DejaVuSans-49"/>
       <use x="63.623047" xlink:href="#DejaVuSans-53"/>
       <use x="127.246094" xlink:href="#DejaVuSans-48"/>
      </g>
     </g>
    </g>
    <g id="ytick_31">
     <g id="line2d_58">
      <g>
       <use style="stroke:#000000;stroke-width:0.8;" x="504.785455" xlink:href="#m02bfd10797" y="438.616276"/>
      </g>
     </g>
     <g id="text_64">
      <!-- 200 -->
      <g transform="translate(478.697955 442.415495)scale(0.1 -0.1)">
       <use xlink:href="#DejaVuSans-50"/>
       <use x="63.623047" xlink:href="#DejaVuSans-48"/>
       <use x="127.246094" xlink:href="#DejaVuSans-48"/>
      </g>
     </g>
    </g>
    <g id="ytick_32">
     <g id="line2d_59">
      <g>
       <use style="stroke:#000000;stroke-width:0.8;" x="504.785455" xlink:href="#m02bfd10797" y="394.478345"/>
      </g>
     </g>
     <g id="text_65">
      <!-- 250 -->
      <g transform="translate(478.697955 398.277564)scale(0.1 -0.1)">
       <use xlink:href="#DejaVuSans-50"/>
       <use x="63.623047" xlink:href="#DejaVuSans-53"/>
       <use x="127.246094" xlink:href="#DejaVuSans-48"/>
      </g>
     </g>
    </g>
   </g>
   <g id="line2d_60">
    <path clip-path="url(#p80fe521e32)" d="M 569.762234 615.168 
L 569.762234 373.248 
" style="fill:none;stroke:#00008b;stroke-linecap:square;stroke-width:1.5;"/>
   </g>
   <g id="patch_218">
    <path d="M 504.785455 615.168 
L 504.785455 373.248 
" style="fill:none;stroke:#000000;stroke-linecap:square;stroke-linejoin:miter;stroke-width:0.8;"/>
   </g>
   <g id="patch_219">
    <path d="M 829.44 615.168 
L 829.44 373.248 
" style="fill:none;stroke:#000000;stroke-linecap:square;stroke-linejoin:miter;stroke-width:0.8;"/>
   </g>
   <g id="patch_220">
    <path d="M 504.785455 615.168 
L 829.44 615.168 
" style="fill:none;stroke:#000000;stroke-linecap:square;stroke-linejoin:miter;stroke-width:0.8;"/>
   </g>
   <g id="patch_221">
    <path d="M 504.785455 373.248 
L 829.44 373.248 
" style="fill:none;stroke:#000000;stroke-linecap:square;stroke-linejoin:miter;stroke-width:0.8;"/>
   </g>
   <g id="text_66">
    <!-- D -->
    <g transform="translate(508.032 383.265637)scale(0.1 -0.1)">
     <defs>
      <path d="M 19.671875 64.796875 
L 19.671875 8.109375 
L 31.59375 8.109375 
Q 46.6875 8.109375 53.6875 14.9375 
Q 60.6875 21.78125 60.6875 36.53125 
Q 60.6875 51.171875 53.6875 57.984375 
Q 46.6875 64.796875 31.59375 64.796875 
z
M 9.8125 72.90625 
L 30.078125 72.90625 
Q 51.265625 72.90625 61.171875 64.09375 
Q 71.09375 55.28125 71.09375 36.53125 
Q 71.09375 17.671875 61.125 8.828125 
Q 51.171875 0 30.078125 0 
L 9.8125 0 
z
" id="DejaVuSans-68"/>
     </defs>
     <use xlink:href="#DejaVuSans-68"/>
    </g>
   </g>
   <g id="text_67">
    <!-- $p$ = 0.7104 -->
    <g transform="translate(667.112727 494.208)scale(0.1 -0.1)">
     <use transform="translate(0 0.78125)" xlink:href="#DejaVuSans-Oblique-112"/>
     <use transform="translate(63.476562 0.78125)" xlink:href="#DejaVuSans-32"/>
     <use transform="translate(95.263672 0.78125)" xlink:href="#DejaVuSans-61"/>
     <use transform="translate(179.052734 0.78125)" xlink:href="#DejaVuSans-32"/>
     <use transform="translate(210.839844 0.78125)" xlink:href="#DejaVuSans-48"/>
     <use transform="translate(274.462891 0.78125)" xlink:href="#DejaVuSans-46"/>
     <use transform="translate(298.5 0.78125)" xlink:href="#DejaVuSans-55"/>
     <use transform="translate(362.123047 0.78125)" xlink:href="#DejaVuSans-49"/>
     <use transform="translate(425.746094 0.78125)" xlink:href="#DejaVuSans-48"/>
     <use transform="translate(489.369141 0.78125)" xlink:href="#DejaVuSans-52"/>
    </g>
   </g>
   <g id="text_68">
    <!-- Max $q$ -->
    <g transform="translate(648.932727 367.248)scale(0.12 -0.12)">
     <use transform="translate(0 0.09375)" xlink:href="#DejaVuSans-77"/>
     <use transform="translate(86.279297 0.09375)" xlink:href="#DejaVuSans-97"/>
     <use transform="translate(147.558594 0.09375)" xlink:href="#DejaVuSans-120"/>
     <use transform="translate(206.738281 0.09375)" xlink:href="#DejaVuSans-32"/>
     <use transform="translate(238.525391 0.09375)" xlink:href="#DejaVuSans-Oblique-113"/>
    </g>
   </g>
  </g>
 </g>
 <defs>
  <clipPath id="p638eaf0e00">
   <rect height="241.92" width="324.654545" x="115.2" y="82.944"/>
  </clipPath>
  <clipPath id="p2244645e87">
   <rect height="241.92" width="324.654545" x="504.785455" y="82.944"/>
  </clipPath>
  <clipPath id="p5dfa690a4e">
   <rect height="241.92" width="324.654545" x="115.2" y="373.248"/>
  </clipPath>
  <clipPath id="p80fe521e32">
   <rect height="241.92" width="324.654545" x="504.785455" y="373.248"/>
  </clipPath>
 </defs>
</svg>
